<?xml version="1.0" encoding="utf-8" standalone="no"?>
<!DOCTYPE svg PUBLIC "-//W3C//DTD SVG 1.1//EN"
  "http://www.w3.org/Graphics/SVG/1.1/DTD/svg11.dtd">
<svg xmlns:xlink="http://www.w3.org/1999/xlink" width="411.004687pt" height="313.771687pt" viewBox="0 0 411.004687 313.771687" xmlns="http://www.w3.org/2000/svg" version="1.1">
 <metadata>
  <rdf:RDF xmlns:dc="http://purl.org/dc/elements/1.1/" xmlns:cc="http://creativecommons.org/ns#" xmlns:rdf="http://www.w3.org/1999/02/22-rdf-syntax-ns#">
   <cc:Work>
    <dc:type rdf:resource="http://purl.org/dc/dcmitype/StillImage"/>
    <dc:date>2023-04-09T06:54:53.517872</dc:date>
    <dc:format>image/svg+xml</dc:format>
    <dc:creator>
     <cc:Agent>
      <dc:title>Matplotlib v3.7.1, https://matplotlib.org/</dc:title>
     </cc:Agent>
    </dc:creator>
   </cc:Work>
  </rdf:RDF>
 </metadata>
 <defs>
  <style type="text/css">*{stroke-linejoin: round; stroke-linecap: butt}</style>
 </defs>
 <g id="figure_1">
  <g id="patch_1">
   <path d="M 0 313.771687 
L 411.004687 313.771687 
L 411.004687 0 
L 0 0 
z
" style="fill: #ffffff"/>
  </g>
  <g id="axes_1">
   <g id="patch_2">
    <path d="M 46.684688 273.312 
L 403.804688 273.312 
L 403.804688 7.2 
L 46.684688 7.2 
z
" style="fill: #ffffff"/>
   </g>
   <g id="matplotlib.axis_1">
    <g id="xtick_1">
     <g id="line2d_1">
      <defs>
       <path id="m4e1f1982d6" d="M 0 0 
L 0 3.5 
" style="stroke: #000000; stroke-width: 0.8"/>
      </defs>
      <g>
       <use xlink:href="#m4e1f1982d6" x="62.917415" y="273.312" style="stroke: #000000; stroke-width: 0.8"/>
      </g>
     </g>
     <g id="text_1">
      <!-- 0.0 -->
      <g transform="translate(54.965852 287.910437) scale(0.1 -0.1)">
       <defs>
        <path id="DejaVuSans-30" d="M 2034 4250 
Q 1547 4250 1301 3770 
Q 1056 3291 1056 2328 
Q 1056 1369 1301 889 
Q 1547 409 2034 409 
Q 2525 409 2770 889 
Q 3016 1369 3016 2328 
Q 3016 3291 2770 3770 
Q 2525 4250 2034 4250 
z
M 2034 4750 
Q 2819 4750 3233 4129 
Q 3647 3509 3647 2328 
Q 3647 1150 3233 529 
Q 2819 -91 2034 -91 
Q 1250 -91 836 529 
Q 422 1150 422 2328 
Q 422 3509 836 4129 
Q 1250 4750 2034 4750 
z
" transform="scale(0.015625)"/>
        <path id="DejaVuSans-2e" d="M 684 794 
L 1344 794 
L 1344 0 
L 684 0 
L 684 794 
z
" transform="scale(0.015625)"/>
       </defs>
       <use xlink:href="#DejaVuSans-30"/>
       <use xlink:href="#DejaVuSans-2e" x="63.623047"/>
       <use xlink:href="#DejaVuSans-30" x="95.410156"/>
      </g>
     </g>
    </g>
    <g id="xtick_2">
     <g id="line2d_2">
      <g>
       <use xlink:href="#m4e1f1982d6" x="127.848324" y="273.312" style="stroke: #000000; stroke-width: 0.8"/>
      </g>
     </g>
     <g id="text_2">
      <!-- 0.2 -->
      <g transform="translate(119.896761 287.910437) scale(0.1 -0.1)">
       <defs>
        <path id="DejaVuSans-32" d="M 1228 531 
L 3431 531 
L 3431 0 
L 469 0 
L 469 531 
Q 828 903 1448 1529 
Q 2069 2156 2228 2338 
Q 2531 2678 2651 2914 
Q 2772 3150 2772 3378 
Q 2772 3750 2511 3984 
Q 2250 4219 1831 4219 
Q 1534 4219 1204 4116 
Q 875 4013 500 3803 
L 500 4441 
Q 881 4594 1212 4672 
Q 1544 4750 1819 4750 
Q 2544 4750 2975 4387 
Q 3406 4025 3406 3419 
Q 3406 3131 3298 2873 
Q 3191 2616 2906 2266 
Q 2828 2175 2409 1742 
Q 1991 1309 1228 531 
z
" transform="scale(0.015625)"/>
       </defs>
       <use xlink:href="#DejaVuSans-30"/>
       <use xlink:href="#DejaVuSans-2e" x="63.623047"/>
       <use xlink:href="#DejaVuSans-32" x="95.410156"/>
      </g>
     </g>
    </g>
    <g id="xtick_3">
     <g id="line2d_3">
      <g>
       <use xlink:href="#m4e1f1982d6" x="192.779233" y="273.312" style="stroke: #000000; stroke-width: 0.8"/>
      </g>
     </g>
     <g id="text_3">
      <!-- 0.4 -->
      <g transform="translate(184.82767 287.910437) scale(0.1 -0.1)">
       <defs>
        <path id="DejaVuSans-34" d="M 2419 4116 
L 825 1625 
L 2419 1625 
L 2419 4116 
z
M 2253 4666 
L 3047 4666 
L 3047 1625 
L 3713 1625 
L 3713 1100 
L 3047 1100 
L 3047 0 
L 2419 0 
L 2419 1100 
L 313 1100 
L 313 1709 
L 2253 4666 
z
" transform="scale(0.015625)"/>
       </defs>
       <use xlink:href="#DejaVuSans-30"/>
       <use xlink:href="#DejaVuSans-2e" x="63.623047"/>
       <use xlink:href="#DejaVuSans-34" x="95.410156"/>
      </g>
     </g>
    </g>
    <g id="xtick_4">
     <g id="line2d_4">
      <g>
       <use xlink:href="#m4e1f1982d6" x="257.710142" y="273.312" style="stroke: #000000; stroke-width: 0.8"/>
      </g>
     </g>
     <g id="text_4">
      <!-- 0.6 -->
      <g transform="translate(249.75858 287.910437) scale(0.1 -0.1)">
       <defs>
        <path id="DejaVuSans-36" d="M 2113 2584 
Q 1688 2584 1439 2293 
Q 1191 2003 1191 1497 
Q 1191 994 1439 701 
Q 1688 409 2113 409 
Q 2538 409 2786 701 
Q 3034 994 3034 1497 
Q 3034 2003 2786 2293 
Q 2538 2584 2113 2584 
z
M 3366 4563 
L 3366 3988 
Q 3128 4100 2886 4159 
Q 2644 4219 2406 4219 
Q 1781 4219 1451 3797 
Q 1122 3375 1075 2522 
Q 1259 2794 1537 2939 
Q 1816 3084 2150 3084 
Q 2853 3084 3261 2657 
Q 3669 2231 3669 1497 
Q 3669 778 3244 343 
Q 2819 -91 2113 -91 
Q 1303 -91 875 529 
Q 447 1150 447 2328 
Q 447 3434 972 4092 
Q 1497 4750 2381 4750 
Q 2619 4750 2861 4703 
Q 3103 4656 3366 4563 
z
" transform="scale(0.015625)"/>
       </defs>
       <use xlink:href="#DejaVuSans-30"/>
       <use xlink:href="#DejaVuSans-2e" x="63.623047"/>
       <use xlink:href="#DejaVuSans-36" x="95.410156"/>
      </g>
     </g>
    </g>
    <g id="xtick_5">
     <g id="line2d_5">
      <g>
       <use xlink:href="#m4e1f1982d6" x="322.641051" y="273.312" style="stroke: #000000; stroke-width: 0.8"/>
      </g>
     </g>
     <g id="text_5">
      <!-- 0.8 -->
      <g transform="translate(314.689489 287.910437) scale(0.1 -0.1)">
       <defs>
        <path id="DejaVuSans-38" d="M 2034 2216 
Q 1584 2216 1326 1975 
Q 1069 1734 1069 1313 
Q 1069 891 1326 650 
Q 1584 409 2034 409 
Q 2484 409 2743 651 
Q 3003 894 3003 1313 
Q 3003 1734 2745 1975 
Q 2488 2216 2034 2216 
z
M 1403 2484 
Q 997 2584 770 2862 
Q 544 3141 544 3541 
Q 544 4100 942 4425 
Q 1341 4750 2034 4750 
Q 2731 4750 3128 4425 
Q 3525 4100 3525 3541 
Q 3525 3141 3298 2862 
Q 3072 2584 2669 2484 
Q 3125 2378 3379 2068 
Q 3634 1759 3634 1313 
Q 3634 634 3220 271 
Q 2806 -91 2034 -91 
Q 1263 -91 848 271 
Q 434 634 434 1313 
Q 434 1759 690 2068 
Q 947 2378 1403 2484 
z
M 1172 3481 
Q 1172 3119 1398 2916 
Q 1625 2713 2034 2713 
Q 2441 2713 2670 2916 
Q 2900 3119 2900 3481 
Q 2900 3844 2670 4047 
Q 2441 4250 2034 4250 
Q 1625 4250 1398 4047 
Q 1172 3844 1172 3481 
z
" transform="scale(0.015625)"/>
       </defs>
       <use xlink:href="#DejaVuSans-30"/>
       <use xlink:href="#DejaVuSans-2e" x="63.623047"/>
       <use xlink:href="#DejaVuSans-38" x="95.410156"/>
      </g>
     </g>
    </g>
    <g id="xtick_6">
     <g id="line2d_6">
      <g>
       <use xlink:href="#m4e1f1982d6" x="387.57196" y="273.312" style="stroke: #000000; stroke-width: 0.8"/>
      </g>
     </g>
     <g id="text_6">
      <!-- 1.0 -->
      <g transform="translate(379.620398 287.910437) scale(0.1 -0.1)">
       <defs>
        <path id="DejaVuSans-31" d="M 794 531 
L 1825 531 
L 1825 4091 
L 703 3866 
L 703 4441 
L 1819 4666 
L 2450 4666 
L 2450 531 
L 3481 531 
L 3481 0 
L 794 0 
L 794 531 
z
" transform="scale(0.015625)"/>
       </defs>
       <use xlink:href="#DejaVuSans-31"/>
       <use xlink:href="#DejaVuSans-2e" x="63.623047"/>
       <use xlink:href="#DejaVuSans-30" x="95.410156"/>
      </g>
     </g>
    </g>
    <g id="text_7">
     <!-- False Positive Rate -->
     <g transform="translate(164.838359 303.868094) scale(0.13 -0.13)">
      <defs>
       <path id="DejaVuSans-46" d="M 628 4666 
L 3309 4666 
L 3309 4134 
L 1259 4134 
L 1259 2759 
L 3109 2759 
L 3109 2228 
L 1259 2228 
L 1259 0 
L 628 0 
L 628 4666 
z
" transform="scale(0.015625)"/>
       <path id="DejaVuSans-61" d="M 2194 1759 
Q 1497 1759 1228 1600 
Q 959 1441 959 1056 
Q 959 750 1161 570 
Q 1363 391 1709 391 
Q 2188 391 2477 730 
Q 2766 1069 2766 1631 
L 2766 1759 
L 2194 1759 
z
M 3341 1997 
L 3341 0 
L 2766 0 
L 2766 531 
Q 2569 213 2275 61 
Q 1981 -91 1556 -91 
Q 1019 -91 701 211 
Q 384 513 384 1019 
Q 384 1609 779 1909 
Q 1175 2209 1959 2209 
L 2766 2209 
L 2766 2266 
Q 2766 2663 2505 2880 
Q 2244 3097 1772 3097 
Q 1472 3097 1187 3025 
Q 903 2953 641 2809 
L 641 3341 
Q 956 3463 1253 3523 
Q 1550 3584 1831 3584 
Q 2591 3584 2966 3190 
Q 3341 2797 3341 1997 
z
" transform="scale(0.015625)"/>
       <path id="DejaVuSans-6c" d="M 603 4863 
L 1178 4863 
L 1178 0 
L 603 0 
L 603 4863 
z
" transform="scale(0.015625)"/>
       <path id="DejaVuSans-73" d="M 2834 3397 
L 2834 2853 
Q 2591 2978 2328 3040 
Q 2066 3103 1784 3103 
Q 1356 3103 1142 2972 
Q 928 2841 928 2578 
Q 928 2378 1081 2264 
Q 1234 2150 1697 2047 
L 1894 2003 
Q 2506 1872 2764 1633 
Q 3022 1394 3022 966 
Q 3022 478 2636 193 
Q 2250 -91 1575 -91 
Q 1294 -91 989 -36 
Q 684 19 347 128 
L 347 722 
Q 666 556 975 473 
Q 1284 391 1588 391 
Q 1994 391 2212 530 
Q 2431 669 2431 922 
Q 2431 1156 2273 1281 
Q 2116 1406 1581 1522 
L 1381 1569 
Q 847 1681 609 1914 
Q 372 2147 372 2553 
Q 372 3047 722 3315 
Q 1072 3584 1716 3584 
Q 2034 3584 2315 3537 
Q 2597 3491 2834 3397 
z
" transform="scale(0.015625)"/>
       <path id="DejaVuSans-65" d="M 3597 1894 
L 3597 1613 
L 953 1613 
Q 991 1019 1311 708 
Q 1631 397 2203 397 
Q 2534 397 2845 478 
Q 3156 559 3463 722 
L 3463 178 
Q 3153 47 2828 -22 
Q 2503 -91 2169 -91 
Q 1331 -91 842 396 
Q 353 884 353 1716 
Q 353 2575 817 3079 
Q 1281 3584 2069 3584 
Q 2775 3584 3186 3129 
Q 3597 2675 3597 1894 
z
M 3022 2063 
Q 3016 2534 2758 2815 
Q 2500 3097 2075 3097 
Q 1594 3097 1305 2825 
Q 1016 2553 972 2059 
L 3022 2063 
z
" transform="scale(0.015625)"/>
       <path id="DejaVuSans-20" transform="scale(0.015625)"/>
       <path id="DejaVuSans-50" d="M 1259 4147 
L 1259 2394 
L 2053 2394 
Q 2494 2394 2734 2622 
Q 2975 2850 2975 3272 
Q 2975 3691 2734 3919 
Q 2494 4147 2053 4147 
L 1259 4147 
z
M 628 4666 
L 2053 4666 
Q 2838 4666 3239 4311 
Q 3641 3956 3641 3272 
Q 3641 2581 3239 2228 
Q 2838 1875 2053 1875 
L 1259 1875 
L 1259 0 
L 628 0 
L 628 4666 
z
" transform="scale(0.015625)"/>
       <path id="DejaVuSans-6f" d="M 1959 3097 
Q 1497 3097 1228 2736 
Q 959 2375 959 1747 
Q 959 1119 1226 758 
Q 1494 397 1959 397 
Q 2419 397 2687 759 
Q 2956 1122 2956 1747 
Q 2956 2369 2687 2733 
Q 2419 3097 1959 3097 
z
M 1959 3584 
Q 2709 3584 3137 3096 
Q 3566 2609 3566 1747 
Q 3566 888 3137 398 
Q 2709 -91 1959 -91 
Q 1206 -91 779 398 
Q 353 888 353 1747 
Q 353 2609 779 3096 
Q 1206 3584 1959 3584 
z
" transform="scale(0.015625)"/>
       <path id="DejaVuSans-69" d="M 603 3500 
L 1178 3500 
L 1178 0 
L 603 0 
L 603 3500 
z
M 603 4863 
L 1178 4863 
L 1178 4134 
L 603 4134 
L 603 4863 
z
" transform="scale(0.015625)"/>
       <path id="DejaVuSans-74" d="M 1172 4494 
L 1172 3500 
L 2356 3500 
L 2356 3053 
L 1172 3053 
L 1172 1153 
Q 1172 725 1289 603 
Q 1406 481 1766 481 
L 2356 481 
L 2356 0 
L 1766 0 
Q 1100 0 847 248 
Q 594 497 594 1153 
L 594 3053 
L 172 3053 
L 172 3500 
L 594 3500 
L 594 4494 
L 1172 4494 
z
" transform="scale(0.015625)"/>
       <path id="DejaVuSans-76" d="M 191 3500 
L 800 3500 
L 1894 563 
L 2988 3500 
L 3597 3500 
L 2284 0 
L 1503 0 
L 191 3500 
z
" transform="scale(0.015625)"/>
       <path id="DejaVuSans-52" d="M 2841 2188 
Q 3044 2119 3236 1894 
Q 3428 1669 3622 1275 
L 4263 0 
L 3584 0 
L 2988 1197 
Q 2756 1666 2539 1819 
Q 2322 1972 1947 1972 
L 1259 1972 
L 1259 0 
L 628 0 
L 628 4666 
L 2053 4666 
Q 2853 4666 3247 4331 
Q 3641 3997 3641 3322 
Q 3641 2881 3436 2590 
Q 3231 2300 2841 2188 
z
M 1259 4147 
L 1259 2491 
L 2053 2491 
Q 2509 2491 2742 2702 
Q 2975 2913 2975 3322 
Q 2975 3731 2742 3939 
Q 2509 4147 2053 4147 
L 1259 4147 
z
" transform="scale(0.015625)"/>
      </defs>
      <use xlink:href="#DejaVuSans-46"/>
      <use xlink:href="#DejaVuSans-61" x="48.394531"/>
      <use xlink:href="#DejaVuSans-6c" x="109.673828"/>
      <use xlink:href="#DejaVuSans-73" x="137.457031"/>
      <use xlink:href="#DejaVuSans-65" x="189.556641"/>
      <use xlink:href="#DejaVuSans-20" x="251.080078"/>
      <use xlink:href="#DejaVuSans-50" x="282.867188"/>
      <use xlink:href="#DejaVuSans-6f" x="339.544922"/>
      <use xlink:href="#DejaVuSans-73" x="400.726562"/>
      <use xlink:href="#DejaVuSans-69" x="452.826172"/>
      <use xlink:href="#DejaVuSans-74" x="480.609375"/>
      <use xlink:href="#DejaVuSans-69" x="519.818359"/>
      <use xlink:href="#DejaVuSans-76" x="547.601562"/>
      <use xlink:href="#DejaVuSans-65" x="606.78125"/>
      <use xlink:href="#DejaVuSans-20" x="668.304688"/>
      <use xlink:href="#DejaVuSans-52" x="700.091797"/>
      <use xlink:href="#DejaVuSans-61" x="767.324219"/>
      <use xlink:href="#DejaVuSans-74" x="828.603516"/>
      <use xlink:href="#DejaVuSans-65" x="867.8125"/>
     </g>
    </g>
   </g>
   <g id="matplotlib.axis_2">
    <g id="ytick_1">
     <g id="line2d_7">
      <defs>
       <path id="m97b4c44cae" d="M 0 0 
L -3.5 0 
" style="stroke: #000000; stroke-width: 0.8"/>
      </defs>
      <g>
       <use xlink:href="#m97b4c44cae" x="46.684688" y="261.216" style="stroke: #000000; stroke-width: 0.8"/>
      </g>
     </g>
     <g id="text_8">
      <!-- 0.0 -->
      <g transform="translate(23.781563 265.015219) scale(0.1 -0.1)">
       <use xlink:href="#DejaVuSans-30"/>
       <use xlink:href="#DejaVuSans-2e" x="63.623047"/>
       <use xlink:href="#DejaVuSans-30" x="95.410156"/>
      </g>
     </g>
    </g>
    <g id="ytick_2">
     <g id="line2d_8">
      <g>
       <use xlink:href="#m97b4c44cae" x="46.684688" y="212.832" style="stroke: #000000; stroke-width: 0.8"/>
      </g>
     </g>
     <g id="text_9">
      <!-- 0.2 -->
      <g transform="translate(23.781563 216.631219) scale(0.1 -0.1)">
       <use xlink:href="#DejaVuSans-30"/>
       <use xlink:href="#DejaVuSans-2e" x="63.623047"/>
       <use xlink:href="#DejaVuSans-32" x="95.410156"/>
      </g>
     </g>
    </g>
    <g id="ytick_3">
     <g id="line2d_9">
      <g>
       <use xlink:href="#m97b4c44cae" x="46.684688" y="164.448" style="stroke: #000000; stroke-width: 0.8"/>
      </g>
     </g>
     <g id="text_10">
      <!-- 0.4 -->
      <g transform="translate(23.781563 168.247219) scale(0.1 -0.1)">
       <use xlink:href="#DejaVuSans-30"/>
       <use xlink:href="#DejaVuSans-2e" x="63.623047"/>
       <use xlink:href="#DejaVuSans-34" x="95.410156"/>
      </g>
     </g>
    </g>
    <g id="ytick_4">
     <g id="line2d_10">
      <g>
       <use xlink:href="#m97b4c44cae" x="46.684688" y="116.064" style="stroke: #000000; stroke-width: 0.8"/>
      </g>
     </g>
     <g id="text_11">
      <!-- 0.6 -->
      <g transform="translate(23.781563 119.863219) scale(0.1 -0.1)">
       <use xlink:href="#DejaVuSans-30"/>
       <use xlink:href="#DejaVuSans-2e" x="63.623047"/>
       <use xlink:href="#DejaVuSans-36" x="95.410156"/>
      </g>
     </g>
    </g>
    <g id="ytick_5">
     <g id="line2d_11">
      <g>
       <use xlink:href="#m97b4c44cae" x="46.684688" y="67.68" style="stroke: #000000; stroke-width: 0.8"/>
      </g>
     </g>
     <g id="text_12">
      <!-- 0.8 -->
      <g transform="translate(23.781563 71.479219) scale(0.1 -0.1)">
       <use xlink:href="#DejaVuSans-30"/>
       <use xlink:href="#DejaVuSans-2e" x="63.623047"/>
       <use xlink:href="#DejaVuSans-38" x="95.410156"/>
      </g>
     </g>
    </g>
    <g id="ytick_6">
     <g id="line2d_12">
      <g>
       <use xlink:href="#m97b4c44cae" x="46.684688" y="19.296" style="stroke: #000000; stroke-width: 0.8"/>
      </g>
     </g>
     <g id="text_13">
      <!-- 1.0 -->
      <g transform="translate(23.781563 23.095219) scale(0.1 -0.1)">
       <use xlink:href="#DejaVuSans-31"/>
       <use xlink:href="#DejaVuSans-2e" x="63.623047"/>
       <use xlink:href="#DejaVuSans-30" x="95.410156"/>
      </g>
     </g>
    </g>
    <g id="text_14">
     <!-- True Positive Rate -->
     <g transform="translate(17.077969 198.144594) rotate(-90) scale(0.13 -0.13)">
      <defs>
       <path id="DejaVuSans-54" d="M -19 4666 
L 3928 4666 
L 3928 4134 
L 2272 4134 
L 2272 0 
L 1638 0 
L 1638 4134 
L -19 4134 
L -19 4666 
z
" transform="scale(0.015625)"/>
       <path id="DejaVuSans-72" d="M 2631 2963 
Q 2534 3019 2420 3045 
Q 2306 3072 2169 3072 
Q 1681 3072 1420 2755 
Q 1159 2438 1159 1844 
L 1159 0 
L 581 0 
L 581 3500 
L 1159 3500 
L 1159 2956 
Q 1341 3275 1631 3429 
Q 1922 3584 2338 3584 
Q 2397 3584 2469 3576 
Q 2541 3569 2628 3553 
L 2631 2963 
z
" transform="scale(0.015625)"/>
       <path id="DejaVuSans-75" d="M 544 1381 
L 544 3500 
L 1119 3500 
L 1119 1403 
Q 1119 906 1312 657 
Q 1506 409 1894 409 
Q 2359 409 2629 706 
Q 2900 1003 2900 1516 
L 2900 3500 
L 3475 3500 
L 3475 0 
L 2900 0 
L 2900 538 
Q 2691 219 2414 64 
Q 2138 -91 1772 -91 
Q 1169 -91 856 284 
Q 544 659 544 1381 
z
M 1991 3584 
L 1991 3584 
z
" transform="scale(0.015625)"/>
      </defs>
      <use xlink:href="#DejaVuSans-54"/>
      <use xlink:href="#DejaVuSans-72" x="46.333984"/>
      <use xlink:href="#DejaVuSans-75" x="87.447266"/>
      <use xlink:href="#DejaVuSans-65" x="150.826172"/>
      <use xlink:href="#DejaVuSans-20" x="212.349609"/>
      <use xlink:href="#DejaVuSans-50" x="244.136719"/>
      <use xlink:href="#DejaVuSans-6f" x="300.814453"/>
      <use xlink:href="#DejaVuSans-73" x="361.996094"/>
      <use xlink:href="#DejaVuSans-69" x="414.095703"/>
      <use xlink:href="#DejaVuSans-74" x="441.878906"/>
      <use xlink:href="#DejaVuSans-69" x="481.087891"/>
      <use xlink:href="#DejaVuSans-76" x="508.871094"/>
      <use xlink:href="#DejaVuSans-65" x="568.050781"/>
      <use xlink:href="#DejaVuSans-20" x="629.574219"/>
      <use xlink:href="#DejaVuSans-52" x="661.361328"/>
      <use xlink:href="#DejaVuSans-61" x="728.59375"/>
      <use xlink:href="#DejaVuSans-74" x="789.873047"/>
      <use xlink:href="#DejaVuSans-65" x="829.082031"/>
     </g>
    </g>
   </g>
   <g id="line2d_13">
    <path d="M 62.917415 261.216 
L 62.984202 242.304336 
L 63.05099 242.304336 
L 63.117778 236.630836 
L 63.184565 236.630836 
L 63.251353 234.092692 
L 63.31814 234.092692 
L 63.384928 232.251293 
L 63.451716 232.251293 
L 63.518503 230.758267 
L 63.585291 230.758267 
L 63.652078 225.681978 
L 63.718866 225.632211 
L 63.785654 225.184303 
L 63.852441 225.184303 
L 63.919229 222.795461 
L 64.052804 222.745693 
L 64.119592 221.352202 
L 64.186379 221.352202 
L 64.253167 219.560571 
L 64.319954 219.560571 
L 64.386742 217.868475 
L 64.45353 217.868475 
L 64.520317 215.579168 
L 64.587105 215.579168 
L 64.653892 215.081493 
L 64.787468 215.031725 
L 64.854255 214.135909 
L 64.921043 214.135909 
L 64.987831 212.244743 
L 65.054618 212.244743 
L 65.121406 211.796835 
L 65.188193 211.796835 
L 65.254981 210.652182 
L 65.321769 210.652182 
L 65.388556 206.919617 
L 65.455344 206.919617 
L 65.522131 206.521476 
L 65.588919 206.521476 
L 65.655707 204.381472 
L 65.789282 204.331705 
L 65.856069 202.938214 
L 65.922857 202.938214 
L 65.989645 201.99263 
L 66.056432 201.99263 
L 66.12322 200.549372 
L 66.190007 200.549372 
L 66.256795 198.75774 
L 66.323583 198.75774 
L 66.39037 198.409368 
L 66.457158 198.409368 
L 66.523945 197.96146 
L 66.590733 197.96146 
L 66.657521 196.617736 
L 66.724308 196.617736 
L 66.791096 194.5275 
L 66.991459 194.477732 
L 67.058246 193.980057 
L 67.125034 193.980057 
L 67.191821 192.287961 
L 67.258609 192.287961 
L 67.325397 191.640983 
L 67.458972 191.541447 
L 67.525759 191.193075 
L 67.592547 191.193075 
L 67.659335 189.899119 
L 67.726122 189.899119 
L 67.726122 188.903768 
L 67.926485 188.854 
L 67.926485 188.505628 
L 68.126848 188.45586 
L 68.193636 188.05772 
L 68.327211 188.05772 
L 68.393998 187.709347 
L 68.460786 187.709347 
L 68.527574 186.166553 
L 68.661149 186.166553 
L 68.727936 185.121435 
L 68.794724 185.121435 
L 68.861512 184.42469 
L 69.061874 184.325154 
L 69.128662 183.180501 
L 69.329025 183.180501 
L 69.395812 181.98608 
L 69.596175 181.886545 
L 69.662963 181.289335 
L 69.72975 181.289335 
L 69.796538 180.891194 
L 69.863326 180.891194 
L 69.930113 179.846076 
L 69.996901 179.846076 
L 70.063688 178.601888 
L 70.130476 178.601888 
L 70.197264 177.805607 
L 70.330839 177.706072 
L 70.397626 176.213046 
L 70.464414 176.213046 
L 70.531202 175.615835 
L 70.597989 175.615835 
L 70.597989 175.11816 
L 70.798352 175.018625 
L 70.86514 174.819555 
L 70.998715 174.819555 
L 71.065503 173.127459 
L 71.199078 173.127459 
L 71.265865 172.779086 
L 71.332653 172.779086 
L 71.399441 171.733967 
L 71.533016 171.634432 
L 71.599803 168.946985 
L 71.666591 168.946985 
L 71.733379 167.8521 
L 71.800166 167.8521 
L 71.866954 167.105587 
L 72.134104 167.055819 
L 72.134104 166.956284 
L 72.267679 166.956284 
L 72.334467 165.562793 
L 72.468042 165.463258 
L 72.53483 165.164653 
L 72.601617 165.164653 
L 72.601617 164.965582 
L 72.735193 164.965582 
L 72.80198 164.219069 
L 73.135918 164.119534 
L 73.135918 163.771161 
L 73.336281 163.771161 
L 73.403069 163.373021 
L 73.536644 163.373021 
L 73.603431 162.825578 
L 73.737007 162.825578 
L 73.737007 162.427438 
L 73.93737 162.427438 
L 74.004157 162.1786 
L 74.070945 162.1786 
L 74.137732 161.78046 
L 74.271308 161.78046 
L 74.271308 161.18325 
L 74.404883 161.18325 
L 74.404883 160.785109 
L 74.605246 160.685574 
L 74.672033 159.590688 
L 74.738821 159.590688 
L 74.805608 159.391618 
L 74.872396 159.391618 
L 74.939184 158.794408 
L 75.072759 158.794408 
L 75.139546 157.400917 
L 75.273122 157.301382 
L 75.339909 157.052544 
L 75.406697 157.052544 
L 75.473484 156.704171 
L 75.540272 156.704171 
L 75.540272 156.505101 
L 75.673847 156.505101 
L 75.740635 155.907891 
L 75.807422 155.907891 
L 75.87421 155.559518 
L 75.940998 155.559518 
L 76.007785 154.91254 
L 76.074573 154.91254 
L 76.14136 154.414864 
L 76.274936 154.414864 
L 76.274936 153.867422 
L 76.608874 153.767886 
L 76.675661 153.668351 
L 76.742449 153.668351 
L 76.742449 152.921838 
L 76.876024 152.921838 
L 76.876024 152.573466 
L 77.009599 152.573466 
L 77.076387 151.727417 
L 77.27675 151.627882 
L 77.343537 151.27951 
L 77.410325 151.27951 
L 77.477113 150.732067 
L 77.610688 150.632532 
L 77.677475 150.234391 
L 77.744263 150.234391 
L 77.811051 149.836251 
L 77.944626 149.836251 
L 78.011413 149.438111 
L 78.078201 149.438111 
L 78.144989 148.691598 
L 78.345351 148.64183 
L 78.412139 147.895317 
L 78.545714 147.895317 
L 78.612502 147.646479 
L 78.746077 147.646479 
L 78.746077 147.497177 
L 78.94644 147.447409 
L 79.013227 146.850199 
L 79.146803 146.800431 
L 79.146803 146.501826 
L 79.280378 146.501826 
L 79.347165 145.655778 
L 79.413953 145.655778 
L 79.480741 145.357173 
L 79.747891 145.357173 
L 79.747891 144.710195 
L 79.948254 144.61066 
L 80.015042 144.212519 
L 80.215404 144.162752 
L 80.282192 143.466006 
L 80.34898 143.466006 
L 80.34898 143.217168 
L 80.482555 143.217168 
L 80.549342 142.669726 
L 80.749705 142.619958 
L 80.816493 142.17205 
L 80.88328 142.17205 
L 80.88328 141.97298 
L 81.016856 141.97298 
L 81.083643 141.226467 
L 81.150431 141.226467 
L 81.217218 140.778559 
L 81.284006 140.778559 
L 81.350794 140.579489 
L 81.417581 140.579489 
L 81.484369 140.330651 
L 81.751519 140.280884 
L 81.818307 139.982279 
L 82.01867 139.932511 
L 82.085457 139.086463 
L 82.152245 139.086463 
L 82.219032 138.73809 
L 82.352608 138.638555 
L 82.419395 138.290182 
L 82.55297 138.290182 
L 82.619758 138.041345 
L 82.686546 138.041345 
L 82.753333 137.444134 
L 82.886909 137.444134 
L 82.886909 137.095761 
L 83.020484 137.095761 
L 83.087271 136.598086 
L 83.287634 136.548318 
L 83.354422 135.801805 
L 83.487997 135.801805 
L 83.554785 135.30413 
L 83.755147 135.204595 
L 83.755147 135.055292 
L 83.95551 135.055292 
L 83.95551 134.806455 
L 84.089085 134.806455 
L 84.089085 134.308779 
L 84.423023 134.209244 
L 84.489811 133.363196 
L 84.690174 133.313429 
L 84.756961 133.064591 
L 84.823749 133.064591 
L 84.890537 132.666451 
L 85.024112 132.616683 
L 85.090899 132.218543 
L 85.157687 132.218543 
L 85.157687 131.969705 
L 85.291262 131.969705 
L 85.35805 131.372495 
L 85.424837 131.372495 
L 85.491625 130.924587 
L 85.6252 130.874819 
L 85.691988 130.625981 
L 85.758776 130.625981 
L 85.825563 130.327376 
L 85.892351 130.327376 
L 85.959138 129.481328 
L 86.025926 129.481328 
L 86.092714 129.132955 
L 86.359864 129.03342 
L 86.426652 128.933885 
L 86.627014 128.83435 
L 86.693802 128.23714 
L 86.894165 128.137605 
L 86.960952 127.739464 
L 87.094528 127.739464 
L 87.161315 127.192021 
L 87.228103 127.192021 
L 87.228103 126.992951 
L 87.361678 126.992951 
L 87.428466 126.694346 
L 87.495253 126.694346 
L 87.562041 126.296206 
L 87.628828 126.296206 
L 87.695616 125.79853 
L 87.895979 125.698995 
L 87.962766 125.251087 
L 88.163129 125.20132 
L 88.163129 125.052017 
L 88.363492 124.952482 
L 88.43028 124.653877 
L 88.630643 124.504574 
L 88.69743 123.857596 
L 88.764218 123.857596 
L 88.831005 122.663175 
L 88.964581 122.56364 
L 89.031368 122.414338 
L 89.164943 122.36457 
L 89.231731 122.065965 
L 89.432094 122.065965 
L 89.432094 121.866895 
L 89.565669 121.866895 
L 89.632457 121.518522 
L 89.766032 121.468755 
L 89.832819 121.120382 
L 89.899607 121.120382 
L 89.966395 120.622706 
L 90.033182 120.622706 
L 90.09997 120.125031 
L 90.300333 120.125031 
L 90.36712 119.577588 
L 90.500695 119.478053 
L 90.500695 119.428286 
L 90.834633 119.32875 
L 90.901421 118.681772 
L 91.034996 118.582237 
L 91.101784 118.482702 
L 91.168571 118.482702 
L 91.168571 118.233865 
L 91.302147 118.233865 
L 91.368934 117.537119 
L 91.435722 117.537119 
L 91.502509 117.089211 
L 91.569297 117.089211 
L 91.636085 116.691071 
L 91.76966 116.591536 
L 91.76966 116.342698 
L 92.03681 116.243163 
L 92.03681 116.143628 
L 92.237173 116.143628 
L 92.303961 115.69572 
L 92.370748 115.69572 
L 92.437536 115.198045 
L 92.504324 115.198045 
L 92.571111 114.401764 
L 92.838262 114.351997 
L 92.905049 113.605484 
L 92.971837 113.605484 
L 93.038624 113.257111 
L 93.305775 113.257111 
L 93.372562 112.858971 
L 93.43935 112.858971 
L 93.506138 112.6599 
L 93.7065 112.610133 
L 93.7065 112.361295 
L 93.840076 112.361295 
L 93.840076 112.211993 
L 93.973651 112.211993 
L 94.040438 111.963155 
L 94.107226 111.963155 
L 94.107226 111.813852 
L 94.307589 111.813852 
L 94.307589 111.515247 
L 94.441164 111.515247 
L 94.507952 110.569664 
L 94.708315 110.519896 
L 94.708315 109.872918 
L 94.908677 109.773383 
L 94.975465 109.574313 
L 95.10904 109.474778 
L 95.10904 109.275708 
L 95.376191 109.176173 
L 95.442978 108.728265 
L 95.576553 108.678497 
L 95.643341 108.280357 
L 95.710129 108.280357 
L 95.710129 107.981752 
L 96.044067 107.882217 
L 96.110854 107.334774 
L 96.244429 107.285006 
L 96.311217 107.036169 
L 96.444792 107.036169 
L 96.51158 106.638028 
L 96.711943 106.538493 
L 96.77873 105.99105 
L 96.979093 105.941283 
L 97.045881 105.543143 
L 97.179456 105.543143 
L 97.179456 105.344072 
L 97.379819 105.294305 
L 97.379819 105.19477 
L 97.580182 105.145002 
L 97.646969 104.746862 
L 97.713757 104.746862 
L 97.780544 104.398489 
L 98.114482 104.348722 
L 98.18127 103.900814 
L 98.314845 103.801279 
L 98.314845 103.751511 
L 98.44842 103.751511 
L 98.515208 103.403138 
L 98.581996 103.403138 
L 98.648783 103.204068 
L 98.782358 103.204068 
L 98.782358 103.154301 
L 98.849146 102.507323 
L 98.982721 102.507323 
L 99.049509 102.109182 
L 99.183084 102.109182 
L 99.183084 101.810577 
L 99.517022 101.711042 
L 99.58381 101.462204 
L 99.85096 101.362669 
L 99.85096 101.163599 
L 100.051323 101.113832 
L 100.051323 101.014297 
L 100.251686 101.014297 
L 100.251686 100.516621 
L 100.585624 100.417086 
L 100.652411 100.018946 
L 100.852774 99.919411 
L 100.852774 99.770108 
L 101.2535 99.670573 
L 101.2535 99.521271 
L 101.52065 99.471503 
L 101.587438 99.222665 
L 101.721013 99.172898 
L 101.787801 98.675222 
L 101.854588 98.675222 
L 101.854588 98.476152 
L 102.121739 98.426385 
L 102.188526 98.127779 
L 102.388889 98.028244 
L 102.455677 97.928709 
L 102.522464 97.928709 
L 102.522464 97.779407 
L 102.722827 97.779407 
L 102.789615 97.132429 
L 102.856402 97.132429 
L 102.856402 96.933359 
L 103.123553 96.883591 
L 103.19034 96.336148 
L 103.323915 96.286381 
L 103.390703 95.938008 
L 103.591066 95.88824 
L 103.657854 95.340797 
L 103.724641 95.340797 
L 103.724641 95.191495 
L 103.925004 95.191495 
L 103.991792 94.544517 
L 104.258942 94.444982 
L 104.32573 94.146376 
L 104.659668 94.046841 
L 104.726455 93.798004 
L 104.793243 93.798004 
L 104.86003 93.449631 
L 104.993606 93.350096 
L 104.993606 93.300328 
L 105.260756 93.200793 
L 105.260756 93.151026 
L 105.461119 93.151026 
L 105.461119 92.85242 
L 106.195782 92.752885 
L 106.26257 92.553815 
L 106.596508 92.504048 
L 106.663296 92.25521 
L 106.796871 92.25521 
L 106.796871 92.105907 
L 106.930446 92.105907 
L 106.997234 91.906837 
L 107.064021 91.906837 
L 107.064021 91.707767 
L 107.397959 91.658 
L 107.464747 91.309627 
L 107.531535 91.309627 
L 107.598322 91.011022 
L 107.66511 91.011022 
L 107.66511 90.811951 
L 107.798685 90.811951 
L 107.798685 90.314276 
L 108.065835 90.214741 
L 108.132623 89.916136 
L 108.399773 89.866368 
L 108.399773 89.766833 
L 108.733711 89.667298 
L 108.733711 89.368693 
L 109.000862 89.368693 
L 109.067649 89.169623 
L 109.401588 89.169623 
L 109.468375 88.871017 
L 109.535163 88.871017 
L 109.60195 88.273807 
L 109.735526 88.174272 
L 109.802313 88.074737 
L 110.269826 87.975202 
L 110.336614 87.776132 
L 110.536977 87.676597 
L 110.536977 87.527294 
L 111.00449 87.427759 
L 111.00449 87.278456 
L 111.138065 87.278456 
L 111.204853 86.731013 
L 111.27164 86.731013 
L 111.338428 86.432408 
L 111.538791 86.432408 
L 111.605578 85.934733 
L 111.672366 85.934733 
L 111.672366 85.78543 
L 111.805941 85.78543 
L 111.805941 85.636128 
L 112.073092 85.536592 
L 112.073092 85.486825 
L 112.273454 85.38729 
L 112.340242 85.088685 
L 112.740968 84.98915 
L 112.740968 84.839847 
L 113.408844 84.740312 
L 113.475631 84.591009 
L 113.742782 84.491474 
L 113.809569 84.391939 
L 113.943145 84.292404 
L 113.943145 84.242636 
L 114.07672 84.242636 
L 114.143507 83.695194 
L 114.210295 83.695194 
L 114.210295 83.446356 
L 114.611021 83.396588 
L 114.677808 83.097983 
L 114.944959 82.998448 
L 115.011746 82.849145 
L 115.078534 82.849145 
L 115.145321 82.102632 
L 115.47926 82.052865 
L 115.546047 81.853795 
L 115.679622 81.853795 
L 115.679622 81.455654 
L 115.813198 81.455654 
L 115.879985 81.107282 
L 116.280711 81.007747 
L 116.280711 80.609606 
L 116.614649 80.510071 
L 116.681436 79.863093 
L 117.082162 79.763558 
L 117.14895 79.31565 
L 117.349312 79.216115 
L 117.349312 79.166348 
L 117.549675 79.166348 
L 117.616463 78.71844 
L 117.816826 78.618905 
L 117.883613 78.419835 
L 117.950401 78.419835 
L 117.950401 77.922159 
L 118.150764 77.872392 
L 118.217551 77.723089 
L 118.351127 77.723089 
L 118.417914 77.524019 
L 118.618277 77.474251 
L 118.618277 77.374716 
L 118.81864 77.275181 
L 118.885427 77.175646 
L 119.620091 77.076111 
L 119.686879 76.926808 
L 119.753666 76.926808 
L 119.753666 76.677971 
L 120.020817 76.578436 
L 120.020817 76.478901 
L 120.287967 76.429133 
L 120.354755 76.180295 
L 120.555117 76.08076 
L 120.621905 75.88169 
L 120.955843 75.831923 
L 120.955843 75.732388 
L 121.156206 75.732388 
L 121.156206 75.583085 
L 121.289781 75.583085 
L 121.289781 75.433782 
L 121.89087 75.334247 
L 121.957657 75.08541 
L 122.42517 74.985875 
L 122.42517 74.936107 
L 122.692321 74.836572 
L 122.759108 74.737037 
L 123.026259 74.637502 
L 123.026259 74.587734 
L 123.159834 74.587734 
L 123.226622 73.940756 
L 123.293409 73.940756 
L 123.360197 73.542616 
L 123.426984 73.542616 
L 123.426984 73.244011 
L 123.82771 73.194243 
L 123.894498 72.945405 
L 124.09486 72.895638 
L 124.161648 72.696568 
L 124.495586 72.597033 
L 124.495586 72.547265 
L 124.695949 72.44773 
L 124.762737 72.24866 
L 125.163462 72.149125 
L 125.23025 71.900287 
L 125.564188 71.800752 
L 125.630975 71.551914 
L 125.697763 71.551914 
L 125.764551 71.104007 
L 125.831338 71.104007 
L 125.831338 70.954704 
L 126.365639 70.855169 
L 126.432427 70.556564 
L 126.89994 70.506796 
L 126.966727 70.257958 
L 127.300666 70.158423 
L 127.300666 70.108656 
L 127.434241 70.108656 
L 127.434241 69.859818 
L 127.834966 69.760283 
L 127.834966 69.710516 
L 128.56963 69.61098 
L 128.56963 69.561213 
L 129.037143 69.461678 
L 129.103931 69.262608 
L 129.237506 69.163073 
L 129.304294 68.864467 
L 129.437869 68.8147 
L 129.437869 68.715165 
L 130.038957 68.61563 
L 130.105745 68.267257 
L 130.306108 68.167722 
L 130.306108 68.117954 
L 130.573258 68.018419 
L 130.573258 67.968652 
L 131.040771 67.869117 
L 131.107559 67.769582 
L 131.708647 67.670046 
L 131.775435 67.570511 
L 131.90901 67.470976 
L 131.975798 67.072836 
L 132.376523 66.973301 
L 132.443311 66.823998 
L 132.510099 66.823998 
L 132.510099 66.674696 
L 132.777249 66.624928 
L 132.777249 66.475626 
L 132.910824 66.475626 
L 132.977612 66.226788 
L 133.177975 66.226788 
L 133.244762 65.878415 
L 133.779063 65.77888 
L 133.845851 65.480275 
L 134.046214 65.430507 
L 134.113001 65.032367 
L 134.313364 65.032367 
L 134.313364 64.833297 
L 134.580514 64.733762 
L 134.647302 64.634227 
L 134.847665 64.584459 
L 134.914452 64.335621 
L 135.582328 64.236086 
L 135.649116 64.136551 
L 135.715904 64.136551 
L 135.782691 63.589108 
L 135.849479 63.589108 
L 135.916266 63.390038 
L 136.116629 63.290503 
L 136.116629 63.240736 
L 136.38378 63.141201 
L 136.38378 63.041666 
L 136.717718 62.94213 
L 136.717718 62.892363 
L 136.984868 62.892363 
L 137.051656 62.643525 
L 137.919895 62.54399 
L 137.919895 62.444455 
L 138.187045 62.34492 
L 138.253833 62.195617 
L 138.988496 62.096082 
L 139.055284 61.797477 
L 139.589585 61.697942 
L 139.656372 61.548639 
L 139.99031 61.449104 
L 140.057098 61.200267 
L 140.257461 61.150499 
L 140.324248 60.652824 
L 140.992124 60.553289 
L 140.992124 60.503521 
L 141.326062 60.453754 
L 141.326062 60.354218 
L 141.927151 60.254683 
L 141.993938 60.155148 
L 142.127514 60.155148 
L 142.127514 60.005846 
L 142.461452 60.005846 
L 142.461452 59.757008 
L 142.595027 59.757008 
L 142.595027 59.607705 
L 142.79539 59.50817 
L 142.862177 59.358868 
L 143.129328 59.259333 
L 143.196115 59.159798 
L 143.463266 59.11003 
L 143.463266 58.91096 
L 143.730416 58.91096 
L 143.730416 58.761657 
L 144.331505 58.662122 
L 144.331505 58.51282 
L 144.46508 58.51282 
L 144.46508 58.313749 
L 144.799018 58.214214 
L 144.799018 58.064912 
L 145.132956 58.064912 
L 145.199744 57.816074 
L 146.001195 57.716539 
L 146.001195 57.666771 
L 146.40192 57.567236 
L 146.468708 57.318399 
L 146.602283 57.218864 
L 146.669071 57.119329 
L 147.003009 57.019793 
L 147.069796 56.920258 
L 147.80446 56.820723 
L 147.80446 56.770956 
L 148.071611 56.721188 
L 148.138398 56.522118 
L 148.205186 56.522118 
L 148.271973 56.223513 
L 148.472336 56.173745 
L 148.472336 56.07421 
L 148.605911 56.07421 
L 148.605911 55.924908 
L 149.140212 55.825373 
L 149.140212 55.775605 
L 149.47415 55.67607 
L 149.47415 55.626302 
L 150.142026 55.526767 
L 150.142026 55.427232 
L 150.542752 55.327697 
L 150.542752 55.27793 
L 150.809902 55.27793 
L 150.809902 55.128627 
L 151.010265 55.128627 
L 151.077053 54.929557 
L 151.410991 54.879789 
L 151.410991 54.780254 
L 151.678141 54.780254 
L 151.678141 54.431882 
L 152.212442 54.332346 
L 152.27923 54.232811 
L 152.679955 54.133276 
L 152.679955 54.083509 
L 153.548194 53.983974 
L 153.548194 53.934206 
L 153.882132 53.834671 
L 153.94892 53.436531 
L 154.349645 53.336996 
L 154.349645 53.287228 
L 154.550008 53.187693 
L 154.616796 53.088158 
L 154.950734 53.03839 
L 155.017521 52.889088 
L 155.818973 52.789553 
L 155.818973 52.64025 
L 156.152911 52.540715 
L 156.219698 52.44118 
L 156.286486 52.44118 
L 156.353273 51.993272 
L 156.954362 51.943505 
L 156.954362 51.744434 
L 157.421875 51.644899 
L 157.488663 51.495597 
L 158.022964 51.396062 
L 158.022964 51.346294 
L 158.223326 51.296527 
L 158.223326 51.196992 
L 158.423689 51.196992 
L 158.490477 50.997921 
L 158.69084 50.948154 
L 158.757627 50.699316 
L 159.358716 50.599781 
L 159.358716 50.550014 
L 159.692654 50.450479 
L 159.692654 50.350943 
L 160.427317 50.251408 
L 160.427317 50.151873 
L 160.694468 50.102106 
L 160.694468 49.903036 
L 161.028406 49.803501 
L 161.028406 49.654198 
L 161.161981 49.654198 
L 161.228769 49.455128 
L 161.295556 49.455128 
L 161.362344 49.256058 
L 161.562707 49.156523 
L 161.629494 49.056987 
L 161.696282 49.056987 
L 161.696282 48.907685 
L 162.097007 48.80815 
L 162.097007 48.758382 
L 162.430945 48.658847 
L 162.430945 48.60908 
L 162.764883 48.509545 
L 162.764883 48.459777 
L 163.032034 48.410009 
L 163.098822 47.862567 
L 163.69991 47.763031 
L 163.69991 47.713264 
L 164.167423 47.613729 
L 164.167423 47.563961 
L 164.568149 47.514194 
L 164.568149 47.414659 
L 164.902087 47.315124 
L 164.968874 46.867216 
L 165.302812 46.767681 
L 165.302812 46.717913 
L 165.436388 46.717913 
L 165.503175 46.469075 
L 165.903901 46.36954 
L 165.903901 46.270005 
L 166.171051 46.17047 
L 166.237839 46.070935 
L 166.571777 46.021168 
L 166.571777 45.921633 
L 166.972503 45.822098 
L 166.972503 45.77233 
L 167.840741 45.672795 
L 167.840741 45.57326 
L 168.375042 45.473725 
L 168.375042 45.423957 
L 169.109706 45.37419 
L 169.176494 45.17512 
L 169.777582 45.075584 
L 169.84437 44.826747 
L 169.911157 44.826747 
L 169.911157 44.627677 
L 170.178308 44.528142 
L 170.245095 44.179769 
L 170.512246 44.130001 
L 170.512246 44.030466 
L 170.712608 43.980699 
L 170.712608 43.881164 
L 171.313697 43.831396 
L 171.380484 43.682093 
L 171.78121 43.582558 
L 171.847998 43.383488 
L 172.315511 43.283953 
L 172.315511 43.234186 
L 172.916599 43.13465 
L 172.983387 42.885813 
L 173.784838 42.786278 
L 173.784838 42.686743 
L 174.452714 42.587208 
L 174.519502 42.437905 
L 174.85344 42.33837 
L 174.85344 42.238835 
L 175.12059 42.189067 
L 175.12059 42.089532 
L 175.721679 41.989997 
L 175.721679 41.890462 
L 175.988829 41.790927 
L 175.988829 41.741159 
L 176.389555 41.641624 
L 176.389555 41.591857 
L 177.324581 41.492322 
L 177.391369 41.293252 
L 177.591732 41.293252 
L 177.591732 41.143949 
L 177.725307 41.143949 
L 177.792095 40.745809 
L 178.059245 40.646274 
L 178.059245 40.546739 
L 178.526758 40.447203 
L 178.526758 40.397436 
L 178.860696 40.297901 
L 178.860696 40.248133 
L 179.662147 40.148598 
L 179.662147 40.098831 
L 179.996085 39.999296 
L 180.062873 39.899761 
L 180.597174 39.849993 
L 180.663961 39.70069 
L 181.866138 39.601155 
L 181.866138 39.551388 
L 182.467227 39.451853 
L 182.534014 39.352318 
L 182.801165 39.30255 
L 182.867952 39.003945 
L 183.469041 38.90441 
L 183.469041 38.804875 
L 183.802979 38.755107 
L 183.869767 38.556037 
L 185.339094 38.456502 
L 185.339094 38.356967 
L 185.873395 38.257432 
L 185.940182 37.958827 
L 186.541271 37.859292 
L 186.541271 37.809524 
L 187.275934 37.709989 
L 187.275934 37.660221 
L 188.411324 37.560686 
L 188.478111 37.461151 
L 189.012412 37.361616 
L 189.012412 37.311849 
L 189.34635 37.212314 
L 189.34635 37.112778 
L 189.947439 37.013243 
L 190.014226 36.913708 
L 190.481739 36.814173 
L 190.481739 36.764406 
L 190.882465 36.664871 
L 190.882465 36.515568 
L 191.416766 36.4658 
L 191.483553 36.26673 
L 192.017854 36.216963 
L 192.017854 36.06766 
L 192.41858 35.968125 
L 192.41858 35.918358 
L 193.420394 35.818822 
L 193.420394 35.769055 
L 194.221845 35.66952 
L 194.221845 35.619752 
L 194.689358 35.520217 
L 194.689358 35.47045 
L 195.023296 35.370915 
L 195.023296 35.321147 
L 195.357234 35.27138 
L 195.424022 35.122077 
L 196.091898 35.072309 
L 196.158686 34.823472 
L 196.359049 34.723937 
L 196.359049 34.674169 
L 197.360863 34.574634 
L 197.360863 34.524866 
L 197.961951 34.425331 
L 197.961951 34.375564 
L 199.164128 34.276029 
L 199.164128 34.226261 
L 199.832004 34.126726 
L 199.832004 34.076959 
L 200.433092 33.977424 
L 200.433092 33.728586 
L 200.967393 33.629051 
L 200.967393 33.579283 
L 201.635269 33.529516 
L 201.635269 33.429981 
L 202.436721 33.429981 
L 202.503508 33.230911 
L 202.703871 33.230911 
L 202.703871 33.081608 
L 202.971021 33.03184 
L 202.971021 32.932305 
L 203.638897 32.83277 
L 203.705685 32.733235 
L 204.573924 32.6337 
L 204.640712 32.534165 
L 205.50895 32.43463 
L 205.50895 32.384862 
L 206.043251 32.285327 
L 206.043251 32.23556 
L 207.111853 32.136025 
L 207.111853 32.086257 
L 208.180455 31.986722 
L 208.180455 31.936955 
L 208.915118 31.837419 
L 208.915118 31.787652 
L 209.315844 31.688117 
L 209.315844 31.638349 
L 211.319472 31.538814 
L 211.319472 31.489047 
L 212.120923 31.389512 
L 212.120923 31.339744 
L 213.122737 31.240209 
L 213.122737 31.190441 
L 214.124551 31.090906 
L 214.124551 31.041139 
L 214.99279 30.941604 
L 214.99279 30.891836 
L 216.194967 30.792301 
L 216.194967 30.742534 
L 216.462118 30.742534 
L 216.462118 30.593231 
L 216.862843 30.493696 
L 216.862843 30.344393 
L 218.265383 30.244858 
L 218.265383 30.195091 
L 219.46756 30.095556 
L 219.534347 29.846718 
L 222.740152 29.747183 
L 222.740152 29.697415 
L 223.140878 29.647648 
L 223.207666 29.498345 
L 224.20948 29.39881 
L 224.20948 29.349043 
L 225.945957 29.299275 
L 225.945957 29.19974 
L 226.613833 29.100205 
L 226.680621 29.00067 
L 228.350311 28.901135 
L 228.350311 28.851367 
L 229.418913 28.751832 
L 229.418913 28.652297 
L 229.819638 28.552762 
L 229.819638 28.502994 
L 230.955028 28.453227 
L 230.955028 28.303924 
L 232.55793 28.204389 
L 232.55793 28.154622 
L 233.626532 28.104854 
L 233.626532 28.005319 
L 234.094045 27.955552 
L 234.094045 27.856016 
L 234.427983 27.756481 
L 234.427983 27.706714 
L 234.962284 27.607179 
L 235.029072 27.507644 
L 237.366638 27.408109 
L 237.366638 27.358341 
L 237.967726 27.258806 
L 237.967726 27.209038 
L 239.503841 27.109503 
L 239.503841 27.059736 
L 240.10493 26.960201 
L 240.10493 26.860666 
L 240.706018 26.761131 
L 240.706018 26.711363 
L 242.108558 26.611828 
L 242.108558 26.56206 
L 243.377522 26.462525 
L 243.377522 26.412758 
L 244.980425 26.36299 
L 244.980425 26.263455 
L 246.917265 26.16392 
L 246.917265 26.114153 
L 247.251203 26.014618 
L 247.251203 25.96485 
L 248.319805 25.865315 
L 248.319805 25.815547 
L 249.188044 25.716012 
L 249.254831 25.616477 
L 250.390221 25.516942 
L 250.457008 25.36764 
L 251.124884 25.268105 
L 251.124884 25.218337 
L 252.92815 25.118802 
L 252.92815 25.069034 
L 254.130326 24.969499 
L 254.130326 24.919732 
L 255.866804 24.869964 
L 255.866804 24.770429 
L 258.004008 24.670894 
L 258.004008 24.621127 
L 259.206184 24.521591 
L 259.272972 24.372289 
L 263.547379 24.272754 
L 263.547379 24.222986 
L 264.148467 24.173219 
L 264.148467 24.073684 
L 264.282042 24.073684 
L 264.282042 23.924381 
L 268.022148 23.824846 
L 268.022148 23.725311 
L 268.356086 23.625776 
L 268.356086 23.576008 
L 268.756812 23.476473 
L 268.756812 23.426706 
L 270.292927 23.327171 
L 270.292927 23.277403 
L 271.361528 23.177868 
L 271.361528 23.1281 
L 276.437386 23.028565 
L 276.437386 22.978798 
L 277.4392 22.92903 
L 277.4392 22.829495 
L 278.507802 22.72996 
L 278.507802 22.680193 
L 280.978943 22.580657 
L 280.978943 22.53089 
L 281.446457 22.431355 
L 281.446457 22.381587 
L 281.980758 22.282052 
L 281.980758 22.182517 
L 284.385111 22.082982 
L 284.385111 22.033215 
L 287.123403 21.933679 
L 287.123403 21.883912 
L 292.533199 21.784377 
L 292.533199 21.734609 
L 295.805792 21.635074 
L 295.805792 21.585307 
L 299.612685 21.535539 
L 299.612685 21.436004 
L 300.614499 21.336469 
L 300.614499 21.286702 
L 301.616313 21.187166 
L 301.616313 21.137399 
L 305.489994 21.037864 
L 305.489994 20.988096 
L 306.358233 20.938329 
L 306.425021 20.739259 
L 308.495437 20.639724 
L 308.562224 20.540188 
L 314.439533 20.440653 
L 314.439533 20.390886 
L 323.055134 20.291351 
L 323.055134 20.241583 
L 326.060576 20.142048 
L 326.060576 20.092281 
L 330.802496 19.992746 
L 330.802496 19.942978 
L 336.946956 19.843443 
L 336.946956 19.793675 
L 338.483071 19.69414 
L 338.483071 19.644373 
L 350.77199 19.544838 
L 350.77199 19.49507 
L 361.057281 19.395535 
L 361.057281 19.345768 
L 387.57196 19.296 
L 387.57196 19.296 
" clip-path="url(#p82d8736979)" style="fill: none; stroke: #1f77b4; stroke-width: 1.5; stroke-linecap: square"/>
   </g>
   <g id="line2d_14">
    <path d="M 62.917415 261.216 
L 62.984202 245.688528 
L 63.117778 245.638761 
L 63.184565 242.403871 
L 63.251353 242.403871 
L 63.31814 233.495482 
L 63.384928 233.495482 
L 63.451716 231.90292 
L 63.518503 231.90292 
L 63.585291 231.654083 
L 63.652078 231.654083 
L 63.718866 230.857802 
L 63.785654 230.857802 
L 63.852441 229.912219 
L 63.919229 229.912219 
L 63.986016 227.622912 
L 64.052804 227.622912 
L 64.119592 226.478259 
L 64.186379 226.478259 
L 64.186379 224.885698 
L 64.386742 224.83593 
L 64.45353 222.148483 
L 64.520317 222.148483 
L 64.587105 221.501505 
L 64.653892 221.501505 
L 64.72068 219.958711 
L 64.854255 219.908944 
L 64.921043 218.863826 
L 65.054618 218.76429 
L 65.054618 218.614988 
L 65.188193 218.614988 
L 65.254981 216.922892 
L 65.388556 216.823357 
L 65.455344 216.425216 
L 65.588919 216.375449 
L 65.655707 215.678703 
L 65.789282 215.628936 
L 65.856069 214.285212 
L 65.989645 214.285212 
L 66.056432 213.837304 
L 66.190007 213.787537 
L 66.256795 212.792186 
L 66.457158 212.792186 
L 66.457158 212.543348 
L 66.791096 212.543348 
L 66.857883 210.204274 
L 66.924671 210.204274 
L 66.991459 209.855901 
L 67.125034 209.855901 
L 67.191821 209.607064 
L 67.325397 209.507528 
L 67.392184 209.457761 
L 67.458972 208.66148 
L 67.592547 208.66148 
L 67.659335 208.362875 
L 67.726122 208.362875 
L 67.726122 208.114037 
L 67.859698 208.114037 
L 67.859698 207.566595 
L 67.993273 207.566595 
L 68.06006 206.919617 
L 68.193636 206.869849 
L 68.260423 206.123336 
L 68.327211 206.123336 
L 68.393998 205.575893 
L 68.594361 205.526125 
L 68.661149 204.481007 
L 68.727936 204.481007 
L 68.794724 203.734494 
L 68.995087 203.684727 
L 69.061874 202.987981 
L 69.262237 202.888446 
L 69.329025 202.540073 
L 69.4626 202.540073 
L 69.529388 202.141933 
L 69.662963 202.141933 
L 69.72975 201.295885 
L 69.796538 201.295885 
L 69.863326 200.99728 
L 70.063688 200.947512 
L 70.130476 200.798209 
L 70.264051 200.748442 
L 70.264051 200.549372 
L 70.397626 200.549372 
L 70.464414 199.802859 
L 70.664777 199.753091 
L 70.664777 199.653556 
L 70.798352 199.653556 
L 70.86514 199.056346 
L 71.065503 199.006578 
L 71.13229 198.807508 
L 71.199078 198.807508 
L 71.265865 198.409368 
L 71.399441 198.3596 
L 71.466228 198.060995 
L 71.599803 197.96146 
L 71.666591 197.214947 
L 71.800166 197.115412 
L 71.866954 196.567969 
L 72.000529 196.567969 
L 72.067317 195.672153 
L 72.267679 195.672153 
L 72.267679 195.52285 
L 72.468042 195.473083 
L 72.468042 195.32378 
L 72.735193 195.224245 
L 72.80198 195.12471 
L 72.868768 195.12471 
L 72.935555 194.776337 
L 73.202706 194.676802 
L 73.202706 194.378197 
L 73.336281 194.378197 
L 73.403069 193.631684 
L 73.469856 193.631684 
L 73.536644 193.183776 
L 73.603431 193.183776 
L 73.603431 193.034474 
L 73.737007 193.034474 
L 73.803794 192.735868 
L 73.870582 192.735868 
L 73.870582 192.437263 
L 74.137732 192.387496 
L 74.20452 191.939588 
L 74.271308 191.939588 
L 74.271308 191.342377 
L 74.538458 191.342377 
L 74.605246 191.09354 
L 74.672033 191.09354 
L 74.738821 190.396794 
L 74.805608 190.396794 
L 74.805608 190.347027 
L 74.872396 189.749816 
L 74.939184 189.749816 
L 75.005971 189.202373 
L 75.139546 189.102838 
L 75.206334 188.306557 
L 75.273122 188.306557 
L 75.339909 187.908417 
L 75.60706 187.808882 
L 75.60706 187.609812 
L 75.740635 187.609812 
L 75.740635 187.460509 
L 76.14136 187.360974 
L 76.208148 187.112137 
L 76.341723 187.062369 
L 76.408511 186.863299 
L 76.475298 186.863299 
L 76.475298 186.713996 
L 76.675661 186.664229 
L 76.742449 185.61911 
L 76.809237 185.61911 
L 76.876024 185.320505 
L 77.009599 185.22097 
L 77.076387 184.723295 
L 77.209962 184.673527 
L 77.27675 184.325154 
L 77.343537 184.325154 
L 77.343537 183.827479 
L 77.477113 183.827479 
L 77.5439 183.528874 
L 77.610688 183.528874 
L 77.677475 183.329804 
L 77.744263 183.329804 
L 77.744263 182.881896 
L 77.877838 182.881896 
L 77.944626 182.433988 
L 78.011413 182.433988 
L 78.078201 182.135383 
L 78.345351 182.085615 
L 78.345351 181.836778 
L 78.545714 181.78701 
L 78.545714 181.438637 
L 78.746077 181.438637 
L 78.746077 181.090265 
L 78.94644 180.990729 
L 79.013227 180.592589 
L 79.146803 180.542822 
L 79.146803 180.443287 
L 79.280378 180.443287 
L 79.280378 180.244216 
L 79.413953 180.244216 
L 79.480741 179.696774 
L 79.547528 179.696774 
L 79.547528 179.348401 
L 79.814679 179.248866 
L 79.881466 178.601888 
L 80.015042 178.55212 
L 80.015042 178.452585 
L 80.282192 178.452585 
L 80.34898 177.905142 
L 80.482555 177.855375 
L 80.482555 177.75584 
L 80.749705 177.656304 
L 80.816493 177.108862 
L 80.950068 177.009326 
L 81.016856 176.660954 
L 81.350794 176.561419 
L 81.350794 176.312581 
L 81.551156 176.262813 
L 81.551156 175.914441 
L 81.885094 175.914441 
L 81.951882 175.5163 
L 82.01867 175.5163 
L 82.085457 175.167928 
L 82.219032 175.11816 
L 82.28582 174.72002 
L 82.486183 174.670252 
L 82.55297 174.172577 
L 82.686546 174.073042 
L 82.686546 174.023274 
L 82.953696 173.923739 
L 82.953696 173.873972 
L 83.154059 173.824204 
L 83.154059 173.724669 
L 83.487997 173.625134 
L 83.487997 173.525599 
L 83.68836 173.525599 
L 83.68836 173.226994 
L 84.155873 173.177226 
L 84.155873 172.779086 
L 84.489811 172.679551 
L 84.556599 172.430713 
L 84.690174 172.430713 
L 84.756961 172.231643 
L 84.890537 172.231643 
L 84.957324 172.032573 
L 85.024112 172.032573 
L 85.090899 171.733967 
L 85.224475 171.6842 
L 85.224475 171.584665 
L 85.424837 171.48513 
L 85.424837 171.335827 
L 85.691988 171.236292 
L 85.758776 171.037222 
L 85.959138 170.987454 
L 85.959138 170.887919 
L 86.359864 170.788384 
L 86.426652 170.539547 
L 86.560227 170.440012 
L 86.627014 170.191174 
L 86.827377 170.091639 
L 86.894165 169.743266 
L 87.02774 169.693498 
L 87.02774 169.593963 
L 87.228103 169.494428 
L 87.29489 169.096288 
L 87.628828 168.996753 
L 87.628828 168.84745 
L 87.962766 168.747915 
L 88.029554 168.44931 
L 88.229917 168.349775 
L 88.296704 167.951635 
L 88.43028 167.951635 
L 88.497067 167.503727 
L 88.831005 167.404192 
L 88.897793 166.856749 
L 89.031368 166.856749 
L 89.031368 166.607911 
L 89.231731 166.558144 
L 89.298519 166.259538 
L 89.432094 166.259538 
L 89.498881 166.010701 
L 89.632457 165.960933 
L 89.699244 165.662328 
L 89.899607 165.562793 
L 89.899607 165.41349 
L 90.166757 165.313955 
L 90.166757 165.114885 
L 90.300333 165.114885 
L 90.300333 164.61721 
L 90.433908 164.61721 
L 90.500695 164.318604 
L 90.634271 164.219069 
L 90.701058 164.019999 
L 90.834633 163.920464 
L 90.901421 163.621859 
L 90.968209 163.621859 
L 91.034996 163.323254 
L 91.302147 163.273486 
L 91.302147 163.173951 
L 91.636085 163.124184 
L 91.702872 162.875346 
L 91.76966 162.875346 
L 91.836448 162.526973 
L 92.170386 162.427438 
L 92.237173 162.128833 
L 92.571111 162.029298 
L 92.637899 161.680925 
L 92.838262 161.58139 
L 92.905049 161.282785 
L 92.971837 161.282785 
L 92.971837 161.133482 
L 93.1722 161.033947 
L 93.1722 160.984179 
L 93.639713 160.884644 
L 93.639713 160.635807 
L 93.840076 160.635807 
L 93.906863 160.386969 
L 94.174014 160.287434 
L 94.240801 160.088364 
L 94.507952 160.088364 
L 94.507952 159.939061 
L 94.908677 159.839526 
L 94.908677 159.690223 
L 95.376191 159.590688 
L 95.376191 159.242316 
L 95.509766 159.242316 
L 95.509766 159.043245 
L 95.710129 158.993478 
L 95.710129 158.844175 
L 95.910491 158.844175 
L 95.977279 158.595338 
L 96.177642 158.495803 
L 96.244429 158.396267 
L 96.51158 158.3465 
L 96.51158 158.197197 
L 96.845518 158.14743 
L 96.912305 157.649754 
L 97.112668 157.550219 
L 97.179456 157.301382 
L 97.446606 157.301382 
L 97.513394 156.753939 
L 97.580182 156.753939 
L 97.646969 156.505101 
L 97.847332 156.455333 
L 97.91412 156.057193 
L 98.047695 156.057193 
L 98.047695 155.559518 
L 98.515208 155.559518 
L 98.581996 155.211145 
L 98.648783 155.211145 
L 98.715571 154.962307 
L 98.982721 154.862772 
L 98.982721 154.763237 
L 99.183084 154.71347 
L 99.249872 154.464632 
L 99.316659 154.464632 
L 99.383447 154.166027 
L 99.450234 154.166027 
L 99.517022 153.867422 
L 99.717385 153.767886 
L 99.784172 153.469281 
L 99.984535 153.369746 
L 99.984535 153.319979 
L 100.11811 153.319979 
L 100.11811 153.071141 
L 100.318473 153.071141 
L 100.318473 152.772536 
L 100.518836 152.772536 
L 100.585624 152.523698 
L 100.652411 152.523698 
L 100.719199 152.175325 
L 101.119925 152.07579 
L 101.186712 151.976255 
L 101.453863 151.87672 
L 101.52065 151.428812 
L 101.787801 151.329277 
L 101.787801 151.229742 
L 101.921376 151.229742 
L 101.988163 151.030672 
L 102.121739 150.931137 
L 102.188526 150.781834 
L 102.455677 150.781834 
L 102.455677 150.483229 
L 102.722827 150.433461 
L 102.789615 150.234391 
L 102.92319 150.234391 
L 102.989977 149.637181 
L 103.19034 149.637181 
L 103.257128 149.388343 
L 103.524278 149.288808 
L 103.591066 149.139505 
L 103.791429 149.089738 
L 103.791429 148.990203 
L 103.991792 148.890668 
L 104.058579 148.691598 
L 104.392517 148.592063 
L 104.392517 148.542295 
L 104.726455 148.44276 
L 104.726455 148.343225 
L 105.060393 148.24369 
L 105.060393 148.144155 
L 105.394331 148.04462 
L 105.394331 147.945085 
L 105.795057 147.845549 
L 105.795057 147.596712 
L 105.928632 147.596712 
L 105.928632 147.347874 
L 106.195782 147.298107 
L 106.26257 147.099036 
L 106.596508 146.999501 
L 106.596508 146.949734 
L 106.730083 146.949734 
L 106.796871 146.601361 
L 107.130809 146.501826 
L 107.197597 146.352523 
L 107.397959 146.252988 
L 107.397959 146.203221 
L 107.598322 146.103686 
L 107.598322 146.053918 
L 107.798685 146.004151 
L 107.865473 145.755313 
L 107.999048 145.755313 
L 108.065835 145.257638 
L 108.199411 145.20787 
L 108.199411 145.0088 
L 108.867287 144.909265 
L 108.934074 144.80973 
L 109.201225 144.80973 
L 109.268012 144.312054 
L 109.468375 144.212519 
L 109.535163 143.963682 
L 110.002676 143.864146 
L 110.002676 143.615309 
L 110.336614 143.515774 
L 110.336614 143.466006 
L 110.536977 143.466006 
L 110.536977 143.167401 
L 110.870915 143.117633 
L 110.937702 142.819028 
L 111.071278 142.719493 
L 111.138065 142.619958 
L 111.538791 142.520423 
L 111.538791 142.470655 
L 111.739154 142.37112 
L 111.805941 142.221818 
L 112.006304 142.221818 
L 112.006304 142.022748 
L 112.340242 141.923213 
L 112.340242 141.873445 
L 112.540605 141.873445 
L 112.540605 141.724142 
L 112.67418 141.724142 
L 112.67418 141.37577 
L 112.874543 141.276235 
L 112.941331 141.126932 
L 113.074906 141.027397 
L 113.074906 140.878094 
L 113.542419 140.778559 
L 113.542419 140.679024 
L 113.876357 140.629257 
L 113.876357 140.380419 
L 114.07672 140.380419 
L 114.143507 140.081814 
L 114.277083 140.032046 
L 114.34387 139.882743 
L 114.410658 139.882743 
L 114.477445 139.584138 
L 114.611021 139.584138 
L 114.677808 139.285533 
L 115.212109 139.185998 
L 115.278897 138.986928 
L 115.47926 138.887393 
L 115.546047 138.787858 
L 115.679622 138.688323 
L 115.74641 138.33995 
L 115.946773 138.290182 
L 116.01356 137.742739 
L 116.080348 137.742739 
L 116.147136 137.394367 
L 116.414286 137.344599 
L 116.414286 137.245064 
L 116.748224 137.245064 
L 116.815012 137.045994 
L 116.948587 136.946459 
L 116.948587 136.697621 
L 117.282525 136.598086 
L 117.282525 136.548318 
L 117.482888 136.448783 
L 117.549675 136.299481 
L 117.816826 136.249713 
L 117.816826 135.801805 
L 118.217551 135.70227 
L 118.217551 135.453433 
L 118.618277 135.353898 
L 118.685065 135.204595 
L 118.885427 135.154827 
L 118.952215 134.70692 
L 119.152578 134.607384 
L 119.152578 134.557617 
L 119.486516 134.458082 
L 119.553303 134.059942 
L 119.686879 134.059942 
L 119.753666 133.462731 
L 119.887241 133.462731 
L 119.887241 133.263661 
L 120.087604 133.164126 
L 120.087604 133.114358 
L 120.621905 133.014823 
L 120.688693 132.815753 
L 120.889055 132.716218 
L 120.889055 132.566915 
L 121.089418 132.566915 
L 121.156206 132.218543 
L 121.490144 132.168775 
L 121.556932 132.019473 
L 122.024445 131.919937 
L 122.024445 131.820402 
L 122.224808 131.770635 
L 122.291595 131.173424 
L 122.358383 131.173424 
L 122.358383 130.924587 
L 122.692321 130.825052 
L 122.759108 130.576214 
L 122.959471 130.476679 
L 123.026259 130.227841 
L 123.360197 130.128306 
L 123.426984 129.929236 
L 123.760922 129.879468 
L 123.82771 129.730166 
L 123.894498 129.730166 
L 123.894498 129.381793 
L 124.161648 129.282258 
L 124.161648 129.23249 
L 124.362011 129.182723 
L 124.362011 129.03342 
L 124.695949 128.933885 
L 124.695949 128.884118 
L 124.963099 128.784583 
L 125.029887 128.535745 
L 125.297037 128.43621 
L 125.297037 128.386442 
L 125.4974 128.386442 
L 125.4974 128.23714 
L 125.964913 128.187372 
L 125.964913 128.03807 
L 126.165276 127.938534 
L 126.232064 127.789232 
L 126.298851 127.789232 
L 126.365639 127.540394 
L 126.566002 127.440859 
L 126.632789 127.341324 
L 126.766365 127.341324 
L 126.766365 126.893416 
L 126.89994 126.893416 
L 126.966727 126.495276 
L 127.300666 126.395741 
L 127.300666 126.345973 
L 127.634604 126.345973 
L 127.634604 126.097136 
L 127.901754 126.097136 
L 127.968542 125.848298 
L 128.502842 125.748763 
L 128.502842 125.698995 
L 128.83678 125.59946 
L 128.83678 125.549693 
L 129.103931 125.499925 
L 129.170718 125.300855 
L 129.638232 125.20132 
L 129.638232 125.151552 
L 130.038957 125.052017 
L 130.038957 124.952482 
L 130.172533 124.952482 
L 130.172533 124.554342 
L 130.506471 124.504574 
L 130.506471 124.156202 
L 130.640046 124.156202 
L 130.640046 123.907364 
L 130.973984 123.807829 
L 131.040771 123.608759 
L 131.174347 123.509224 
L 131.174347 123.459456 
L 131.374709 123.409689 
L 131.441497 123.160851 
L 131.775435 123.111083 
L 131.842223 122.961781 
L 132.042585 122.961781 
L 132.042585 122.712943 
L 132.376523 122.613408 
L 132.443311 122.36457 
L 132.643674 122.314803 
L 132.643674 121.916662 
L 133.244762 121.817127 
L 133.31155 121.717592 
L 133.445125 121.667825 
L 133.445125 121.56829 
L 133.912638 121.518522 
L 133.912638 121.319452 
L 134.113001 121.219917 
L 134.179789 121.070614 
L 134.446939 120.971079 
L 134.446939 120.871544 
L 134.647302 120.821777 
L 134.71409 120.572939 
L 134.780877 120.572939 
L 134.780877 120.373869 
L 135.24839 120.274334 
L 135.24839 120.224566 
L 135.448753 120.224566 
L 135.515541 119.925961 
L 135.582328 119.925961 
L 135.649116 119.627356 
L 136.584143 119.527821 
L 136.584143 119.478053 
L 136.784505 119.378518 
L 136.784505 119.32875 
L 137.252019 119.229215 
L 137.252019 119.12968 
L 137.652744 119.030145 
L 137.719532 118.93061 
L 137.853107 118.93061 
L 137.919895 118.582237 
L 138.187045 118.53247 
L 138.253833 118.383167 
L 138.520983 118.283632 
L 138.587771 118.034794 
L 138.988496 117.935259 
L 139.055284 117.686422 
L 139.122072 117.686422 
L 139.122072 117.537119 
L 139.389222 117.437584 
L 139.389222 117.387816 
L 139.923523 117.288281 
L 139.99031 117.089211 
L 140.257461 117.089211 
L 140.257461 116.939909 
L 140.457824 116.890141 
L 140.457824 116.790606 
L 140.658186 116.691071 
L 140.658186 116.641303 
L 140.791762 116.641303 
L 140.858549 116.093861 
L 141.058912 115.994325 
L 141.1257 115.845023 
L 141.39285 115.845023 
L 141.39285 115.645953 
L 141.66 115.546418 
L 141.726788 115.347347 
L 141.927151 115.247812 
L 141.993938 115.09851 
L 142.862177 114.998975 
L 142.862177 114.89944 
L 143.129328 114.799905 
L 143.129328 114.750137 
L 143.463266 114.650602 
L 143.463266 114.600834 
L 143.797204 114.501299 
L 143.863991 114.302229 
L 144.064354 114.202694 
L 144.064354 114.152927 
L 144.598655 114.053391 
L 144.665443 113.655251 
L 145.667257 113.555716 
L 145.734044 113.406413 
L 146.001195 113.306878 
L 146.067982 113.008273 
L 146.268345 113.008273 
L 146.268345 112.858971 
L 146.535496 112.759436 
L 146.535496 112.709668 
L 146.869434 112.6599 
L 146.936221 112.46083 
L 147.203372 112.361295 
L 147.203372 112.211993 
L 147.470522 112.112458 
L 147.53731 111.963155 
L 148.338761 111.86362 
L 148.338761 111.614782 
L 148.739487 111.565015 
L 148.739487 111.316177 
L 148.939849 111.216642 
L 149.006637 111.067339 
L 149.407363 110.967804 
L 149.47415 110.818502 
L 149.874876 110.718966 
L 149.874876 110.669199 
L 150.208814 110.569664 
L 150.208814 110.370594 
L 150.409177 110.271059 
L 150.409177 110.221291 
L 150.743115 110.121756 
L 150.809902 109.972453 
L 151.010265 109.972453 
L 151.077053 109.723616 
L 151.477778 109.624081 
L 151.477778 109.524546 
L 151.744929 109.42501 
L 151.744929 109.375243 
L 151.945292 109.325475 
L 151.945292 109.22594 
L 152.212442 109.126405 
L 152.212442 109.076638 
L 152.746743 108.977103 
L 152.746743 108.927335 
L 152.947106 108.8278 
L 152.947106 108.728265 
L 153.414619 108.62873 
L 153.481406 108.529195 
L 153.748557 108.42966 
L 153.815344 108.330125 
L 154.349645 108.23059 
L 154.349645 108.180822 
L 154.950734 108.131055 
L 154.950734 107.981752 
L 155.551822 107.882217 
L 155.551822 107.732914 
L 156.019335 107.633379 
L 156.086123 107.484077 
L 156.486849 107.384541 
L 156.486849 107.334774 
L 157.154725 107.235239 
L 157.154725 107.135704 
L 157.822601 107.036169 
L 157.822601 106.986401 
L 158.156539 106.936634 
L 158.223326 106.488726 
L 158.757627 106.488726 
L 158.757627 106.339423 
L 159.158353 106.239888 
L 159.158353 106.090585 
L 159.358716 105.99105 
L 159.425503 105.841748 
L 159.559078 105.79198 
L 159.559078 105.59291 
L 159.893017 105.493375 
L 159.959804 105.344072 
L 160.093379 105.294305 
L 160.093379 105.19477 
L 161.161981 105.095235 
L 161.161981 104.9957 
L 161.429131 104.945932 
L 161.429131 104.79663 
L 161.963432 104.79663 
L 161.963432 104.647327 
L 162.163795 104.547792 
L 162.163795 104.099884 
L 162.698096 104.000349 
L 162.764883 103.851046 
L 162.965246 103.751511 
L 162.965246 103.701744 
L 163.232397 103.651976 
L 163.232397 103.552441 
L 163.633122 103.502674 
L 163.69991 103.204068 
L 164.033848 103.104533 
L 164.033848 103.004998 
L 164.434574 102.905463 
L 164.434574 102.855696 
L 164.701724 102.75616 
L 164.768512 102.656625 
L 165.503175 102.55709 
L 165.503175 102.35802 
L 166.037476 102.308253 
L 166.104264 102.109182 
L 166.237839 102.109182 
L 166.237839 101.95988 
L 166.571777 101.860345 
L 166.638565 101.661275 
L 166.972503 101.56174 
L 167.03929 101.412437 
L 167.172865 101.312902 
L 167.172865 101.263134 
L 167.907529 101.213367 
L 167.907529 101.014297 
L 168.174679 100.964529 
L 168.174679 100.715691 
L 168.976131 100.665924 
L 168.976131 100.566389 
L 169.176494 100.466854 
L 169.243281 100.367319 
L 169.644007 100.267784 
L 169.644007 100.218016 
L 169.977945 100.118481 
L 169.977945 100.068713 
L 170.245095 100.018946 
L 170.245095 99.919411 
L 171.113334 99.869643 
L 171.113334 99.770108 
L 171.447272 99.670573 
L 171.51406 99.521271 
L 171.914785 99.421735 
L 171.914785 99.272433 
L 172.048361 99.272433 
L 172.115148 99.073363 
L 172.582661 98.973828 
L 172.649449 98.824525 
L 172.983387 98.824525 
L 172.983387 98.625455 
L 173.384113 98.625455 
L 173.4509 98.426385 
L 173.718051 98.32685 
L 173.784838 98.127779 
L 174.252351 98.028244 
L 174.252351 97.978477 
L 174.653077 97.878942 
L 174.719865 97.729639 
L 175.187378 97.630104 
L 175.187378 97.580337 
L 175.454528 97.480801 
L 175.454528 97.381266 
L 175.721679 97.381266 
L 175.721679 97.231964 
L 175.922042 97.132429 
L 175.922042 97.082661 
L 176.656705 96.983126 
L 176.656705 96.933359 
L 177.257794 96.833823 
L 177.257794 96.734288 
L 177.658519 96.634753 
L 177.658519 96.584986 
L 177.92567 96.535218 
L 177.992457 96.286381 
L 178.259608 96.186846 
L 178.259608 96.137078 
L 178.793909 96.08731 
L 178.793909 95.987775 
L 179.394997 95.88824 
L 179.461785 95.788705 
L 179.728935 95.68917 
L 179.795723 95.589635 
L 179.86251 95.589635 
L 179.86251 95.440332 
L 180.396811 95.340797 
L 180.463599 95.141727 
L 180.530386 95.141727 
L 180.597174 94.89289 
L 181.131475 94.793354 
L 181.131475 94.544517 
L 181.398625 94.494749 
L 181.465413 94.196144 
L 181.799351 94.096609 
L 181.866138 93.997074 
L 182.066501 93.947306 
L 182.066501 93.847771 
L 182.534014 93.748236 
L 182.534014 93.698469 
L 182.66759 93.698469 
L 182.66759 93.499398 
L 183.068315 93.399863 
L 183.135103 93.300328 
L 183.669404 93.200793 
L 183.669404 93.151026 
L 184.203705 93.101258 
L 184.270492 92.85242 
L 184.537643 92.85242 
L 184.60443 92.603583 
L 185.272306 92.504048 
L 185.272306 92.25521 
L 185.673032 92.155675 
L 185.739819 91.458929 
L 186.073757 91.409162 
L 186.073757 91.259859 
L 186.407695 91.160324 
L 186.474483 90.961254 
L 186.741634 90.911487 
L 186.808421 90.662649 
L 187.075572 90.563114 
L 187.142359 90.364044 
L 187.543085 90.314276 
L 187.543085 90.214741 
L 188.411324 90.115206 
L 188.411324 90.015671 
L 188.812049 89.916136 
L 188.878837 89.717066 
L 189.145987 89.667298 
L 189.212775 89.517995 
L 189.34635 89.41846 
L 189.413138 89.070088 
L 190.081014 88.970553 
L 190.147801 88.871017 
L 190.548527 88.771482 
L 190.615315 88.671947 
L 191.283191 88.572412 
L 191.349978 88.42311 
L 191.750704 88.323575 
L 191.817491 88.224039 
L 192.218217 88.124504 
L 192.285005 87.875667 
L 192.351792 87.875667 
L 192.351792 87.726364 
L 192.886093 87.626829 
L 192.952881 87.377991 
L 193.553969 87.278456 
L 193.553969 87.228689 
L 193.82112 87.228689 
L 193.82112 87.029619 
L 194.35542 86.930084 
L 194.422208 86.581711 
L 194.622571 86.482176 
L 194.622571 86.382641 
L 194.889721 86.283106 
L 194.956509 86.18357 
L 195.290447 86.133803 
L 195.357234 85.934733 
L 195.49081 85.934733 
L 195.49081 85.735663 
L 196.091898 85.636128 
L 196.158686 85.437057 
L 196.626199 85.337522 
L 196.626199 85.088685 
L 196.893349 84.98915 
L 196.893349 84.839847 
L 197.294075 84.740312 
L 197.294075 84.690544 
L 197.895163 84.591009 
L 197.895163 84.441707 
L 198.162314 84.342172 
L 198.162314 84.292404 
L 198.56304 84.192869 
L 198.56304 84.093334 
L 198.963765 84.043566 
L 199.030553 83.894264 
L 199.364491 83.794729 
L 199.364491 83.695194 
L 199.631641 83.595659 
L 199.698429 83.446356 
L 199.965579 83.346821 
L 199.965579 83.147751 
L 200.566668 83.048216 
L 200.566668 82.998448 
L 200.900606 82.998448 
L 200.900606 82.799378 
L 201.301331 82.699843 
L 201.301331 82.650075 
L 201.635269 82.600308 
L 201.635269 82.451005 
L 202.303145 82.35147 
L 202.303145 82.202167 
L 202.570296 82.102632 
L 202.637083 81.95333 
L 203.171384 81.853795 
L 203.238172 81.555189 
L 203.505322 81.455654 
L 203.505322 81.256584 
L 203.906048 81.157049 
L 203.972835 80.957979 
L 204.573924 80.858444 
L 204.573924 80.808676 
L 204.907862 80.758909 
L 204.907862 80.659374 
L 205.375375 80.609606 
L 205.442163 80.460304 
L 206.176826 80.360769 
L 206.176826 80.261233 
L 206.510764 80.211466 
L 206.510764 80.111931 
L 206.844702 80.012396 
L 206.91149 79.912861 
L 207.17864 79.813326 
L 207.245428 79.664023 
L 207.512579 79.564488 
L 207.579366 79.31565 
L 207.913304 79.216115 
L 207.980092 79.017045 
L 208.31403 78.91751 
L 208.380817 78.817975 
L 209.115481 78.71844 
L 209.115481 78.668672 
L 209.249056 78.668672 
L 209.249056 78.51937 
L 209.516207 78.419835 
L 209.582994 78.220764 
L 209.916932 78.170997 
L 209.916932 78.071462 
L 210.718384 78.071462 
L 210.718384 77.872392 
L 211.252684 77.772857 
L 211.319472 77.623554 
L 211.65341 77.524019 
L 211.65341 77.424484 
L 211.853773 77.374716 
L 211.853773 77.225414 
L 212.187711 77.125879 
L 212.254498 76.827273 
L 212.388074 76.777506 
L 212.454861 76.578436 
L 213.122737 76.478901 
L 213.189525 76.27983 
L 213.256312 76.27983 
L 213.256312 76.130528 
L 213.723826 76.030993 
L 213.723826 75.88169 
L 214.191339 75.782155 
L 214.191339 75.732388 
L 214.458489 75.68262 
L 214.458489 75.583085 
L 214.99279 75.48355 
L 214.99279 75.433782 
L 215.126365 75.433782 
L 215.126365 75.234712 
L 215.393516 75.135177 
L 215.460303 74.985875 
L 215.794241 74.886339 
L 215.794241 74.786804 
L 216.862843 74.687269 
L 216.862843 74.587734 
L 217.063206 74.537967 
L 217.063206 74.438432 
L 217.330356 74.438432 
L 217.330356 74.239361 
L 217.864657 74.139826 
L 217.864657 74.090059 
L 218.131808 73.990524 
L 218.131808 73.890989 
L 218.799684 73.841221 
L 218.866471 73.691919 
L 219.601135 73.642151 
L 219.601135 73.492848 
L 219.935073 73.393313 
L 220.001861 73.144476 
L 220.202223 73.094708 
L 220.202223 72.945405 
L 220.736524 72.84587 
L 220.736524 72.746335 
L 221.738338 72.6468 
L 221.738338 72.597033 
L 222.139064 72.497498 
L 222.139064 72.348195 
L 222.473002 72.298427 
L 222.473002 72.149125 
L 223.140878 72.04959 
L 223.207666 71.900287 
L 223.474816 71.800752 
L 223.541604 71.651449 
L 224.20948 71.551914 
L 224.20948 71.502147 
L 224.810568 71.452379 
L 224.877356 71.203542 
L 225.344869 71.104007 
L 225.411657 71.004472 
L 226.079533 70.904936 
L 226.079533 70.805401 
L 226.547046 70.705866 
L 226.613833 70.606331 
L 226.814196 70.556564 
L 226.880984 70.357494 
L 227.214922 70.257958 
L 227.281709 70.108656 
L 227.415285 70.009121 
L 227.415285 69.909586 
L 227.54886 69.909586 
L 227.615647 69.710516 
L 228.016373 69.61098 
L 228.016373 69.561213 
L 228.417099 69.461678 
L 228.483886 69.312375 
L 228.884612 69.312375 
L 228.884612 69.113305 
L 229.619276 69.01377 
L 229.686063 68.914235 
L 230.554302 68.8147 
L 230.554302 68.61563 
L 231.021815 68.516095 
L 231.088603 68.41656 
L 231.288966 68.366792 
L 231.288966 68.267257 
L 232.090417 68.167722 
L 232.090417 68.117954 
L 232.825081 68.068187 
L 232.825081 67.968652 
L 232.958656 67.968652 
L 233.025443 67.719814 
L 233.159019 67.670046 
L 233.159019 67.570511 
L 233.359381 67.470976 
L 233.359381 67.421209 
L 233.626532 67.321674 
L 233.626532 67.271906 
L 233.760107 67.271906 
L 233.760107 67.072836 
L 233.96047 67.023069 
L 233.96047 66.923533 
L 234.094045 66.923533 
L 234.094045 66.774231 
L 235.36301 66.674696 
L 235.36301 66.624928 
L 235.830523 66.525393 
L 235.830523 66.475626 
L 236.164461 66.376091 
L 236.164461 66.226788 
L 236.565186 66.127253 
L 236.631974 65.828648 
L 237.0327 65.729113 
L 237.0327 65.679345 
L 237.166275 65.679345 
L 237.166275 65.530042 
L 238.034514 65.430507 
L 238.101301 65.231437 
L 239.103115 65.131902 
L 239.103115 65.082135 
L 239.837779 64.982599 
L 239.837779 64.932832 
L 240.572443 64.833297 
L 240.572443 64.783529 
L 241.106744 64.683994 
L 241.173531 64.584459 
L 241.707832 64.484924 
L 241.707832 64.335621 
L 242.108558 64.236086 
L 242.108558 64.086784 
L 243.110372 63.987249 
L 243.177159 63.788179 
L 243.644673 63.688643 
L 243.71146 63.589108 
L 243.978611 63.489573 
L 243.978611 63.439806 
L 244.312549 63.340271 
L 244.312549 63.290503 
L 245.247575 63.190968 
L 245.247575 63.141201 
L 245.514725 63.041666 
L 245.581513 62.842595 
L 246.316177 62.74306 
L 246.316177 62.693293 
L 246.583327 62.593758 
L 246.650115 62.494223 
L 247.317991 62.394688 
L 247.317991 62.195617 
L 247.919079 62.195617 
L 247.919079 62.046315 
L 248.319805 61.996547 
L 248.319805 61.897012 
L 248.520168 61.847245 
L 248.520168 61.74771 
L 249.254831 61.648174 
L 249.254831 61.548639 
L 249.655557 61.498872 
L 249.655557 61.399337 
L 249.85592 61.399337 
L 249.922707 61.200267 
L 250.12307 61.150499 
L 250.12307 61.050964 
L 250.390221 61.001196 
L 250.390221 60.851894 
L 250.790946 60.802126 
L 250.790946 60.603056 
L 251.258459 60.503521 
L 251.325247 60.403986 
L 251.458822 60.304451 
L 251.52561 60.055613 
L 251.79276 59.956078 
L 251.79276 59.856543 
L 252.527424 59.757008 
L 252.527424 59.70724 
L 252.92815 59.657473 
L 252.92815 59.50817 
L 253.662813 59.408635 
L 253.729601 59.3091 
L 253.996751 59.209565 
L 253.996751 59.159798 
L 254.59784 59.11003 
L 254.664627 58.960727 
L 255.132141 58.861192 
L 255.132141 58.811425 
L 255.599654 58.71189 
L 255.599654 58.662122 
L 256.334317 58.562587 
L 256.334317 58.463052 
L 256.735043 58.413285 
L 256.735043 58.263982 
L 257.002193 58.164447 
L 257.002193 58.114679 
L 257.536494 58.015144 
L 257.603282 57.915609 
L 258.20437 57.816074 
L 258.20437 57.766307 
L 258.939034 57.716539 
L 258.939034 57.567236 
L 259.272972 57.567236 
L 259.33976 57.318399 
L 259.673698 57.268631 
L 259.740485 57.119329 
L 260.207998 57.019793 
L 260.207998 56.920258 
L 261.209813 56.820723 
L 261.209813 56.770956 
L 261.610538 56.671421 
L 261.610538 56.571886 
L 262.345202 56.472351 
L 262.345202 56.323048 
L 262.612352 56.223513 
L 262.612352 56.173745 
L 263.814529 56.123978 
L 263.881317 55.974675 
L 264.282042 55.974675 
L 264.282042 55.825373 
L 264.682768 55.725837 
L 264.682768 55.576535 
L 265.417432 55.477 
L 265.417432 55.377465 
L 265.684582 55.327697 
L 265.684582 55.078859 
L 266.01852 54.979324 
L 266.085308 54.830022 
L 266.619608 54.730487 
L 266.619608 54.581184 
L 267.087122 54.531417 
L 267.153909 54.382114 
L 267.354272 54.282579 
L 267.42106 54.133276 
L 267.554635 54.133276 
L 267.554635 53.983974 
L 267.68821 53.983974 
L 267.68821 53.834671 
L 267.955361 53.784904 
L 268.022148 53.536066 
L 268.289299 53.486298 
L 268.289299 53.386763 
L 268.957175 53.287228 
L 268.957175 53.237461 
L 269.3579 53.137926 
L 269.3579 53.088158 
L 269.491475 53.088158 
L 269.491475 52.938855 
L 270.159352 52.83932 
L 270.159352 52.789553 
L 270.560077 52.690018 
L 270.560077 52.64025 
L 270.827228 52.540715 
L 270.894015 52.341645 
L 271.294741 52.24211 
L 271.294741 52.192342 
L 271.695466 52.092807 
L 271.762254 51.893737 
L 272.229767 51.893737 
L 272.229767 51.744434 
L 272.69728 51.644899 
L 272.69728 51.595132 
L 272.964431 51.545364 
L 273.031219 51.346294 
L 273.164794 51.246759 
L 273.164794 51.196992 
L 273.298369 51.196992 
L 273.298369 51.047689 
L 273.899457 50.997921 
L 273.966245 50.848619 
L 274.300183 50.749084 
L 274.300183 50.649549 
L 274.634121 50.550014 
L 274.634121 50.500246 
L 275.50236 50.400711 
L 275.50236 50.350943 
L 276.771324 50.251408 
L 276.771324 50.201641 
L 277.17205 50.102106 
L 277.17205 50.002571 
L 277.505988 49.903036 
L 277.505988 49.853268 
L 277.706351 49.753733 
L 277.706351 49.703965 
L 277.906714 49.60443 
L 277.906714 49.504895 
L 278.975315 49.40536 
L 278.975315 49.355593 
L 279.843554 49.256058 
L 279.843554 49.106755 
L 279.977129 49.106755 
L 280.043917 48.907685 
L 280.51143 48.80815 
L 280.578218 48.509545 
L 280.912156 48.410009 
L 280.912156 48.360242 
L 281.580032 48.260707 
L 281.646819 48.161172 
L 282.047545 48.061637 
L 282.047545 48.011869 
L 282.448271 47.962102 
L 282.515058 47.713264 
L 283.249722 47.613729 
L 283.249722 47.563961 
L 283.450085 47.514194 
L 283.450085 47.414659 
L 284.051173 47.315124 
L 284.117961 47.215589 
L 284.652262 47.165821 
L 284.652262 47.066286 
L 285.052987 46.966751 
L 285.052987 46.916983 
L 286.054801 46.817448 
L 286.054801 46.717913 
L 286.65589 46.618378 
L 286.65589 46.568611 
L 286.989828 46.568611 
L 286.989828 46.419308 
L 288.125217 46.319773 
L 288.192005 46.17047 
L 288.59273 46.070935 
L 288.659518 45.9714 
L 288.859881 45.921633 
L 288.859881 45.77233 
L 289.260606 45.672795 
L 289.260606 45.623027 
L 289.594544 45.623027 
L 289.594544 45.423957 
L 289.99527 45.37419 
L 290.062058 45.17512 
L 290.529571 45.075584 
L 290.529571 45.025817 
L 290.729934 44.926282 
L 290.729934 44.826747 
L 291.731748 44.727212 
L 291.731748 44.627677 
L 292.399624 44.528142 
L 292.466411 44.378839 
L 292.933925 44.279304 
L 292.933925 44.179769 
L 293.201075 44.130001 
L 293.201075 44.030466 
L 293.802164 43.930931 
L 293.802164 43.881164 
L 294.403252 43.781628 
L 294.403252 43.731861 
L 294.73719 43.632326 
L 294.73719 43.532791 
L 295.471854 43.433256 
L 295.538641 43.333721 
L 296.13973 43.234186 
L 296.13973 43.184418 
L 296.540455 43.084883 
L 296.540455 42.985348 
L 298.811234 42.885813 
L 298.811234 42.836045 
L 299.679473 42.73651 
L 299.74626 42.587208 
L 299.813048 42.587208 
L 299.813048 42.437905 
L 300.614499 42.33837 
L 300.681287 42.238835 
L 300.748074 42.238835 
L 300.814862 41.989997 
L 301.215588 41.890462 
L 301.215588 41.840695 
L 302.083826 41.790927 
L 302.083826 41.691392 
L 302.417764 41.641624 
L 302.417764 41.542089 
L 302.751703 41.442554 
L 302.751703 41.343019 
L 303.018853 41.293252 
L 303.018853 41.143949 
L 303.219216 41.094181 
L 303.286003 40.944879 
L 303.352791 40.944879 
L 303.419579 40.596506 
L 303.953879 40.496971 
L 303.953879 40.297901 
L 304.287817 40.198366 
L 304.354605 39.999296 
L 304.755331 39.899761 
L 304.755331 39.849993 
L 305.022481 39.750458 
L 305.089269 39.601155 
L 305.156056 39.601155 
L 305.156056 39.451853 
L 305.89072 39.352318 
L 305.89072 39.30255 
L 306.358233 39.203015 
L 306.425021 39.10348 
L 307.426835 39.10348 
L 307.426835 38.954177 
L 308.161498 38.90441 
L 308.161498 38.804875 
L 308.762587 38.70534 
L 308.829375 38.605805 
L 309.096525 38.506269 
L 309.096525 38.456502 
L 309.363675 38.406734 
L 309.430463 38.207664 
L 309.897976 38.108129 
L 309.897976 37.958827 
L 310.165127 37.859292 
L 310.231914 37.759756 
L 310.63264 37.660221 
L 310.63264 37.610454 
L 311.233728 37.510919 
L 311.233728 37.461151 
L 311.500879 37.411384 
L 311.500879 37.212314 
L 312.168755 37.162546 
L 312.168755 37.013243 
L 312.56948 36.963476 
L 312.636268 36.814173 
L 313.237356 36.714638 
L 313.237356 36.664871 
L 313.838445 36.565336 
L 313.905232 36.366265 
L 314.105595 36.26673 
L 314.105595 36.167195 
L 314.439533 36.167195 
L 314.506321 35.968125 
L 315.37456 35.86859 
L 315.37456 35.818822 
L 315.842073 35.769055 
L 315.842073 35.66952 
L 317.177825 35.569985 
L 317.244613 35.47045 
L 317.979276 35.370915 
L 317.979276 35.321147 
L 318.98109 35.27138 
L 318.98109 35.122077 
L 319.448604 35.022542 
L 319.448604 34.923007 
L 319.982904 34.823472 
L 319.982904 34.773704 
L 320.583993 34.723937 
L 320.583993 34.624402 
L 321.652595 34.524866 
L 321.719382 34.375564 
L 322.587621 34.276029 
L 322.654409 34.176494 
L 323.188709 34.076959 
L 323.188709 34.027191 
L 323.45586 33.977424 
L 323.45586 33.877889 
L 323.789798 33.778353 
L 323.856586 33.678818 
L 323.923373 33.678818 
L 323.923373 33.529516 
L 324.658037 33.429981 
L 324.724824 33.330446 
L 325.3927 33.230911 
L 325.459488 33.03184 
L 325.993789 32.932305 
L 325.993789 32.882538 
L 327.262753 32.783003 
L 327.262753 32.733235 
L 327.863842 32.6337 
L 327.863842 32.583933 
L 328.398143 32.484397 
L 328.398143 32.43463 
L 328.665293 32.335095 
L 328.665293 32.23556 
L 329.333169 32.136025 
L 329.333169 32.086257 
L 330.201408 31.986722 
L 330.201408 31.936955 
L 330.602134 31.936955 
L 330.602134 31.688117 
L 331.002859 31.688117 
L 331.002859 31.538814 
L 331.336797 31.439279 
L 331.403585 31.339744 
L 331.871098 31.240209 
L 331.937886 31.090906 
L 333.340425 30.991371 
L 333.340425 30.891836 
L 333.741151 30.842069 
L 333.741151 30.692766 
L 334.275452 30.642999 
L 334.275452 30.543463 
L 335.210478 30.443928 
L 335.210478 30.394161 
L 336.145505 30.294626 
L 336.145505 30.244858 
L 336.345868 30.244858 
L 336.345868 30.095556 
L 336.679806 30.045788 
L 336.679806 29.946253 
L 337.481257 29.846718 
L 337.481257 29.59788 
L 338.616646 29.498345 
L 338.683434 29.249508 
L 339.418097 29.149972 
L 339.418097 29.100205 
L 339.885611 29.050437 
L 339.885611 28.950902 
L 340.687062 28.851367 
L 340.687062 28.702065 
L 341.755664 28.60253 
L 341.755664 28.552762 
L 342.289964 28.453227 
L 342.356752 28.254157 
L 343.091416 28.154622 
L 343.158203 28.005319 
L 343.492141 28.005319 
L 343.558929 27.806249 
L 344.026442 27.756481 
L 344.09323 27.607179 
L 344.493955 27.507644 
L 344.493955 27.457876 
L 345.228619 27.358341 
L 345.228619 27.258806 
L 345.76292 27.159271 
L 345.76292 27.109503 
L 346.03007 27.059736 
L 346.03007 26.960201 
L 346.230433 26.960201 
L 346.230433 26.761131 
L 347.16546 26.661596 
L 347.16546 26.56206 
L 347.766548 26.512293 
L 347.766548 26.412758 
L 349.035512 26.313223 
L 349.035512 26.263455 
L 349.970539 26.213688 
L 350.037327 26.064385 
L 351.907379 25.96485 
L 351.907379 25.915082 
L 352.241317 25.815547 
L 352.241317 25.76578 
L 353.243132 25.666245 
L 353.243132 25.56671 
L 354.311733 25.467175 
L 354.311733 25.417407 
L 354.512096 25.317872 
L 354.512096 25.118802 
L 355.647485 25.019267 
L 355.647485 24.969499 
L 356.448937 24.869964 
L 356.448937 24.770429 
L 356.649299 24.770429 
L 356.649299 24.621127 
L 356.91645 24.521591 
L 356.983237 24.422056 
L 357.717901 24.422056 
L 357.717901 24.272754 
L 358.118627 24.222986 
L 358.118627 24.123451 
L 358.920078 24.023916 
L 358.920078 23.974149 
L 359.654742 23.874613 
L 359.721529 23.725311 
L 360.189042 23.625776 
L 360.189042 23.576008 
L 360.589768 23.526241 
L 360.656556 23.277403 
L 361.124069 23.177868 
L 361.124069 23.1281 
L 361.725157 23.028565 
L 361.725157 22.978798 
L 362.860547 22.879263 
L 362.860547 22.829495 
L 364.396661 22.72996 
L 364.396661 22.481122 
L 365.131325 22.381587 
L 365.131325 22.282052 
L 365.932776 22.182517 
L 365.932776 22.13275 
L 366.93459 22.033215 
L 366.93459 21.983447 
L 367.468891 21.883912 
L 367.535679 21.784377 
L 368.136767 21.684842 
L 368.136767 21.585307 
L 368.604281 21.485772 
L 368.604281 21.436004 
L 369.672882 21.336469 
L 369.672882 21.286702 
L 370.741484 21.187166 
L 370.741484 21.137399 
L 371.876873 21.037864 
L 371.876873 20.888561 
L 372.611537 20.838794 
L 372.611537 20.739259 
L 373.947289 20.639724 
L 373.947289 20.589956 
L 374.615165 20.490421 
L 374.615165 20.341118 
L 375.817342 20.241583 
L 375.817342 20.142048 
L 376.485218 20.042513 
L 376.485218 19.942978 
L 378.154908 19.843443 
L 378.154908 19.793675 
L 380.091749 19.69414 
L 380.091749 19.644373 
L 381.026775 19.544838 
L 381.026775 19.49507 
L 382.228952 19.395535 
L 382.228952 19.345768 
L 387.57196 19.296 
L 387.57196 19.296 
" clip-path="url(#p82d8736979)" style="fill: none; stroke: #ff7f0e; stroke-width: 1.5; stroke-linecap: square"/>
   </g>
   <g id="patch_3">
    <path d="M 46.684688 273.312 
L 46.684688 7.2 
" style="fill: none; stroke: #000000; stroke-width: 0.8; stroke-linejoin: miter; stroke-linecap: square"/>
   </g>
   <g id="patch_4">
    <path d="M 403.804688 273.312 
L 403.804688 7.2 
" style="fill: none; stroke: #000000; stroke-width: 0.8; stroke-linejoin: miter; stroke-linecap: square"/>
   </g>
   <g id="patch_5">
    <path d="M 46.684688 273.312 
L 403.804688 273.312 
" style="fill: none; stroke: #000000; stroke-width: 0.8; stroke-linejoin: miter; stroke-linecap: square"/>
   </g>
   <g id="patch_6">
    <path d="M 46.684688 7.2 
L 403.804688 7.2 
" style="fill: none; stroke: #000000; stroke-width: 0.8; stroke-linejoin: miter; stroke-linecap: square"/>
   </g>
   <g id="legend_1">
    <g id="patch_7">
     <path d="M 198.676875 266.812 
L 394.704688 266.812 
Q 397.304688 266.812 397.304688 264.212 
L 397.304688 227.348875 
Q 397.304688 224.748875 394.704688 224.748875 
L 198.676875 224.748875 
Q 196.076875 224.748875 196.076875 227.348875 
L 196.076875 264.212 
Q 196.076875 266.812 198.676875 266.812 
z
" style="fill: #ffffff; opacity: 0.8; stroke: #cccccc; stroke-linejoin: miter"/>
    </g>
    <g id="line2d_15">
     <path d="M 201.276875 235.276844 
L 214.276875 235.276844 
L 227.276875 235.276844 
" style="fill: none; stroke: #1f77b4; stroke-width: 1.5; stroke-linecap: square"/>
    </g>
    <g id="text_15">
     <!-- RotInvVAE, AUC =0.880 -->
     <g transform="translate(237.676875 239.826844) scale(0.13 -0.13)">
      <defs>
       <path id="DejaVuSans-49" d="M 628 4666 
L 1259 4666 
L 1259 0 
L 628 0 
L 628 4666 
z
" transform="scale(0.015625)"/>
       <path id="DejaVuSans-6e" d="M 3513 2113 
L 3513 0 
L 2938 0 
L 2938 2094 
Q 2938 2591 2744 2837 
Q 2550 3084 2163 3084 
Q 1697 3084 1428 2787 
Q 1159 2491 1159 1978 
L 1159 0 
L 581 0 
L 581 3500 
L 1159 3500 
L 1159 2956 
Q 1366 3272 1645 3428 
Q 1925 3584 2291 3584 
Q 2894 3584 3203 3211 
Q 3513 2838 3513 2113 
z
" transform="scale(0.015625)"/>
       <path id="DejaVuSans-56" d="M 1831 0 
L 50 4666 
L 709 4666 
L 2188 738 
L 3669 4666 
L 4325 4666 
L 2547 0 
L 1831 0 
z
" transform="scale(0.015625)"/>
       <path id="DejaVuSans-41" d="M 2188 4044 
L 1331 1722 
L 3047 1722 
L 2188 4044 
z
M 1831 4666 
L 2547 4666 
L 4325 0 
L 3669 0 
L 3244 1197 
L 1141 1197 
L 716 0 
L 50 0 
L 1831 4666 
z
" transform="scale(0.015625)"/>
       <path id="DejaVuSans-45" d="M 628 4666 
L 3578 4666 
L 3578 4134 
L 1259 4134 
L 1259 2753 
L 3481 2753 
L 3481 2222 
L 1259 2222 
L 1259 531 
L 3634 531 
L 3634 0 
L 628 0 
L 628 4666 
z
" transform="scale(0.015625)"/>
       <path id="DejaVuSans-2c" d="M 750 794 
L 1409 794 
L 1409 256 
L 897 -744 
L 494 -744 
L 750 256 
L 750 794 
z
" transform="scale(0.015625)"/>
       <path id="DejaVuSans-55" d="M 556 4666 
L 1191 4666 
L 1191 1831 
Q 1191 1081 1462 751 
Q 1734 422 2344 422 
Q 2950 422 3222 751 
Q 3494 1081 3494 1831 
L 3494 4666 
L 4128 4666 
L 4128 1753 
Q 4128 841 3676 375 
Q 3225 -91 2344 -91 
Q 1459 -91 1007 375 
Q 556 841 556 1753 
L 556 4666 
z
" transform="scale(0.015625)"/>
       <path id="DejaVuSans-43" d="M 4122 4306 
L 4122 3641 
Q 3803 3938 3442 4084 
Q 3081 4231 2675 4231 
Q 1875 4231 1450 3742 
Q 1025 3253 1025 2328 
Q 1025 1406 1450 917 
Q 1875 428 2675 428 
Q 3081 428 3442 575 
Q 3803 722 4122 1019 
L 4122 359 
Q 3791 134 3420 21 
Q 3050 -91 2638 -91 
Q 1578 -91 968 557 
Q 359 1206 359 2328 
Q 359 3453 968 4101 
Q 1578 4750 2638 4750 
Q 3056 4750 3426 4639 
Q 3797 4528 4122 4306 
z
" transform="scale(0.015625)"/>
       <path id="DejaVuSans-3d" d="M 678 2906 
L 4684 2906 
L 4684 2381 
L 678 2381 
L 678 2906 
z
M 678 1631 
L 4684 1631 
L 4684 1100 
L 678 1100 
L 678 1631 
z
" transform="scale(0.015625)"/>
      </defs>
      <use xlink:href="#DejaVuSans-52"/>
      <use xlink:href="#DejaVuSans-6f" x="64.982422"/>
      <use xlink:href="#DejaVuSans-74" x="126.164062"/>
      <use xlink:href="#DejaVuSans-49" x="165.373047"/>
      <use xlink:href="#DejaVuSans-6e" x="194.865234"/>
      <use xlink:href="#DejaVuSans-76" x="258.244141"/>
      <use xlink:href="#DejaVuSans-56" x="317.423828"/>
      <use xlink:href="#DejaVuSans-41" x="379.457031"/>
      <use xlink:href="#DejaVuSans-45" x="447.865234"/>
      <use xlink:href="#DejaVuSans-2c" x="511.048828"/>
      <use xlink:href="#DejaVuSans-20" x="542.835938"/>
      <use xlink:href="#DejaVuSans-41" x="574.623047"/>
      <use xlink:href="#DejaVuSans-55" x="643.03125"/>
      <use xlink:href="#DejaVuSans-43" x="716.224609"/>
      <use xlink:href="#DejaVuSans-20" x="786.048828"/>
      <use xlink:href="#DejaVuSans-3d" x="817.835938"/>
      <use xlink:href="#DejaVuSans-30" x="901.625"/>
      <use xlink:href="#DejaVuSans-2e" x="965.248047"/>
      <use xlink:href="#DejaVuSans-38" x="997.035156"/>
      <use xlink:href="#DejaVuSans-38" x="1060.658203"/>
      <use xlink:href="#DejaVuSans-30" x="1124.28125"/>
     </g>
    </g>
    <g id="line2d_16">
     <path d="M 201.276875 254.358406 
L 214.276875 254.358406 
L 227.276875 254.358406 
" style="fill: none; stroke: #ff7f0e; stroke-width: 1.5; stroke-linecap: square"/>
    </g>
    <g id="text_16">
     <!-- VAE, AUC =0.739 -->
     <g transform="translate(237.676875 258.908406) scale(0.13 -0.13)">
      <defs>
       <path id="DejaVuSans-37" d="M 525 4666 
L 3525 4666 
L 3525 4397 
L 1831 0 
L 1172 0 
L 2766 4134 
L 525 4134 
L 525 4666 
z
" transform="scale(0.015625)"/>
       <path id="DejaVuSans-33" d="M 2597 2516 
Q 3050 2419 3304 2112 
Q 3559 1806 3559 1356 
Q 3559 666 3084 287 
Q 2609 -91 1734 -91 
Q 1441 -91 1130 -33 
Q 819 25 488 141 
L 488 750 
Q 750 597 1062 519 
Q 1375 441 1716 441 
Q 2309 441 2620 675 
Q 2931 909 2931 1356 
Q 2931 1769 2642 2001 
Q 2353 2234 1838 2234 
L 1294 2234 
L 1294 2753 
L 1863 2753 
Q 2328 2753 2575 2939 
Q 2822 3125 2822 3475 
Q 2822 3834 2567 4026 
Q 2313 4219 1838 4219 
Q 1578 4219 1281 4162 
Q 984 4106 628 3988 
L 628 4550 
Q 988 4650 1302 4700 
Q 1616 4750 1894 4750 
Q 2613 4750 3031 4423 
Q 3450 4097 3450 3541 
Q 3450 3153 3228 2886 
Q 3006 2619 2597 2516 
z
" transform="scale(0.015625)"/>
       <path id="DejaVuSans-39" d="M 703 97 
L 703 672 
Q 941 559 1184 500 
Q 1428 441 1663 441 
Q 2288 441 2617 861 
Q 2947 1281 2994 2138 
Q 2813 1869 2534 1725 
Q 2256 1581 1919 1581 
Q 1219 1581 811 2004 
Q 403 2428 403 3163 
Q 403 3881 828 4315 
Q 1253 4750 1959 4750 
Q 2769 4750 3195 4129 
Q 3622 3509 3622 2328 
Q 3622 1225 3098 567 
Q 2575 -91 1691 -91 
Q 1453 -91 1209 -44 
Q 966 3 703 97 
z
M 1959 2075 
Q 2384 2075 2632 2365 
Q 2881 2656 2881 3163 
Q 2881 3666 2632 3958 
Q 2384 4250 1959 4250 
Q 1534 4250 1286 3958 
Q 1038 3666 1038 3163 
Q 1038 2656 1286 2365 
Q 1534 2075 1959 2075 
z
" transform="scale(0.015625)"/>
      </defs>
      <use xlink:href="#DejaVuSans-56"/>
      <use xlink:href="#DejaVuSans-41" x="62.033203"/>
      <use xlink:href="#DejaVuSans-45" x="130.441406"/>
      <use xlink:href="#DejaVuSans-2c" x="193.625"/>
      <use xlink:href="#DejaVuSans-20" x="225.412109"/>
      <use xlink:href="#DejaVuSans-41" x="257.199219"/>
      <use xlink:href="#DejaVuSans-55" x="325.607422"/>
      <use xlink:href="#DejaVuSans-43" x="398.800781"/>
      <use xlink:href="#DejaVuSans-20" x="468.625"/>
      <use xlink:href="#DejaVuSans-3d" x="500.412109"/>
      <use xlink:href="#DejaVuSans-30" x="584.201172"/>
      <use xlink:href="#DejaVuSans-2e" x="647.824219"/>
      <use xlink:href="#DejaVuSans-37" x="679.611328"/>
      <use xlink:href="#DejaVuSans-33" x="743.234375"/>
      <use xlink:href="#DejaVuSans-39" x="806.857422"/>
     </g>
    </g>
   </g>
  </g>
 </g>
 <defs>
  <clipPath id="p82d8736979">
   <rect x="46.684688" y="7.2" width="357.12" height="266.112"/>
  </clipPath>
 </defs>
</svg>
