<?xml version="1.0" encoding="utf-8" standalone="no"?>
<!DOCTYPE svg PUBLIC "-//W3C//DTD SVG 1.1//EN"
  "http://www.w3.org/Graphics/SVG/1.1/DTD/svg11.dtd">
<svg xmlns:xlink="http://www.w3.org/1999/xlink" width="388.684687pt" height="265.099687pt" viewBox="0 0 388.684687 265.099687" xmlns="http://www.w3.org/2000/svg" version="1.1">
 <metadata>
  <rdf:RDF xmlns:dc="http://purl.org/dc/elements/1.1/" xmlns:cc="http://creativecommons.org/ns#" xmlns:rdf="http://www.w3.org/1999/02/22-rdf-syntax-ns#">
   <cc:Work>
    <dc:type rdf:resource="http://purl.org/dc/dcmitype/StillImage"/>
    <dc:date>2023-02-03T16:18:37.284283</dc:date>
    <dc:format>image/svg+xml</dc:format>
    <dc:creator>
     <cc:Agent>
      <dc:title>Matplotlib v3.6.3, https://matplotlib.org/</dc:title>
     </cc:Agent>
    </dc:creator>
   </cc:Work>
  </rdf:RDF>
 </metadata>
 <defs>
  <style type="text/css">*{stroke-linejoin: round; stroke-linecap: butt}</style>
 </defs>
 <g id="figure_1">
  <g id="patch_1">
   <path d="M 0 265.099687 
L 388.684687 265.099687 
L 388.684687 0 
L 0 0 
L 0 265.099687 
z
" style="fill: none"/>
  </g>
  <g id="axes_1">
   <g id="patch_2">
    <path d="M 46.684688 224.64 
L 381.484688 224.64 
L 381.484688 7.2 
L 46.684688 7.2 
z
" style="fill: #ffffff"/>
   </g>
   <g id="matplotlib.axis_1">
    <g id="xtick_1">
     <g id="line2d_1">
      <defs>
       <path id="m40ae23a034" d="M 0 0 
L 0 3.5 
" style="stroke: #000000; stroke-width: 0.8"/>
      </defs>
      <g>
       <use xlink:href="#m40ae23a034" x="61.902869" y="224.64" style="stroke: #000000; stroke-width: 0.8"/>
      </g>
     </g>
     <g id="text_1">
      <!-- 0.0 -->
      <g transform="translate(53.951307 239.238437) scale(0.1 -0.1)">
       <defs>
        <path id="DejaVuSans-30" d="M 2034 4250 
Q 1547 4250 1301 3770 
Q 1056 3291 1056 2328 
Q 1056 1369 1301 889 
Q 1547 409 2034 409 
Q 2525 409 2770 889 
Q 3016 1369 3016 2328 
Q 3016 3291 2770 3770 
Q 2525 4250 2034 4250 
z
M 2034 4750 
Q 2819 4750 3233 4129 
Q 3647 3509 3647 2328 
Q 3647 1150 3233 529 
Q 2819 -91 2034 -91 
Q 1250 -91 836 529 
Q 422 1150 422 2328 
Q 422 3509 836 4129 
Q 1250 4750 2034 4750 
z
" transform="scale(0.015625)"/>
        <path id="DejaVuSans-2e" d="M 684 794 
L 1344 794 
L 1344 0 
L 684 0 
L 684 794 
z
" transform="scale(0.015625)"/>
       </defs>
       <use xlink:href="#DejaVuSans-30"/>
       <use xlink:href="#DejaVuSans-2e" x="63.623047"/>
       <use xlink:href="#DejaVuSans-30" x="95.410156"/>
      </g>
     </g>
    </g>
    <g id="xtick_2">
     <g id="line2d_2">
      <g>
       <use xlink:href="#m40ae23a034" x="122.775597" y="224.64" style="stroke: #000000; stroke-width: 0.8"/>
      </g>
     </g>
     <g id="text_2">
      <!-- 0.2 -->
      <g transform="translate(114.824034 239.238437) scale(0.1 -0.1)">
       <defs>
        <path id="DejaVuSans-32" d="M 1228 531 
L 3431 531 
L 3431 0 
L 469 0 
L 469 531 
Q 828 903 1448 1529 
Q 2069 2156 2228 2338 
Q 2531 2678 2651 2914 
Q 2772 3150 2772 3378 
Q 2772 3750 2511 3984 
Q 2250 4219 1831 4219 
Q 1534 4219 1204 4116 
Q 875 4013 500 3803 
L 500 4441 
Q 881 4594 1212 4672 
Q 1544 4750 1819 4750 
Q 2544 4750 2975 4387 
Q 3406 4025 3406 3419 
Q 3406 3131 3298 2873 
Q 3191 2616 2906 2266 
Q 2828 2175 2409 1742 
Q 1991 1309 1228 531 
z
" transform="scale(0.015625)"/>
       </defs>
       <use xlink:href="#DejaVuSans-30"/>
       <use xlink:href="#DejaVuSans-2e" x="63.623047"/>
       <use xlink:href="#DejaVuSans-32" x="95.410156"/>
      </g>
     </g>
    </g>
    <g id="xtick_3">
     <g id="line2d_3">
      <g>
       <use xlink:href="#m40ae23a034" x="183.648324" y="224.64" style="stroke: #000000; stroke-width: 0.8"/>
      </g>
     </g>
     <g id="text_3">
      <!-- 0.4 -->
      <g transform="translate(175.696761 239.238437) scale(0.1 -0.1)">
       <defs>
        <path id="DejaVuSans-34" d="M 2419 4116 
L 825 1625 
L 2419 1625 
L 2419 4116 
z
M 2253 4666 
L 3047 4666 
L 3047 1625 
L 3713 1625 
L 3713 1100 
L 3047 1100 
L 3047 0 
L 2419 0 
L 2419 1100 
L 313 1100 
L 313 1709 
L 2253 4666 
z
" transform="scale(0.015625)"/>
       </defs>
       <use xlink:href="#DejaVuSans-30"/>
       <use xlink:href="#DejaVuSans-2e" x="63.623047"/>
       <use xlink:href="#DejaVuSans-34" x="95.410156"/>
      </g>
     </g>
    </g>
    <g id="xtick_4">
     <g id="line2d_4">
      <g>
       <use xlink:href="#m40ae23a034" x="244.521051" y="224.64" style="stroke: #000000; stroke-width: 0.8"/>
      </g>
     </g>
     <g id="text_4">
      <!-- 0.6 -->
      <g transform="translate(236.569489 239.238437) scale(0.1 -0.1)">
       <defs>
        <path id="DejaVuSans-36" d="M 2113 2584 
Q 1688 2584 1439 2293 
Q 1191 2003 1191 1497 
Q 1191 994 1439 701 
Q 1688 409 2113 409 
Q 2538 409 2786 701 
Q 3034 994 3034 1497 
Q 3034 2003 2786 2293 
Q 2538 2584 2113 2584 
z
M 3366 4563 
L 3366 3988 
Q 3128 4100 2886 4159 
Q 2644 4219 2406 4219 
Q 1781 4219 1451 3797 
Q 1122 3375 1075 2522 
Q 1259 2794 1537 2939 
Q 1816 3084 2150 3084 
Q 2853 3084 3261 2657 
Q 3669 2231 3669 1497 
Q 3669 778 3244 343 
Q 2819 -91 2113 -91 
Q 1303 -91 875 529 
Q 447 1150 447 2328 
Q 447 3434 972 4092 
Q 1497 4750 2381 4750 
Q 2619 4750 2861 4703 
Q 3103 4656 3366 4563 
z
" transform="scale(0.015625)"/>
       </defs>
       <use xlink:href="#DejaVuSans-30"/>
       <use xlink:href="#DejaVuSans-2e" x="63.623047"/>
       <use xlink:href="#DejaVuSans-36" x="95.410156"/>
      </g>
     </g>
    </g>
    <g id="xtick_5">
     <g id="line2d_5">
      <g>
       <use xlink:href="#m40ae23a034" x="305.393778" y="224.64" style="stroke: #000000; stroke-width: 0.8"/>
      </g>
     </g>
     <g id="text_5">
      <!-- 0.8 -->
      <g transform="translate(297.442216 239.238437) scale(0.1 -0.1)">
       <defs>
        <path id="DejaVuSans-38" d="M 2034 2216 
Q 1584 2216 1326 1975 
Q 1069 1734 1069 1313 
Q 1069 891 1326 650 
Q 1584 409 2034 409 
Q 2484 409 2743 651 
Q 3003 894 3003 1313 
Q 3003 1734 2745 1975 
Q 2488 2216 2034 2216 
z
M 1403 2484 
Q 997 2584 770 2862 
Q 544 3141 544 3541 
Q 544 4100 942 4425 
Q 1341 4750 2034 4750 
Q 2731 4750 3128 4425 
Q 3525 4100 3525 3541 
Q 3525 3141 3298 2862 
Q 3072 2584 2669 2484 
Q 3125 2378 3379 2068 
Q 3634 1759 3634 1313 
Q 3634 634 3220 271 
Q 2806 -91 2034 -91 
Q 1263 -91 848 271 
Q 434 634 434 1313 
Q 434 1759 690 2068 
Q 947 2378 1403 2484 
z
M 1172 3481 
Q 1172 3119 1398 2916 
Q 1625 2713 2034 2713 
Q 2441 2713 2670 2916 
Q 2900 3119 2900 3481 
Q 2900 3844 2670 4047 
Q 2441 4250 2034 4250 
Q 1625 4250 1398 4047 
Q 1172 3844 1172 3481 
z
" transform="scale(0.015625)"/>
       </defs>
       <use xlink:href="#DejaVuSans-30"/>
       <use xlink:href="#DejaVuSans-2e" x="63.623047"/>
       <use xlink:href="#DejaVuSans-38" x="95.410156"/>
      </g>
     </g>
    </g>
    <g id="xtick_6">
     <g id="line2d_6">
      <g>
       <use xlink:href="#m40ae23a034" x="366.266506" y="224.64" style="stroke: #000000; stroke-width: 0.8"/>
      </g>
     </g>
     <g id="text_6">
      <!-- 1.0 -->
      <g transform="translate(358.314943 239.238437) scale(0.1 -0.1)">
       <defs>
        <path id="DejaVuSans-31" d="M 794 531 
L 1825 531 
L 1825 4091 
L 703 3866 
L 703 4441 
L 1819 4666 
L 2450 4666 
L 2450 531 
L 3481 531 
L 3481 0 
L 794 0 
L 794 531 
z
" transform="scale(0.015625)"/>
       </defs>
       <use xlink:href="#DejaVuSans-31"/>
       <use xlink:href="#DejaVuSans-2e" x="63.623047"/>
       <use xlink:href="#DejaVuSans-30" x="95.410156"/>
      </g>
     </g>
    </g>
    <g id="text_7">
     <!-- False Positive Rate -->
     <g transform="translate(153.678359 255.196094) scale(0.13 -0.13)">
      <defs>
       <path id="DejaVuSans-46" d="M 628 4666 
L 3309 4666 
L 3309 4134 
L 1259 4134 
L 1259 2759 
L 3109 2759 
L 3109 2228 
L 1259 2228 
L 1259 0 
L 628 0 
L 628 4666 
z
" transform="scale(0.015625)"/>
       <path id="DejaVuSans-61" d="M 2194 1759 
Q 1497 1759 1228 1600 
Q 959 1441 959 1056 
Q 959 750 1161 570 
Q 1363 391 1709 391 
Q 2188 391 2477 730 
Q 2766 1069 2766 1631 
L 2766 1759 
L 2194 1759 
z
M 3341 1997 
L 3341 0 
L 2766 0 
L 2766 531 
Q 2569 213 2275 61 
Q 1981 -91 1556 -91 
Q 1019 -91 701 211 
Q 384 513 384 1019 
Q 384 1609 779 1909 
Q 1175 2209 1959 2209 
L 2766 2209 
L 2766 2266 
Q 2766 2663 2505 2880 
Q 2244 3097 1772 3097 
Q 1472 3097 1187 3025 
Q 903 2953 641 2809 
L 641 3341 
Q 956 3463 1253 3523 
Q 1550 3584 1831 3584 
Q 2591 3584 2966 3190 
Q 3341 2797 3341 1997 
z
" transform="scale(0.015625)"/>
       <path id="DejaVuSans-6c" d="M 603 4863 
L 1178 4863 
L 1178 0 
L 603 0 
L 603 4863 
z
" transform="scale(0.015625)"/>
       <path id="DejaVuSans-73" d="M 2834 3397 
L 2834 2853 
Q 2591 2978 2328 3040 
Q 2066 3103 1784 3103 
Q 1356 3103 1142 2972 
Q 928 2841 928 2578 
Q 928 2378 1081 2264 
Q 1234 2150 1697 2047 
L 1894 2003 
Q 2506 1872 2764 1633 
Q 3022 1394 3022 966 
Q 3022 478 2636 193 
Q 2250 -91 1575 -91 
Q 1294 -91 989 -36 
Q 684 19 347 128 
L 347 722 
Q 666 556 975 473 
Q 1284 391 1588 391 
Q 1994 391 2212 530 
Q 2431 669 2431 922 
Q 2431 1156 2273 1281 
Q 2116 1406 1581 1522 
L 1381 1569 
Q 847 1681 609 1914 
Q 372 2147 372 2553 
Q 372 3047 722 3315 
Q 1072 3584 1716 3584 
Q 2034 3584 2315 3537 
Q 2597 3491 2834 3397 
z
" transform="scale(0.015625)"/>
       <path id="DejaVuSans-65" d="M 3597 1894 
L 3597 1613 
L 953 1613 
Q 991 1019 1311 708 
Q 1631 397 2203 397 
Q 2534 397 2845 478 
Q 3156 559 3463 722 
L 3463 178 
Q 3153 47 2828 -22 
Q 2503 -91 2169 -91 
Q 1331 -91 842 396 
Q 353 884 353 1716 
Q 353 2575 817 3079 
Q 1281 3584 2069 3584 
Q 2775 3584 3186 3129 
Q 3597 2675 3597 1894 
z
M 3022 2063 
Q 3016 2534 2758 2815 
Q 2500 3097 2075 3097 
Q 1594 3097 1305 2825 
Q 1016 2553 972 2059 
L 3022 2063 
z
" transform="scale(0.015625)"/>
       <path id="DejaVuSans-20" transform="scale(0.015625)"/>
       <path id="DejaVuSans-50" d="M 1259 4147 
L 1259 2394 
L 2053 2394 
Q 2494 2394 2734 2622 
Q 2975 2850 2975 3272 
Q 2975 3691 2734 3919 
Q 2494 4147 2053 4147 
L 1259 4147 
z
M 628 4666 
L 2053 4666 
Q 2838 4666 3239 4311 
Q 3641 3956 3641 3272 
Q 3641 2581 3239 2228 
Q 2838 1875 2053 1875 
L 1259 1875 
L 1259 0 
L 628 0 
L 628 4666 
z
" transform="scale(0.015625)"/>
       <path id="DejaVuSans-6f" d="M 1959 3097 
Q 1497 3097 1228 2736 
Q 959 2375 959 1747 
Q 959 1119 1226 758 
Q 1494 397 1959 397 
Q 2419 397 2687 759 
Q 2956 1122 2956 1747 
Q 2956 2369 2687 2733 
Q 2419 3097 1959 3097 
z
M 1959 3584 
Q 2709 3584 3137 3096 
Q 3566 2609 3566 1747 
Q 3566 888 3137 398 
Q 2709 -91 1959 -91 
Q 1206 -91 779 398 
Q 353 888 353 1747 
Q 353 2609 779 3096 
Q 1206 3584 1959 3584 
z
" transform="scale(0.015625)"/>
       <path id="DejaVuSans-69" d="M 603 3500 
L 1178 3500 
L 1178 0 
L 603 0 
L 603 3500 
z
M 603 4863 
L 1178 4863 
L 1178 4134 
L 603 4134 
L 603 4863 
z
" transform="scale(0.015625)"/>
       <path id="DejaVuSans-74" d="M 1172 4494 
L 1172 3500 
L 2356 3500 
L 2356 3053 
L 1172 3053 
L 1172 1153 
Q 1172 725 1289 603 
Q 1406 481 1766 481 
L 2356 481 
L 2356 0 
L 1766 0 
Q 1100 0 847 248 
Q 594 497 594 1153 
L 594 3053 
L 172 3053 
L 172 3500 
L 594 3500 
L 594 4494 
L 1172 4494 
z
" transform="scale(0.015625)"/>
       <path id="DejaVuSans-76" d="M 191 3500 
L 800 3500 
L 1894 563 
L 2988 3500 
L 3597 3500 
L 2284 0 
L 1503 0 
L 191 3500 
z
" transform="scale(0.015625)"/>
       <path id="DejaVuSans-52" d="M 2841 2188 
Q 3044 2119 3236 1894 
Q 3428 1669 3622 1275 
L 4263 0 
L 3584 0 
L 2988 1197 
Q 2756 1666 2539 1819 
Q 2322 1972 1947 1972 
L 1259 1972 
L 1259 0 
L 628 0 
L 628 4666 
L 2053 4666 
Q 2853 4666 3247 4331 
Q 3641 3997 3641 3322 
Q 3641 2881 3436 2590 
Q 3231 2300 2841 2188 
z
M 1259 4147 
L 1259 2491 
L 2053 2491 
Q 2509 2491 2742 2702 
Q 2975 2913 2975 3322 
Q 2975 3731 2742 3939 
Q 2509 4147 2053 4147 
L 1259 4147 
z
" transform="scale(0.015625)"/>
      </defs>
      <use xlink:href="#DejaVuSans-46"/>
      <use xlink:href="#DejaVuSans-61" x="48.394531"/>
      <use xlink:href="#DejaVuSans-6c" x="109.673828"/>
      <use xlink:href="#DejaVuSans-73" x="137.457031"/>
      <use xlink:href="#DejaVuSans-65" x="189.556641"/>
      <use xlink:href="#DejaVuSans-20" x="251.080078"/>
      <use xlink:href="#DejaVuSans-50" x="282.867188"/>
      <use xlink:href="#DejaVuSans-6f" x="339.544922"/>
      <use xlink:href="#DejaVuSans-73" x="400.726562"/>
      <use xlink:href="#DejaVuSans-69" x="452.826172"/>
      <use xlink:href="#DejaVuSans-74" x="480.609375"/>
      <use xlink:href="#DejaVuSans-69" x="519.818359"/>
      <use xlink:href="#DejaVuSans-76" x="547.601562"/>
      <use xlink:href="#DejaVuSans-65" x="606.78125"/>
      <use xlink:href="#DejaVuSans-20" x="668.304688"/>
      <use xlink:href="#DejaVuSans-52" x="700.091797"/>
      <use xlink:href="#DejaVuSans-61" x="767.324219"/>
      <use xlink:href="#DejaVuSans-74" x="828.603516"/>
      <use xlink:href="#DejaVuSans-65" x="867.8125"/>
     </g>
    </g>
   </g>
   <g id="matplotlib.axis_2">
    <g id="ytick_1">
     <g id="line2d_7">
      <defs>
       <path id="ma5d80ac3ac" d="M 0 0 
L -3.5 0 
" style="stroke: #000000; stroke-width: 0.8"/>
      </defs>
      <g>
       <use xlink:href="#ma5d80ac3ac" x="46.684688" y="214.756364" style="stroke: #000000; stroke-width: 0.8"/>
      </g>
     </g>
     <g id="text_8">
      <!-- 0.0 -->
      <g transform="translate(23.781563 218.555582) scale(0.1 -0.1)">
       <use xlink:href="#DejaVuSans-30"/>
       <use xlink:href="#DejaVuSans-2e" x="63.623047"/>
       <use xlink:href="#DejaVuSans-30" x="95.410156"/>
      </g>
     </g>
    </g>
    <g id="ytick_2">
     <g id="line2d_8">
      <g>
       <use xlink:href="#ma5d80ac3ac" x="46.684688" y="175.221818" style="stroke: #000000; stroke-width: 0.8"/>
      </g>
     </g>
     <g id="text_9">
      <!-- 0.2 -->
      <g transform="translate(23.781563 179.021037) scale(0.1 -0.1)">
       <use xlink:href="#DejaVuSans-30"/>
       <use xlink:href="#DejaVuSans-2e" x="63.623047"/>
       <use xlink:href="#DejaVuSans-32" x="95.410156"/>
      </g>
     </g>
    </g>
    <g id="ytick_3">
     <g id="line2d_9">
      <g>
       <use xlink:href="#ma5d80ac3ac" x="46.684688" y="135.687273" style="stroke: #000000; stroke-width: 0.8"/>
      </g>
     </g>
     <g id="text_10">
      <!-- 0.4 -->
      <g transform="translate(23.781563 139.486491) scale(0.1 -0.1)">
       <use xlink:href="#DejaVuSans-30"/>
       <use xlink:href="#DejaVuSans-2e" x="63.623047"/>
       <use xlink:href="#DejaVuSans-34" x="95.410156"/>
      </g>
     </g>
    </g>
    <g id="ytick_4">
     <g id="line2d_10">
      <g>
       <use xlink:href="#ma5d80ac3ac" x="46.684688" y="96.152727" style="stroke: #000000; stroke-width: 0.8"/>
      </g>
     </g>
     <g id="text_11">
      <!-- 0.6 -->
      <g transform="translate(23.781563 99.951946) scale(0.1 -0.1)">
       <use xlink:href="#DejaVuSans-30"/>
       <use xlink:href="#DejaVuSans-2e" x="63.623047"/>
       <use xlink:href="#DejaVuSans-36" x="95.410156"/>
      </g>
     </g>
    </g>
    <g id="ytick_5">
     <g id="line2d_11">
      <g>
       <use xlink:href="#ma5d80ac3ac" x="46.684688" y="56.618182" style="stroke: #000000; stroke-width: 0.8"/>
      </g>
     </g>
     <g id="text_12">
      <!-- 0.8 -->
      <g transform="translate(23.781563 60.417401) scale(0.1 -0.1)">
       <use xlink:href="#DejaVuSans-30"/>
       <use xlink:href="#DejaVuSans-2e" x="63.623047"/>
       <use xlink:href="#DejaVuSans-38" x="95.410156"/>
      </g>
     </g>
    </g>
    <g id="ytick_6">
     <g id="line2d_12">
      <g>
       <use xlink:href="#ma5d80ac3ac" x="46.684688" y="17.083636" style="stroke: #000000; stroke-width: 0.8"/>
      </g>
     </g>
     <g id="text_13">
      <!-- 1.0 -->
      <g transform="translate(23.781563 20.882855) scale(0.1 -0.1)">
       <use xlink:href="#DejaVuSans-31"/>
       <use xlink:href="#DejaVuSans-2e" x="63.623047"/>
       <use xlink:href="#DejaVuSans-30" x="95.410156"/>
      </g>
     </g>
    </g>
    <g id="text_14">
     <!-- True Positive Rate -->
     <g transform="translate(17.077969 173.808594) rotate(-90) scale(0.13 -0.13)">
      <defs>
       <path id="DejaVuSans-54" d="M -19 4666 
L 3928 4666 
L 3928 4134 
L 2272 4134 
L 2272 0 
L 1638 0 
L 1638 4134 
L -19 4134 
L -19 4666 
z
" transform="scale(0.015625)"/>
       <path id="DejaVuSans-72" d="M 2631 2963 
Q 2534 3019 2420 3045 
Q 2306 3072 2169 3072 
Q 1681 3072 1420 2755 
Q 1159 2438 1159 1844 
L 1159 0 
L 581 0 
L 581 3500 
L 1159 3500 
L 1159 2956 
Q 1341 3275 1631 3429 
Q 1922 3584 2338 3584 
Q 2397 3584 2469 3576 
Q 2541 3569 2628 3553 
L 2631 2963 
z
" transform="scale(0.015625)"/>
       <path id="DejaVuSans-75" d="M 544 1381 
L 544 3500 
L 1119 3500 
L 1119 1403 
Q 1119 906 1312 657 
Q 1506 409 1894 409 
Q 2359 409 2629 706 
Q 2900 1003 2900 1516 
L 2900 3500 
L 3475 3500 
L 3475 0 
L 2900 0 
L 2900 538 
Q 2691 219 2414 64 
Q 2138 -91 1772 -91 
Q 1169 -91 856 284 
Q 544 659 544 1381 
z
M 1991 3584 
L 1991 3584 
z
" transform="scale(0.015625)"/>
      </defs>
      <use xlink:href="#DejaVuSans-54"/>
      <use xlink:href="#DejaVuSans-72" x="46.333984"/>
      <use xlink:href="#DejaVuSans-75" x="87.447266"/>
      <use xlink:href="#DejaVuSans-65" x="150.826172"/>
      <use xlink:href="#DejaVuSans-20" x="212.349609"/>
      <use xlink:href="#DejaVuSans-50" x="244.136719"/>
      <use xlink:href="#DejaVuSans-6f" x="300.814453"/>
      <use xlink:href="#DejaVuSans-73" x="361.996094"/>
      <use xlink:href="#DejaVuSans-69" x="414.095703"/>
      <use xlink:href="#DejaVuSans-74" x="441.878906"/>
      <use xlink:href="#DejaVuSans-69" x="481.087891"/>
      <use xlink:href="#DejaVuSans-76" x="508.871094"/>
      <use xlink:href="#DejaVuSans-65" x="568.050781"/>
      <use xlink:href="#DejaVuSans-20" x="629.574219"/>
      <use xlink:href="#DejaVuSans-52" x="661.361328"/>
      <use xlink:href="#DejaVuSans-61" x="728.59375"/>
      <use xlink:href="#DejaVuSans-74" x="789.873047"/>
      <use xlink:href="#DejaVuSans-65" x="829.082031"/>
     </g>
    </g>
   </g>
   <g id="line2d_13">
    <path d="M 61.902869 214.756364 
L 61.902869 163.685902 
L 62.178312 163.685902 
L 62.178312 126.194175 
L 62.453754 126.194175 
L 62.453754 109.49113 
L 62.729196 109.49113 
L 62.729196 99.397204 
L 63.004638 99.397204 
L 63.004638 90.865432 
L 63.28008 90.865432 
L 63.28008 89.543609 
L 63.555523 89.543609 
L 63.555523 85.698303 
L 63.830965 85.698303 
L 63.830965 84.136148 
L 64.106407 84.136148 
L 64.106407 83.054656 
L 64.381849 83.054656 
L 64.381849 81.612666 
L 64.657291 81.612666 
L 64.657291 76.08504 
L 64.932734 76.08504 
L 64.932734 73.321227 
L 65.208176 73.321227 
L 65.208176 72.840564 
L 65.483618 72.840564 
L 65.483618 68.514595 
L 66.034502 68.514595 
L 66.034502 67.192771 
L 66.309945 67.192771 
L 66.309945 64.308792 
L 66.585387 64.308792 
L 66.585387 63.707964 
L 66.860829 63.707964 
L 66.860829 63.347466 
L 67.136271 63.347466 
L 67.136271 62.506306 
L 67.411713 62.506306 
L 67.411713 62.38614 
L 67.687156 62.38614 
L 67.687156 62.265974 
L 67.962598 62.265974 
L 67.962598 61.665145 
L 68.23804 61.665145 
L 68.23804 60.94415 
L 68.513482 60.94415 
L 68.513482 60.10299 
L 68.788924 60.10299 
L 68.788924 59.862658 
L 69.064367 59.862658 
L 69.064367 59.381995 
L 69.339809 59.381995 
L 69.339809 58.540834 
L 70.992462 58.540834 
L 70.992462 58.300503 
L 71.267904 58.300503 
L 71.267904 58.060171 
L 71.818789 58.060171 
L 71.818789 57.81984 
L 72.094231 57.81984 
L 72.094231 57.219011 
L 72.369673 57.219011 
L 72.369673 56.257684 
L 72.645115 56.257684 
L 72.645115 55.53669 
L 72.920558 55.53669 
L 72.920558 55.416524 
L 73.471442 55.416524 
L 73.471442 54.455198 
L 73.746884 54.455198 
L 73.746884 54.335032 
L 74.573211 54.335032 
L 74.573211 54.0947 
L 74.848653 54.0947 
L 74.848653 53.854369 
L 75.67498 53.854369 
L 75.67498 53.734203 
L 75.950422 53.734203 
L 75.950422 53.373705 
L 76.225864 53.373705 
L 76.225864 52.772876 
L 76.501306 52.772876 
L 76.501306 52.652711 
L 76.776748 52.652711 
L 76.776748 52.532545 
L 77.052191 52.532545 
L 77.052191 52.412379 
L 78.153959 52.412379 
L 78.153959 52.051882 
L 79.53117 52.051882 
L 79.53117 51.931716 
L 80.082055 51.931716 
L 80.082055 51.81155 
L 80.357497 51.81155 
L 80.357497 51.571219 
L 82.01015 51.571219 
L 82.01015 51.451053 
L 82.285592 51.451053 
L 82.285592 51.090555 
L 82.836477 51.090555 
L 82.836477 50.97039 
L 83.938246 50.97039 
L 83.938246 50.489726 
L 84.213688 50.489726 
L 84.213688 49.888897 
L 84.48913 49.888897 
L 84.48913 49.288069 
L 85.866341 49.288069 
L 85.866341 49.047737 
L 86.692668 49.047737 
L 86.692668 48.927571 
L 88.896205 48.927571 
L 88.896205 48.68724 
L 90.273416 48.68724 
L 90.273416 48.567074 
L 90.548859 48.567074 
L 90.548859 48.326742 
L 93.027838 48.326742 
L 93.027838 48.086411 
L 94.129607 48.086411 
L 94.129607 47.966245 
L 95.782261 47.966245 
L 95.782261 47.846079 
L 96.057703 47.846079 
L 96.057703 47.725913 
L 96.608587 47.725913 
L 96.608587 47.605747 
L 97.434914 47.605747 
L 97.434914 47.485582 
L 97.710356 47.485582 
L 97.710356 47.365416 
L 98.26124 47.365416 
L 98.26124 47.24525 
L 98.536683 47.24525 
L 98.536683 47.125084 
L 98.812125 47.125084 
L 98.812125 47.004918 
L 99.087567 47.004918 
L 99.087567 46.884753 
L 101.291105 46.884753 
L 101.291105 46.644421 
L 102.117431 46.644421 
L 102.117431 46.524255 
L 102.392873 46.524255 
L 102.392873 46.283924 
L 105.147295 46.283924 
L 105.147295 46.163758 
L 106.524507 46.163758 
L 106.524507 46.043592 
L 107.626275 46.043592 
L 107.626275 45.923426 
L 108.452602 45.923426 
L 108.452602 45.803261 
L 109.003486 45.803261 
L 109.003486 45.683095 
L 109.829813 45.683095 
L 109.829813 45.322597 
L 110.65614 45.322597 
L 110.65614 45.202432 
L 110.931582 45.202432 
L 110.931582 45.082266 
L 111.757908 45.082266 
L 111.757908 44.9621 
L 113.410562 44.9621 
L 113.410562 44.841934 
L 115.614099 44.841934 
L 115.614099 44.721768 
L 116.164984 44.721768 
L 116.164984 44.601603 
L 117.817637 44.601603 
L 117.817637 44.481437 
L 118.919406 44.481437 
L 118.919406 44.361271 
L 119.194848 44.361271 
L 119.194848 44.241105 
L 120.296617 44.241105 
L 120.296617 44.120939 
L 120.572059 44.120939 
L 120.572059 44.000774 
L 123.326481 44.000774 
L 123.326481 43.760442 
L 124.152808 43.760442 
L 124.152808 43.520111 
L 125.254576 43.520111 
L 125.254576 43.399945 
L 125.805461 43.399945 
L 125.805461 43.279779 
L 126.631787 43.279779 
L 126.631787 43.159613 
L 128.284441 43.159613 
L 128.284441 43.039447 
L 129.661652 43.039447 
L 129.661652 42.919282 
L 130.487978 42.919282 
L 130.487978 42.799116 
L 131.865189 42.799116 
L 131.865189 42.67895 
L 132.691516 42.67895 
L 132.691516 42.558784 
L 133.2424 42.558784 
L 133.2424 42.438618 
L 133.517843 42.438618 
L 133.517843 42.318453 
L 134.344169 42.318453 
L 134.344169 42.198287 
L 135.72138 42.198287 
L 135.72138 42.078121 
L 135.996822 42.078121 
L 135.996822 41.957955 
L 136.272265 41.957955 
L 136.272265 41.717624 
L 138.20036 41.717624 
L 138.20036 41.597458 
L 140.67934 41.597458 
L 140.67934 41.477292 
L 142.331993 41.477292 
L 142.331993 41.357126 
L 144.260089 41.357126 
L 144.260089 41.23696 
L 145.6373 41.23696 
L 145.6373 41.116795 
L 147.289953 41.116795 
L 147.289953 40.996629 
L 148.942606 40.996629 
L 148.942606 40.756297 
L 149.49349 40.756297 
L 149.49349 40.636132 
L 149.768933 40.636132 
L 149.768933 40.3958 
L 150.044375 40.3958 
L 150.044375 40.275634 
L 151.146144 40.275634 
L 151.146144 40.035303 
L 151.421586 40.035303 
L 151.421586 39.915137 
L 151.97247 39.915137 
L 151.97247 39.674805 
L 153.900566 39.674805 
L 153.900566 39.434474 
L 154.45145 39.434474 
L 154.45145 39.194142 
L 155.553219 39.194142 
L 155.553219 38.95381 
L 157.205872 38.95381 
L 157.205872 38.833645 
L 159.684852 38.833645 
L 159.684852 38.593313 
L 161.612947 38.593313 
L 161.612947 38.473147 
L 161.88839 38.473147 
L 161.88839 38.352981 
L 164.918254 38.352981 
L 164.918254 38.232816 
L 165.744581 38.232816 
L 165.744581 38.11265 
L 166.295465 38.11265 
L 166.295465 37.992484 
L 172.079751 37.992484 
L 172.079751 37.872318 
L 173.18152 37.872318 
L 173.18152 37.752153 
L 173.732404 37.752153 
L 173.732404 37.631987 
L 175.385058 37.631987 
L 175.385058 37.511821 
L 175.6605 37.511821 
L 175.6605 37.391655 
L 176.486827 37.391655 
L 176.486827 37.031158 
L 177.864038 37.031158 
L 177.864038 36.67066 
L 179.241249 36.67066 
L 179.241249 36.550495 
L 180.343017 36.550495 
L 180.343017 36.430329 
L 181.995671 36.430329 
L 181.995671 36.310163 
L 183.923766 36.310163 
L 183.923766 36.189997 
L 185.851862 36.189997 
L 185.851862 36.069831 
L 186.678188 36.069831 
L 186.678188 35.949666 
L 188.881726 35.949666 
L 188.881726 35.709334 
L 191.085263 35.709334 
L 191.085263 35.469002 
L 191.636148 35.469002 
L 191.636148 35.348837 
L 192.462474 35.348837 
L 192.462474 35.108505 
L 193.564243 35.108505 
L 193.564243 34.988339 
L 194.115128 34.988339 
L 194.115128 34.868174 
L 194.39057 34.868174 
L 194.39057 34.627842 
L 195.767781 34.627842 
L 195.767781 34.507676 
L 197.420434 34.507676 
L 197.420434 34.38751 
L 198.246761 34.38751 
L 198.246761 34.267345 
L 200.725741 34.267345 
L 200.725741 34.147179 
L 201.001183 34.147179 
L 201.001183 34.027013 
L 201.552067 34.027013 
L 201.552067 33.906847 
L 207.336353 33.906847 
L 207.336353 33.786681 
L 212.569755 33.786681 
L 212.569755 33.666516 
L 214.497851 33.666516 
L 214.497851 33.54635 
L 217.527715 33.54635 
L 217.527715 33.426184 
L 219.45581 33.426184 
L 219.45581 33.306018 
L 221.659348 33.306018 
L 221.659348 33.185852 
L 221.93479 33.185852 
L 221.93479 33.065687 
L 223.862886 33.065687 
L 223.862886 32.945521 
L 224.138328 32.945521 
L 224.138328 32.825355 
L 224.41377 32.825355 
L 224.41377 32.705189 
L 224.964655 32.705189 
L 224.964655 32.464858 
L 227.168192 32.464858 
L 227.168192 32.344692 
L 227.994519 32.344692 
L 227.994519 32.224526 
L 230.473499 32.224526 
L 230.473499 32.10436 
L 231.575268 32.10436 
L 231.575268 31.864029 
L 231.85071 31.864029 
L 231.85071 31.743863 
L 233.503363 31.743863 
L 233.503363 31.623697 
L 234.605132 31.623697 
L 234.605132 31.383366 
L 234.880574 31.383366 
L 234.880574 31.2632 
L 235.156016 31.2632 
L 235.156016 31.143034 
L 235.706901 31.143034 
L 235.706901 31.022868 
L 238.736765 31.022868 
L 238.736765 30.902702 
L 239.563091 30.902702 
L 239.563091 30.782537 
L 240.66486 30.782537 
L 240.66486 30.662371 
L 240.940302 30.662371 
L 240.940302 30.542205 
L 242.042071 30.542205 
L 242.042071 30.422039 
L 243.14384 30.422039 
L 243.14384 30.181708 
L 243.694725 30.181708 
L 243.694725 29.941376 
L 246.449147 29.941376 
L 246.449147 29.82121 
L 248.1018 29.82121 
L 248.1018 29.701044 
L 250.305337 29.701044 
L 250.305337 29.460713 
L 254.436971 29.460713 
L 254.436971 29.220381 
L 257.466835 29.220381 
L 257.466835 29.100216 
L 259.945815 29.100216 
L 259.945815 28.739718 
L 263.251121 28.739718 
L 263.251121 28.619552 
L 263.802005 28.619552 
L 263.802005 28.499387 
L 265.454659 28.499387 
L 265.454659 28.379221 
L 269.586292 28.379221 
L 269.586292 28.259055 
L 270.688061 28.259055 
L 270.688061 28.138889 
L 273.993367 28.138889 
L 273.993367 28.018723 
L 274.544251 28.018723 
L 274.544251 27.778392 
L 278.400442 27.778392 
L 278.400442 27.658226 
L 279.502211 27.658226 
L 279.502211 27.057397 
L 279.777653 27.057397 
L 279.777653 26.937231 
L 282.256633 26.937231 
L 282.256633 26.817065 
L 282.532075 26.817065 
L 282.532075 26.6969 
L 283.909286 26.6969 
L 283.909286 26.456568 
L 284.184729 26.456568 
L 284.184729 26.336402 
L 285.286497 26.336402 
L 285.286497 26.216237 
L 287.214593 26.216237 
L 287.214593 26.096071 
L 288.867246 26.096071 
L 288.867246 25.975905 
L 292.447995 25.975905 
L 292.447995 25.855739 
L 292.998879 25.855739 
L 292.998879 25.615408 
L 293.825206 25.615408 
L 293.825206 25.495242 
L 294.926975 25.495242 
L 294.926975 25.25491 
L 295.202417 25.25491 
L 295.202417 25.134744 
L 296.579628 25.134744 
L 296.579628 25.014579 
L 296.85507 25.014579 
L 296.85507 24.774247 
L 297.681397 24.774247 
L 297.681397 24.533915 
L 297.956839 24.533915 
L 297.956839 24.41375 
L 300.435819 24.41375 
L 300.435819 24.293584 
L 300.986703 24.293584 
L 300.986703 24.173418 
L 304.29201 24.173418 
L 304.29201 24.053252 
L 305.669221 24.053252 
L 305.669221 23.933086 
L 307.597316 23.933086 
L 307.597316 23.812921 
L 309.249969 23.812921 
L 309.249969 23.452423 
L 310.351738 23.452423 
L 310.351738 23.332258 
L 310.902623 23.332258 
L 310.902623 22.97176 
L 320.818542 22.97176 
L 320.818542 22.611263 
L 321.093984 22.611263 
L 321.093984 22.491097 
L 323.02208 22.491097 
L 323.02208 22.370931 
L 324.950175 22.370931 
L 324.950175 22.250765 
L 325.776502 22.250765 
L 325.776502 22.1306 
L 327.153713 22.1306 
L 327.153713 22.010434 
L 329.632692 22.010434 
L 329.632692 21.890268 
L 329.908135 21.890268 
L 329.908135 21.770102 
L 331.83623 21.770102 
L 331.83623 21.649936 
L 332.111672 21.649936 
L 332.111672 21.529771 
L 332.387114 21.529771 
L 332.387114 21.409605 
L 333.488883 21.409605 
L 333.488883 21.289439 
L 336.243305 21.289439 
L 336.243305 21.169273 
L 337.069632 21.169273 
L 337.069632 20.928942 
L 338.171401 20.928942 
L 338.171401 20.568444 
L 338.722285 20.568444 
L 338.722285 20.448279 
L 339.27317 20.448279 
L 339.27317 20.328113 
L 340.099496 20.328113 
L 340.099496 20.207947 
L 340.650381 20.207947 
L 340.650381 20.087781 
L 343.680245 20.087781 
L 343.680245 19.967615 
L 345.057456 19.967615 
L 345.057456 19.84745 
L 345.332898 19.84745 
L 345.332898 19.727284 
L 345.883783 19.727284 
L 345.883783 19.607118 
L 347.811878 19.607118 
L 347.811878 19.486952 
L 349.739973 19.486952 
L 349.739973 19.366786 
L 350.290858 19.366786 
L 350.290858 19.246621 
L 351.117184 19.246621 
L 351.117184 19.006289 
L 351.943511 19.006289 
L 351.943511 18.886123 
L 356.075144 18.886123 
L 356.075144 18.645792 
L 356.626029 18.645792 
L 356.626029 18.525626 
L 358.00324 18.525626 
L 358.00324 18.40546 
L 358.554124 18.40546 
L 358.554124 18.285294 
L 361.308546 18.285294 
L 361.308546 18.044963 
L 361.583988 18.044963 
L 361.583988 17.924797 
L 362.685757 17.924797 
L 362.685757 17.804631 
L 362.961199 17.804631 
L 362.961199 17.684465 
L 364.062968 17.684465 
L 364.062968 17.444134 
L 365.164737 17.444134 
L 365.164737 17.323968 
L 365.991063 17.323968 
L 365.991063 17.203802 
L 366.266506 17.203802 
L 366.266506 17.083636 
L 366.266506 17.083636 
" clip-path="url(#pe13e7aa29b)" style="fill: none; stroke: #1f77b4; stroke-width: 1.5; stroke-linecap: square"/>
   </g>
   <g id="line2d_14">
    <path d="M 61.902869 214.756364 
L 61.902869 212.713545 
L 62.178312 212.713545 
L 62.178312 212.473214 
L 62.453754 212.473214 
L 62.453754 211.632053 
L 62.729196 211.632053 
L 62.729196 211.271556 
L 63.28008 211.271556 
L 63.28008 211.031224 
L 63.830965 211.031224 
L 63.830965 210.790893 
L 65.208176 210.790893 
L 65.208176 210.670727 
L 65.483618 210.670727 
L 65.483618 210.069898 
L 65.75906 210.069898 
L 65.75906 209.949732 
L 66.309945 209.949732 
L 66.309945 209.348903 
L 66.860829 209.348903 
L 66.860829 209.228737 
L 67.136271 209.228737 
L 67.136271 209.108571 
L 67.411713 209.108571 
L 67.411713 208.748074 
L 67.687156 208.748074 
L 67.687156 208.627908 
L 67.962598 208.627908 
L 67.962598 208.387577 
L 68.788924 208.387577 
L 68.788924 208.267411 
L 69.064367 208.267411 
L 69.064367 207.666582 
L 69.890693 207.666582 
L 69.890693 207.546416 
L 70.441578 207.546416 
L 70.441578 205.864095 
L 70.71702 205.864095 
L 70.71702 205.743929 
L 70.992462 205.743929 
L 70.992462 205.1431 
L 71.267904 205.1431 
L 71.267904 204.782603 
L 71.543346 204.782603 
L 71.543346 204.542271 
L 71.818789 204.542271 
L 71.818789 204.061608 
L 72.094231 204.061608 
L 72.094231 203.460779 
L 72.369673 203.460779 
L 72.369673 203.220448 
L 72.920558 203.220448 
L 72.920558 202.739784 
L 73.196 202.739784 
L 73.196 202.619619 
L 73.471442 202.619619 
L 73.471442 202.01879 
L 73.746884 202.01879 
L 73.746884 201.778458 
L 74.022326 201.778458 
L 74.022326 201.658292 
L 74.297769 201.658292 
L 74.297769 201.417961 
L 75.67498 201.417961 
L 75.67498 201.297795 
L 75.950422 201.297795 
L 75.950422 201.177629 
L 76.225864 201.177629 
L 76.225864 201.057463 
L 76.501306 201.057463 
L 76.501306 200.817132 
L 77.603075 200.817132 
L 77.603075 200.696966 
L 78.153959 200.696966 
L 78.153959 199.975971 
L 78.429402 199.975971 
L 78.429402 199.855805 
L 79.255728 199.855805 
L 79.255728 199.73564 
L 79.53117 199.73564 
L 79.53117 199.495308 
L 80.082055 199.495308 
L 80.082055 199.134811 
L 81.459266 199.134811 
L 81.459266 199.014645 
L 81.734708 199.014645 
L 81.734708 198.774313 
L 83.111919 198.774313 
L 83.111919 198.654148 
L 83.387361 198.654148 
L 83.387361 198.053319 
L 83.662804 198.053319 
L 83.662804 197.933153 
L 83.938246 197.933153 
L 83.938246 197.692821 
L 84.764572 197.692821 
L 84.764572 197.572655 
L 85.040015 197.572655 
L 85.040015 197.45249 
L 85.590899 197.45249 
L 85.590899 197.212158 
L 85.866341 197.212158 
L 85.866341 196.971826 
L 86.417226 196.971826 
L 86.417226 196.851661 
L 86.692668 196.851661 
L 86.692668 196.731495 
L 86.96811 196.731495 
L 86.96811 196.370998 
L 87.518994 196.370998 
L 87.518994 196.0105 
L 88.620763 196.0105 
L 88.620763 195.890334 
L 88.896205 195.890334 
L 88.896205 195.770169 
L 89.997974 195.770169 
L 89.997974 195.650003 
L 90.273416 195.650003 
L 90.273416 195.16934 
L 90.548859 195.16934 
L 90.548859 195.049174 
L 90.824301 195.049174 
L 90.824301 194.929008 
L 91.650627 194.929008 
L 91.650627 194.688676 
L 92.201512 194.688676 
L 92.201512 194.568511 
L 92.752396 194.568511 
L 92.752396 194.448345 
L 93.303281 194.448345 
L 93.303281 194.208013 
L 94.680492 194.208013 
L 94.680492 193.847516 
L 95.231376 193.847516 
L 95.231376 192.766024 
L 96.057703 192.766024 
L 96.057703 192.045029 
L 96.333145 192.045029 
L 96.333145 191.804697 
L 96.608587 191.804697 
L 96.608587 191.684532 
L 97.159472 191.684532 
L 97.159472 191.4442 
L 97.434914 191.4442 
L 97.434914 191.083703 
L 97.710356 191.083703 
L 97.710356 190.963537 
L 98.536683 190.963537 
L 98.536683 190.723205 
L 99.363009 190.723205 
L 99.363009 190.242542 
L 99.638451 190.242542 
L 99.638451 190.002211 
L 101.015662 190.002211 
L 101.015662 189.882045 
L 101.291105 189.882045 
L 101.291105 189.641713 
L 101.566547 189.641713 
L 101.566547 188.680387 
L 102.392873 188.680387 
L 102.392873 188.560221 
L 102.668316 188.560221 
L 102.668316 188.319889 
L 102.943758 188.319889 
L 102.943758 187.959392 
L 103.494642 187.959392 
L 103.494642 187.719061 
L 104.045527 187.719061 
L 104.045527 187.358563 
L 104.320969 187.358563 
L 104.320969 186.998066 
L 105.973622 186.998066 
L 105.973622 186.8779 
L 106.799949 186.8779 
L 106.799949 186.757734 
L 107.075391 186.757734 
L 107.075391 186.517403 
L 107.626275 186.517403 
L 107.626275 186.036739 
L 107.901718 186.036739 
L 107.901718 185.916574 
L 108.17716 185.916574 
L 108.17716 185.796408 
L 108.452602 185.796408 
L 108.452602 185.43591 
L 108.728044 185.43591 
L 108.728044 184.714916 
L 109.003486 184.714916 
L 109.003486 184.474584 
L 109.278929 184.474584 
L 109.278929 183.993921 
L 110.105255 183.993921 
L 110.105255 183.393092 
L 110.65614 183.393092 
L 110.65614 183.032595 
L 110.931582 183.032595 
L 110.931582 182.912429 
L 111.207024 182.912429 
L 111.207024 182.792263 
L 111.757908 182.792263 
L 111.757908 182.431766 
L 112.033351 182.431766 
L 112.033351 182.3116 
L 112.308793 182.3116 
L 112.308793 182.071268 
L 113.135119 182.071268 
L 113.135119 181.951103 
L 114.236888 181.951103 
L 114.236888 181.830937 
L 114.51233 181.830937 
L 114.51233 181.350274 
L 114.787773 181.350274 
L 114.787773 181.230108 
L 115.063215 181.230108 
L 115.063215 181.109942 
L 115.338657 181.109942 
L 115.338657 180.509113 
L 115.614099 180.509113 
L 115.614099 180.148616 
L 115.889541 180.148616 
L 115.889541 179.547787 
L 116.164984 179.547787 
L 116.164984 179.187289 
L 116.440426 179.187289 
L 116.440426 178.706626 
L 116.99131 178.706626 
L 116.99131 178.58646 
L 117.542195 178.58646 
L 117.542195 177.865466 
L 117.817637 177.865466 
L 117.817637 177.7453 
L 118.368521 177.7453 
L 118.368521 177.144471 
L 118.643964 177.144471 
L 118.643964 176.783973 
L 119.194848 176.783973 
L 119.194848 176.663808 
L 119.745732 176.663808 
L 119.745732 176.543642 
L 120.021175 176.543642 
L 120.021175 176.30331 
L 120.296617 176.30331 
L 120.296617 176.183145 
L 120.572059 176.183145 
L 120.572059 176.062979 
L 120.847501 176.062979 
L 120.847501 175.702481 
L 121.398386 175.702481 
L 121.398386 175.101652 
L 121.673828 175.101652 
L 121.673828 174.861321 
L 121.94927 174.861321 
L 121.94927 174.500823 
L 122.224712 174.500823 
L 122.224712 174.380658 
L 122.775597 174.380658 
L 122.775597 174.260492 
L 123.051039 174.260492 
L 123.051039 174.140326 
L 123.326481 174.140326 
L 123.326481 173.899994 
L 123.601923 173.899994 
L 123.601923 173.779829 
L 123.877365 173.779829 
L 123.877365 173.659663 
L 124.152808 173.659663 
L 124.152808 173.539497 
L 124.42825 173.539497 
L 124.42825 172.578171 
L 124.979134 172.578171 
L 124.979134 172.097508 
L 125.530019 172.097508 
L 125.530019 171.857176 
L 125.805461 171.857176 
L 125.805461 171.616844 
L 126.356345 171.616844 
L 126.356345 171.496679 
L 126.631787 171.496679 
L 126.631787 171.256347 
L 129.110767 171.256347 
L 129.110767 170.89585 
L 129.38621 170.89585 
L 129.38621 170.775684 
L 129.661652 170.775684 
L 129.661652 170.655518 
L 129.937094 170.655518 
L 129.937094 170.415187 
L 130.212536 170.415187 
L 130.212536 170.054689 
L 130.487978 170.054689 
L 130.487978 169.934523 
L 130.763421 169.934523 
L 130.763421 169.694192 
L 131.314305 169.694192 
L 131.314305 169.574026 
L 131.589747 169.574026 
L 131.589747 169.333694 
L 132.691516 169.333694 
L 132.691516 169.213529 
L 134.344169 169.213529 
L 134.344169 168.973197 
L 134.619611 168.973197 
L 134.619611 168.732865 
L 135.170496 168.732865 
L 135.170496 168.6127 
L 135.445938 168.6127 
L 135.445938 168.492534 
L 135.72138 168.492534 
L 135.72138 168.372368 
L 136.272265 168.372368 
L 136.272265 168.132036 
L 137.098591 168.132036 
L 137.098591 168.011871 
L 137.374033 168.011871 
L 137.374033 167.891705 
L 137.924918 167.891705 
L 137.924918 167.651373 
L 138.20036 167.651373 
L 138.20036 167.411042 
L 138.475802 167.411042 
L 138.475802 167.290876 
L 139.302129 167.290876 
L 139.302129 167.17071 
L 139.577571 167.17071 
L 139.577571 166.690047 
L 139.853013 166.690047 
L 139.853013 166.449715 
L 140.128455 166.449715 
L 140.128455 165.848886 
L 140.67934 165.848886 
L 140.67934 165.007726 
L 140.954782 165.007726 
L 140.954782 164.406897 
L 141.230224 164.406897 
L 141.230224 164.166565 
L 141.781109 164.166565 
L 141.781109 163.926234 
L 142.056551 163.926234 
L 142.056551 163.685902 
L 143.709204 163.685902 
L 143.709204 163.445571 
L 143.984646 163.445571 
L 143.984646 163.085073 
L 144.260089 163.085073 
L 144.260089 162.964907 
L 145.086415 162.964907 
L 145.086415 162.844742 
L 145.361857 162.844742 
L 145.361857 162.60441 
L 145.912742 162.60441 
L 145.912742 162.364078 
L 146.463626 162.364078 
L 146.463626 161.883415 
L 147.014511 161.883415 
L 147.014511 161.522918 
L 147.289953 161.522918 
L 147.289953 160.801923 
L 147.565395 160.801923 
L 147.565395 159.960763 
L 148.116279 159.960763 
L 148.116279 159.480099 
L 148.667164 159.480099 
L 148.667164 159.359934 
L 148.942606 159.359934 
L 148.942606 159.119602 
L 149.49349 159.119602 
L 149.49349 158.638939 
L 149.768933 158.638939 
L 149.768933 157.797778 
L 150.319817 157.797778 
L 150.319817 157.317115 
L 150.595259 157.317115 
L 150.595259 157.196949 
L 150.870701 157.196949 
L 150.870701 157.076784 
L 151.421586 157.076784 
L 151.421586 156.956618 
L 151.697028 156.956618 
L 151.697028 156.716286 
L 151.97247 156.716286 
L 151.97247 156.59612 
L 152.247913 156.59612 
L 152.247913 156.475955 
L 152.798797 156.475955 
L 152.798797 155.995292 
L 153.074239 155.995292 
L 153.074239 155.75496 
L 153.625124 155.75496 
L 153.625124 155.394463 
L 153.900566 155.394463 
L 153.900566 155.274297 
L 154.176008 155.274297 
L 154.176008 155.033965 
L 154.45145 155.033965 
L 154.45145 154.673468 
L 154.726892 154.673468 
L 154.726892 154.433136 
L 155.002335 154.433136 
L 155.002335 153.952473 
L 155.277777 153.952473 
L 155.277777 153.47181 
L 155.553219 153.47181 
L 155.553219 153.351644 
L 156.379546 153.351644 
L 156.379546 152.991147 
L 156.654988 152.991147 
L 156.654988 152.750815 
L 157.205872 152.750815 
L 157.205872 152.510484 
L 157.481314 152.510484 
L 157.481314 152.390318 
L 158.307641 152.390318 
L 158.307641 152.270152 
L 158.858525 152.270152 
L 158.858525 152.02982 
L 159.40941 152.02982 
L 159.40941 151.789489 
L 159.684852 151.789489 
L 159.684852 151.669323 
L 159.960294 151.669323 
L 159.960294 151.549157 
L 160.235736 151.549157 
L 160.235736 151.428991 
L 161.062063 151.428991 
L 161.062063 151.308826 
L 161.612947 151.308826 
L 161.612947 151.068494 
L 161.88839 151.068494 
L 161.88839 150.948328 
L 162.439274 150.948328 
L 162.439274 150.828162 
L 162.990158 150.828162 
L 162.990158 150.587831 
L 163.541043 150.587831 
L 163.541043 150.467665 
L 164.091927 150.467665 
L 164.091927 150.347499 
L 164.36737 150.347499 
L 164.36737 149.506339 
L 164.642812 149.506339 
L 164.642812 149.266007 
L 164.918254 149.266007 
L 164.918254 149.145841 
L 165.744581 149.145841 
L 165.744581 148.424847 
L 167.397234 148.424847 
L 167.397234 148.184515 
L 167.672676 148.184515 
L 167.672676 147.944183 
L 167.948118 147.944183 
L 167.948118 147.343355 
L 168.22356 147.343355 
L 168.22356 146.982857 
L 168.499003 146.982857 
L 168.499003 146.862691 
L 169.049887 146.862691 
L 169.049887 146.742526 
L 169.600771 146.742526 
L 169.600771 146.62236 
L 170.70254 146.62236 
L 170.70254 146.502194 
L 170.977982 146.502194 
L 170.977982 146.141697 
L 171.253425 146.141697 
L 171.253425 145.781199 
L 172.079751 145.781199 
L 172.079751 145.420702 
L 172.630636 145.420702 
L 172.630636 145.300536 
L 173.18152 145.300536 
L 173.18152 145.18037 
L 173.456962 145.18037 
L 173.456962 145.060204 
L 174.007847 145.060204 
L 174.007847 144.940039 
L 174.283289 144.940039 
L 174.283289 144.699707 
L 174.558731 144.699707 
L 174.558731 144.459376 
L 174.834173 144.459376 
L 174.834173 144.098878 
L 175.385058 144.098878 
L 175.385058 143.978712 
L 175.6605 143.978712 
L 175.6605 143.858547 
L 175.935942 143.858547 
L 175.935942 143.738381 
L 176.211384 143.738381 
L 176.211384 143.498049 
L 176.486827 143.498049 
L 176.486827 142.656889 
L 177.037711 142.656889 
L 177.037711 142.416557 
L 177.588595 142.416557 
L 177.588595 142.296391 
L 178.13948 142.296391 
L 178.13948 141.575397 
L 178.414922 141.575397 
L 178.414922 141.335065 
L 178.690364 141.335065 
L 178.690364 141.214899 
L 179.241249 141.214899 
L 179.241249 141.094733 
L 179.792133 141.094733 
L 179.792133 140.493904 
L 180.343017 140.493904 
L 180.343017 140.253573 
L 180.893902 140.253573 
L 180.893902 140.013241 
L 181.169344 140.013241 
L 181.169344 139.652744 
L 181.444786 139.652744 
L 181.444786 139.412412 
L 181.995671 139.412412 
L 181.995671 139.172081 
L 183.097439 139.172081 
L 183.097439 138.691418 
L 183.372882 138.691418 
L 183.372882 138.451086 
L 183.648324 138.451086 
L 183.648324 138.210754 
L 183.923766 138.210754 
L 183.923766 137.850257 
L 184.199208 137.850257 
L 184.199208 137.249428 
L 184.750093 137.249428 
L 184.750093 137.009096 
L 185.576419 137.009096 
L 185.576419 136.768765 
L 185.851862 136.768765 
L 185.851862 136.648599 
L 186.127304 136.648599 
L 186.127304 135.927604 
L 186.678188 135.927604 
L 186.678188 135.687273 
L 187.229073 135.687273 
L 187.229073 135.326775 
L 187.779957 135.326775 
L 187.779957 135.20661 
L 189.157168 135.20661 
L 189.157168 134.966278 
L 189.43261 134.966278 
L 189.43261 134.485615 
L 189.983495 134.485615 
L 189.983495 134.245283 
L 190.258937 134.245283 
L 190.258937 134.125117 
L 190.809821 134.125117 
L 190.809821 134.004952 
L 191.636148 134.004952 
L 191.636148 133.76462 
L 191.91159 133.76462 
L 191.91159 133.283957 
L 192.462474 133.283957 
L 192.462474 133.163791 
L 193.288801 133.163791 
L 193.288801 133.043625 
L 194.115128 133.043625 
L 194.115128 132.562962 
L 194.39057 132.562962 
L 194.39057 132.322631 
L 194.666012 132.322631 
L 194.666012 132.082299 
L 194.941454 132.082299 
L 194.941454 131.962133 
L 195.216896 131.962133 
L 195.216896 131.841967 
L 196.043223 131.841967 
L 196.043223 131.721802 
L 196.594107 131.721802 
L 196.594107 131.48147 
L 196.86955 131.48147 
L 196.86955 131.241138 
L 197.695876 131.241138 
L 197.695876 130.880641 
L 197.971319 130.880641 
L 197.971319 130.760475 
L 198.522203 130.760475 
L 198.522203 130.159646 
L 198.797645 130.159646 
L 198.797645 130.039481 
L 199.073087 130.039481 
L 199.073087 129.678983 
L 200.450298 129.678983 
L 200.450298 129.558817 
L 200.725741 129.558817 
L 200.725741 129.438652 
L 201.001183 129.438652 
L 201.001183 129.318486 
L 201.276625 129.318486 
L 201.276625 128.957988 
L 201.552067 128.957988 
L 201.552067 128.597491 
L 202.102952 128.597491 
L 202.102952 128.477325 
L 202.378394 128.477325 
L 202.378394 128.236994 
L 202.653836 128.236994 
L 202.653836 127.996662 
L 202.929278 127.996662 
L 202.929278 127.876496 
L 203.20472 127.876496 
L 203.20472 127.75633 
L 203.480163 127.75633 
L 203.480163 127.636165 
L 204.306489 127.636165 
L 204.306489 127.395833 
L 204.581931 127.395833 
L 204.581931 127.275667 
L 204.857374 127.275667 
L 204.857374 127.035336 
L 205.132816 127.035336 
L 205.132816 126.91517 
L 205.408258 126.91517 
L 205.408258 126.674838 
L 205.6837 126.674838 
L 205.6837 126.074009 
L 206.510027 126.074009 
L 206.510027 125.953844 
L 207.887238 125.953844 
L 207.887238 125.833678 
L 208.16268 125.833678 
L 208.16268 125.713512 
L 208.438122 125.713512 
L 208.438122 125.593346 
L 208.713565 125.593346 
L 208.713565 124.752186 
L 208.989007 124.752186 
L 208.989007 124.63202 
L 209.264449 124.63202 
L 209.264449 124.511854 
L 209.539891 124.511854 
L 209.539891 123.790859 
L 210.366218 123.790859 
L 210.366218 122.589201 
L 210.64166 122.589201 
L 210.64166 122.228704 
L 211.192544 122.228704 
L 211.192544 122.108538 
L 211.467987 122.108538 
L 211.467987 121.988372 
L 212.018871 121.988372 
L 212.018871 121.868207 
L 212.845198 121.868207 
L 212.845198 121.748041 
L 213.12064 121.748041 
L 213.12064 121.627875 
L 213.396082 121.627875 
L 213.396082 121.507709 
L 213.671524 121.507709 
L 213.671524 121.387544 
L 213.946966 121.387544 
L 213.946966 121.267378 
L 214.222409 121.267378 
L 214.222409 120.90688 
L 214.497851 120.90688 
L 214.497851 120.786715 
L 214.773293 120.786715 
L 214.773293 120.666549 
L 215.048735 120.666549 
L 215.048735 120.546383 
L 215.324177 120.546383 
L 215.324177 119.705222 
L 215.59962 119.705222 
L 215.59962 119.224559 
L 216.150504 119.224559 
L 216.150504 119.104393 
L 216.425946 119.104393 
L 216.425946 118.743896 
L 216.976831 118.743896 
L 216.976831 118.383399 
L 217.252273 118.383399 
L 217.252273 117.902736 
L 217.527715 117.902736 
L 217.527715 117.78257 
L 217.803157 117.78257 
L 217.803157 117.662404 
L 218.354042 117.662404 
L 218.354042 117.542238 
L 218.629484 117.542238 
L 218.629484 117.301907 
L 218.904926 117.301907 
L 218.904926 116.941409 
L 219.180368 116.941409 
L 219.180368 116.460746 
L 219.45581 116.460746 
L 219.45581 116.34058 
L 219.731253 116.34058 
L 219.731253 116.100249 
L 220.557579 116.100249 
L 220.557579 115.980083 
L 220.833022 115.980083 
L 220.833022 115.49942 
L 221.108464 115.49942 
L 221.108464 115.379254 
L 221.383906 115.379254 
L 221.383906 115.018757 
L 222.485675 115.018757 
L 222.485675 114.898591 
L 223.036559 114.898591 
L 223.036559 114.177596 
L 223.862886 114.177596 
L 223.862886 113.696933 
L 224.41377 113.696933 
L 224.41377 113.576767 
L 224.964655 113.576767 
L 224.964655 113.21627 
L 225.240097 113.21627 
L 225.240097 112.975938 
L 225.515539 112.975938 
L 225.515539 112.735607 
L 225.790981 112.735607 
L 225.790981 112.615441 
L 226.066423 112.615441 
L 226.066423 112.254943 
L 226.341866 112.254943 
L 226.341866 112.134778 
L 227.168192 112.134778 
L 227.168192 111.654114 
L 227.443634 111.654114 
L 227.443634 111.533949 
L 227.719077 111.533949 
L 227.719077 111.293617 
L 227.994519 111.293617 
L 227.994519 111.053285 
L 228.269961 111.053285 
L 228.269961 110.692788 
L 229.096288 110.692788 
L 229.096288 110.452456 
L 229.647172 110.452456 
L 229.647172 110.332291 
L 229.922614 110.332291 
L 229.922614 110.212125 
L 230.198056 110.212125 
L 230.198056 109.851628 
L 230.473499 109.851628 
L 230.473499 109.731462 
L 231.024383 109.731462 
L 231.024383 109.130633 
L 231.575268 109.130633 
L 231.575268 109.010467 
L 232.126152 109.010467 
L 232.126152 108.890301 
L 232.677036 108.890301 
L 232.677036 108.770135 
L 232.952479 108.770135 
L 232.952479 108.169306 
L 233.227921 108.169306 
L 233.227921 108.049141 
L 233.503363 108.049141 
L 233.503363 107.928975 
L 233.778805 107.928975 
L 233.778805 107.20798 
L 234.605132 107.20798 
L 234.605132 107.087814 
L 234.880574 107.087814 
L 234.880574 106.967649 
L 235.156016 106.967649 
L 235.156016 106.847483 
L 236.257785 106.847483 
L 236.257785 106.607151 
L 236.533227 106.607151 
L 236.533227 106.486985 
L 236.808669 106.486985 
L 236.808669 106.36682 
L 237.359554 106.36682 
L 237.359554 106.246654 
L 238.18588 106.246654 
L 238.18588 105.765991 
L 238.461323 105.765991 
L 238.461323 105.525659 
L 238.736765 105.525659 
L 238.736765 105.405493 
L 239.287649 105.405493 
L 239.287649 105.285327 
L 239.563091 105.285327 
L 239.563091 104.92483 
L 240.389418 104.92483 
L 240.389418 104.684498 
L 240.66486 104.684498 
L 240.66486 104.444167 
L 240.940302 104.444167 
L 240.940302 104.08367 
L 241.215745 104.08367 
L 241.215745 103.843338 
L 241.491187 103.843338 
L 241.491187 103.723172 
L 241.766629 103.723172 
L 241.766629 103.482841 
L 242.592956 103.482841 
L 242.592956 103.002177 
L 242.868398 103.002177 
L 242.868398 102.882012 
L 243.419282 102.882012 
L 243.419282 102.761846 
L 243.694725 102.761846 
L 243.694725 102.64168 
L 243.970167 102.64168 
L 243.970167 102.281183 
L 244.245609 102.281183 
L 244.245609 102.040851 
L 244.521051 102.040851 
L 244.521051 101.680354 
L 245.347378 101.680354 
L 245.347378 101.440022 
L 245.62282 101.440022 
L 245.62282 101.199691 
L 246.173704 101.199691 
L 246.173704 99.757701 
L 246.724589 99.757701 
L 246.724589 99.277038 
L 247.000031 99.277038 
L 247.000031 99.156872 
L 247.826358 99.156872 
L 247.826358 99.036706 
L 248.652684 99.036706 
L 248.652684 98.676209 
L 249.479011 98.676209 
L 249.479011 98.195546 
L 249.754453 98.195546 
L 249.754453 97.714883 
L 250.58078 97.714883 
L 250.58078 97.594717 
L 251.407106 97.594717 
L 251.407106 97.474551 
L 251.957991 97.474551 
L 251.957991 97.354385 
L 252.233433 97.354385 
L 252.233433 96.63339 
L 252.508875 96.63339 
L 252.508875 96.272893 
L 252.784317 96.272893 
L 252.784317 95.79223 
L 253.059759 95.79223 
L 253.059759 95.672064 
L 253.610644 95.672064 
L 253.610644 95.431733 
L 253.886086 95.431733 
L 253.886086 94.951069 
L 254.161528 94.951069 
L 254.161528 94.830904 
L 254.436971 94.830904 
L 254.436971 94.710738 
L 254.712413 94.710738 
L 254.712413 94.109909 
L 255.814182 94.109909 
L 255.814182 93.989743 
L 256.089624 93.989743 
L 256.089624 93.629246 
L 256.365066 93.629246 
L 256.365066 93.148582 
L 256.640508 93.148582 
L 256.640508 92.908251 
L 257.466835 92.908251 
L 257.466835 92.788085 
L 258.017719 92.788085 
L 258.017719 92.547754 
L 258.293161 92.547754 
L 258.293161 92.187256 
L 258.844046 92.187256 
L 258.844046 91.826759 
L 259.119488 91.826759 
L 259.119488 91.706593 
L 259.39493 91.706593 
L 259.39493 91.346096 
L 259.945815 91.346096 
L 259.945815 90.985598 
L 261.047583 90.985598 
L 261.047583 90.865432 
L 261.323026 90.865432 
L 261.323026 90.625101 
L 261.87391 90.625101 
L 261.87391 90.504935 
L 262.149352 90.504935 
L 262.149352 90.384769 
L 262.424794 90.384769 
L 262.424794 90.144438 
L 262.975679 90.144438 
L 262.975679 89.423443 
L 263.251121 89.423443 
L 263.251121 89.062946 
L 263.526563 89.062946 
L 263.526563 88.582282 
L 264.077448 88.582282 
L 264.077448 88.221785 
L 264.35289 88.221785 
L 264.35289 87.861288 
L 264.903774 87.861288 
L 264.903774 87.620956 
L 265.179217 87.620956 
L 265.179217 86.899961 
L 265.454659 86.899961 
L 265.454659 86.65963 
L 265.730101 86.65963 
L 265.730101 85.818469 
L 266.005543 85.818469 
L 266.005543 85.578138 
L 266.83187 85.578138 
L 266.83187 85.337806 
L 267.382754 85.337806 
L 267.382754 84.736977 
L 268.484523 84.736977 
L 268.484523 84.256314 
L 269.31085 84.256314 
L 269.31085 84.136148 
L 269.861734 84.136148 
L 269.861734 83.535319 
L 270.688061 83.535319 
L 270.688061 82.93449 
L 270.963503 82.93449 
L 270.963503 82.814324 
L 271.238945 82.814324 
L 271.238945 81.973164 
L 271.789829 81.973164 
L 271.789829 81.732832 
L 272.065272 81.732832 
L 272.065272 81.132003 
L 272.340714 81.132003 
L 272.340714 80.411009 
L 272.616156 80.411009 
L 272.616156 80.050511 
L 272.891598 80.050511 
L 272.891598 79.930345 
L 273.442483 79.930345 
L 273.442483 79.690014 
L 273.717925 79.690014 
L 273.717925 79.449682 
L 273.993367 79.449682 
L 273.993367 79.209351 
L 274.819694 79.209351 
L 274.819694 79.089185 
L 275.095136 79.089185 
L 275.095136 78.728687 
L 275.370578 78.728687 
L 275.370578 78.608522 
L 275.64602 78.608522 
L 275.64602 78.488356 
L 275.921462 78.488356 
L 275.921462 78.36819 
L 276.196905 78.36819 
L 276.196905 77.767361 
L 277.298674 77.767361 
L 277.298674 77.52703 
L 277.574116 77.52703 
L 277.574116 77.166532 
L 277.849558 77.166532 
L 277.849558 77.046366 
L 278.400442 77.046366 
L 278.400442 76.806035 
L 279.226769 76.806035 
L 279.226769 76.325372 
L 279.502211 76.325372 
L 279.502211 75.844708 
L 279.777653 75.844708 
L 279.777653 75.724543 
L 280.053096 75.724543 
L 280.053096 75.604377 
L 280.328538 75.604377 
L 280.328538 75.364045 
L 280.60398 75.364045 
L 280.60398 74.883382 
L 281.154864 74.883382 
L 281.154864 74.402719 
L 281.430307 74.402719 
L 281.430307 74.042222 
L 281.705749 74.042222 
L 281.705749 73.80189 
L 281.981191 73.80189 
L 281.981191 73.561558 
L 282.256633 73.561558 
L 282.256633 73.441393 
L 282.532075 73.441393 
L 282.532075 73.201061 
L 282.807518 73.201061 
L 282.807518 73.080895 
L 284.460171 73.080895 
L 284.460171 72.960729 
L 284.735613 72.960729 
L 284.735613 72.720398 
L 285.011055 72.720398 
L 285.011055 72.600232 
L 285.286497 72.600232 
L 285.286497 72.239735 
L 285.56194 72.239735 
L 285.56194 71.879237 
L 286.388266 71.879237 
L 286.388266 71.759072 
L 286.939151 71.759072 
L 286.939151 71.278408 
L 287.214593 71.278408 
L 287.214593 71.038077 
L 287.490035 71.038077 
L 287.490035 70.917911 
L 288.316362 70.917911 
L 288.316362 70.557414 
L 288.591804 70.557414 
L 288.591804 70.437248 
L 288.867246 70.437248 
L 288.867246 69.956585 
L 289.142688 69.956585 
L 289.142688 69.836419 
L 289.418131 69.836419 
L 289.418131 69.716253 
L 289.693573 69.716253 
L 289.693573 69.355756 
L 289.969015 69.355756 
L 289.969015 68.875093 
L 290.795342 68.875093 
L 290.795342 68.634761 
L 291.621668 68.634761 
L 291.621668 68.154098 
L 291.89711 68.154098 
L 291.89711 67.7936 
L 292.172553 67.7936 
L 292.172553 67.673435 
L 292.447995 67.673435 
L 292.447995 67.553269 
L 292.723437 67.553269 
L 292.723437 67.312937 
L 292.998879 67.312937 
L 292.998879 67.072606 
L 293.274321 67.072606 
L 293.274321 66.712108 
L 293.549764 66.712108 
L 293.549764 65.51045 
L 294.37609 65.51045 
L 294.37609 65.029787 
L 294.926975 65.029787 
L 294.926975 64.549124 
L 295.477859 64.549124 
L 295.477859 64.308792 
L 296.028743 64.308792 
L 296.028743 63.948295 
L 296.85507 63.948295 
L 296.85507 63.467632 
L 297.130512 63.467632 
L 297.130512 63.347466 
L 297.681397 63.347466 
L 297.681397 62.986969 
L 298.232281 62.986969 
L 298.232281 62.866803 
L 298.507723 62.866803 
L 298.507723 62.38614 
L 299.33405 62.38614 
L 299.33405 62.145808 
L 299.609492 62.145808 
L 299.609492 61.424813 
L 299.884934 61.424813 
L 299.884934 61.304648 
L 300.160377 61.304648 
L 300.160377 61.184482 
L 300.435819 61.184482 
L 300.435819 60.583653 
L 300.986703 60.583653 
L 300.986703 60.463487 
L 301.262145 60.463487 
L 301.262145 59.742492 
L 302.088472 59.742492 
L 302.088472 59.622327 
L 302.363914 59.622327 
L 302.363914 59.381995 
L 302.914799 59.381995 
L 302.914799 59.021498 
L 303.741125 59.021498 
L 303.741125 58.901332 
L 304.016567 58.901332 
L 304.016567 58.781166 
L 304.842894 58.781166 
L 304.842894 58.661 
L 305.393778 58.661 
L 305.393778 58.300503 
L 305.669221 58.300503 
L 305.669221 57.940006 
L 305.944663 57.940006 
L 305.944663 57.339177 
L 306.220105 57.339177 
L 306.220105 56.978679 
L 306.495547 56.978679 
L 306.495547 56.618182 
L 306.770989 56.618182 
L 306.770989 56.37785 
L 307.046432 56.37785 
L 307.046432 56.257684 
L 307.872758 56.257684 
L 307.872758 56.137519 
L 308.1482 56.137519 
L 308.1482 56.017353 
L 308.423643 56.017353 
L 308.423643 55.897187 
L 309.249969 55.897187 
L 309.249969 55.416524 
L 309.525411 55.416524 
L 309.525411 55.296358 
L 309.800854 55.296358 
L 309.800854 54.935861 
L 310.351738 54.935861 
L 310.351738 54.815695 
L 310.902623 54.815695 
L 310.902623 54.335032 
L 311.178065 54.335032 
L 311.178065 53.974534 
L 311.453507 53.974534 
L 311.453507 53.854369 
L 311.728949 53.854369 
L 311.728949 53.25354 
L 312.004391 53.25354 
L 312.004391 52.893042 
L 312.279834 52.893042 
L 312.279834 52.772876 
L 312.830718 52.772876 
L 312.830718 52.652711 
L 313.381602 52.652711 
L 313.381602 52.532545 
L 313.657045 52.532545 
L 313.657045 52.412379 
L 313.932487 52.412379 
L 313.932487 52.051882 
L 314.207929 52.051882 
L 314.207929 51.81155 
L 314.483371 51.81155 
L 314.483371 51.691384 
L 315.034256 51.691384 
L 315.034256 51.330887 
L 315.58514 51.330887 
L 315.58514 51.090555 
L 315.860582 51.090555 
L 315.860582 50.369561 
L 316.136024 50.369561 
L 316.136024 50.009063 
L 316.411467 50.009063 
L 316.411467 49.888897 
L 316.686909 49.888897 
L 316.686909 49.5284 
L 317.237793 49.5284 
L 317.237793 49.408234 
L 317.513235 49.408234 
L 317.513235 49.047737 
L 317.788678 49.047737 
L 317.788678 48.927571 
L 318.06412 48.927571 
L 318.06412 48.567074 
L 318.615004 48.567074 
L 318.615004 48.446908 
L 318.890446 48.446908 
L 318.890446 47.846079 
L 319.992215 47.846079 
L 319.992215 47.605747 
L 320.267657 47.605747 
L 320.267657 47.365416 
L 320.5431 47.365416 
L 320.5431 47.125084 
L 320.818542 47.125084 
L 320.818542 46.163758 
L 321.644868 46.163758 
L 321.644868 45.803261 
L 321.920311 45.803261 
L 321.920311 45.683095 
L 323.297522 45.683095 
L 323.297522 45.562929 
L 323.572964 45.562929 
L 323.572964 45.202432 
L 324.123848 45.202432 
L 324.123848 44.9621 
L 324.674733 44.9621 
L 324.674733 44.481437 
L 324.950175 44.481437 
L 324.950175 44.361271 
L 325.501059 44.361271 
L 325.501059 44.120939 
L 326.87827 44.120939 
L 326.87827 43.880608 
L 327.153713 43.880608 
L 327.153713 43.279779 
L 327.429155 43.279779 
L 327.429155 42.67895 
L 327.704597 42.67895 
L 327.704597 42.318453 
L 327.980039 42.318453 
L 327.980039 42.198287 
L 328.255481 42.198287 
L 328.255481 41.957955 
L 329.632692 41.957955 
L 329.632692 41.597458 
L 329.908135 41.597458 
L 329.908135 41.477292 
L 330.459019 41.477292 
L 330.459019 41.116795 
L 330.734461 41.116795 
L 330.734461 40.876463 
L 331.560788 40.876463 
L 331.560788 40.275634 
L 331.83623 40.275634 
L 331.83623 40.035303 
L 332.387114 40.035303 
L 332.387114 39.915137 
L 333.213441 39.915137 
L 333.213441 38.833645 
L 334.039768 38.833645 
L 334.039768 38.713479 
L 334.31521 38.713479 
L 334.31521 38.593313 
L 334.866094 38.593313 
L 334.866094 38.232816 
L 335.141537 38.232816 
L 335.141537 37.031158 
L 335.416979 37.031158 
L 335.416979 36.67066 
L 335.967863 36.67066 
L 335.967863 36.550495 
L 336.243305 36.550495 
L 336.243305 36.430329 
L 336.518748 36.430329 
L 336.518748 36.189997 
L 337.345074 36.189997 
L 337.345074 36.069831 
L 338.171401 36.069831 
L 338.171401 35.949666 
L 338.446843 35.949666 
L 338.446843 35.8295 
L 339.27317 35.8295 
L 339.27317 35.709334 
L 339.548612 35.709334 
L 339.548612 34.868174 
L 339.824054 34.868174 
L 339.824054 34.748008 
L 340.099496 34.748008 
L 340.099496 33.666516 
L 340.374938 33.666516 
L 340.374938 33.54635 
L 340.650381 33.54635 
L 340.650381 33.426184 
L 341.752149 33.426184 
L 341.752149 33.185852 
L 342.027592 33.185852 
L 342.027592 33.065687 
L 342.853918 33.065687 
L 342.853918 32.224526 
L 343.404803 32.224526 
L 343.404803 31.984195 
L 343.680245 31.984195 
L 343.680245 31.864029 
L 343.955687 31.864029 
L 343.955687 31.623697 
L 344.231129 31.623697 
L 344.231129 31.503531 
L 344.506571 31.503531 
L 344.506571 31.2632 
L 344.782014 31.2632 
L 344.782014 31.143034 
L 346.159225 31.143034 
L 346.159225 30.542205 
L 346.434667 30.542205 
L 346.434667 30.422039 
L 346.985551 30.422039 
L 346.985551 30.181708 
L 347.260994 30.181708 
L 347.260994 29.460713 
L 347.536436 29.460713 
L 347.536436 29.340547 
L 348.08732 29.340547 
L 348.08732 28.739718 
L 348.638205 28.739718 
L 348.638205 28.259055 
L 349.189089 28.259055 
L 349.189089 28.138889 
L 349.464531 28.138889 
L 349.464531 28.018723 
L 349.739973 28.018723 
L 349.739973 27.778392 
L 350.015416 27.778392 
L 350.015416 27.658226 
L 350.841742 27.658226 
L 350.841742 27.417894 
L 351.668069 27.417894 
L 351.668069 26.817065 
L 352.218953 26.817065 
L 352.218953 26.6969 
L 352.494395 26.6969 
L 352.494395 26.216237 
L 353.320722 26.216237 
L 353.320722 25.495242 
L 353.596164 25.495242 
L 353.596164 25.375076 
L 353.871606 25.375076 
L 353.871606 25.014579 
L 354.147049 25.014579 
L 354.147049 24.894413 
L 354.422491 24.894413 
L 354.422491 24.774247 
L 354.697933 24.774247 
L 354.697933 24.533915 
L 355.799702 24.533915 
L 355.799702 24.41375 
L 356.075144 24.41375 
L 356.075144 24.293584 
L 356.350586 24.293584 
L 356.350586 24.173418 
L 357.452355 24.173418 
L 357.452355 23.812921 
L 357.727797 23.812921 
L 357.727797 23.452423 
L 358.554124 23.452423 
L 358.554124 22.97176 
L 358.829566 22.97176 
L 358.829566 22.731429 
L 359.105008 22.731429 
L 359.105008 22.491097 
L 359.655893 22.491097 
L 359.655893 22.250765 
L 359.931335 22.250765 
L 359.931335 22.1306 
L 360.757662 22.1306 
L 360.757662 21.890268 
L 361.033104 21.890268 
L 361.033104 21.649936 
L 361.308546 21.649936 
L 361.308546 21.529771 
L 362.134873 21.529771 
L 362.134873 21.169273 
L 362.410315 21.169273 
L 362.410315 21.049107 
L 362.685757 21.049107 
L 362.685757 20.68861 
L 362.961199 20.68861 
L 362.961199 20.568444 
L 363.236641 20.568444 
L 363.236641 20.207947 
L 363.512084 20.207947 
L 363.512084 19.967615 
L 363.787526 19.967615 
L 363.787526 19.126455 
L 364.062968 19.126455 
L 364.062968 19.006289 
L 364.33841 19.006289 
L 364.33841 18.525626 
L 364.613852 18.525626 
L 364.613852 18.165128 
L 364.889295 18.165128 
L 364.889295 18.044963 
L 365.440179 18.044963 
L 365.440179 17.444134 
L 365.991063 17.444134 
L 365.991063 17.203802 
L 366.266506 17.203802 
L 366.266506 17.083636 
L 366.266506 17.083636 
" clip-path="url(#pe13e7aa29b)" style="fill: none; stroke: #ff7f0e; stroke-width: 1.5; stroke-linecap: square"/>
   </g>
   <g id="patch_3">
    <path d="M 46.684688 224.64 
L 46.684688 7.2 
" style="fill: none; stroke: #000000; stroke-width: 0.8; stroke-linejoin: miter; stroke-linecap: square"/>
   </g>
   <g id="patch_4">
    <path d="M 381.484688 224.64 
L 381.484688 7.2 
" style="fill: none; stroke: #000000; stroke-width: 0.8; stroke-linejoin: miter; stroke-linecap: square"/>
   </g>
   <g id="patch_5">
    <path d="M 46.684688 224.64 
L 381.484688 224.64 
" style="fill: none; stroke: #000000; stroke-width: 0.8; stroke-linejoin: miter; stroke-linecap: square"/>
   </g>
   <g id="patch_6">
    <path d="M 46.684688 7.2 
L 381.484688 7.2 
" style="fill: none; stroke: #000000; stroke-width: 0.8; stroke-linejoin: miter; stroke-linecap: square"/>
   </g>
   <g id="legend_1">
    <g id="patch_7">
     <path d="M 180.488438 218.14 
L 372.384688 218.14 
Q 374.984688 218.14 374.984688 215.54 
L 374.984688 178.676875 
Q 374.984688 176.076875 372.384688 176.076875 
L 180.488438 176.076875 
Q 177.888438 176.076875 177.888438 178.676875 
L 177.888438 215.54 
Q 177.888438 218.14 180.488438 218.14 
z
" style="fill: #ffffff; opacity: 0.8; stroke: #cccccc; stroke-linejoin: miter"/>
    </g>
    <g id="line2d_15">
     <path d="M 183.088437 186.604844 
L 196.088437 186.604844 
L 209.088437 186.604844 
" style="fill: none; stroke: #1f77b4; stroke-width: 1.5; stroke-linecap: square"/>
    </g>
    <g id="text_15">
     <!-- RotInvVAE, auc= 0.911 -->
     <g transform="translate(219.488438 191.154844) scale(0.13 -0.13)">
      <defs>
       <path id="DejaVuSans-49" d="M 628 4666 
L 1259 4666 
L 1259 0 
L 628 0 
L 628 4666 
z
" transform="scale(0.015625)"/>
       <path id="DejaVuSans-6e" d="M 3513 2113 
L 3513 0 
L 2938 0 
L 2938 2094 
Q 2938 2591 2744 2837 
Q 2550 3084 2163 3084 
Q 1697 3084 1428 2787 
Q 1159 2491 1159 1978 
L 1159 0 
L 581 0 
L 581 3500 
L 1159 3500 
L 1159 2956 
Q 1366 3272 1645 3428 
Q 1925 3584 2291 3584 
Q 2894 3584 3203 3211 
Q 3513 2838 3513 2113 
z
" transform="scale(0.015625)"/>
       <path id="DejaVuSans-56" d="M 1831 0 
L 50 4666 
L 709 4666 
L 2188 738 
L 3669 4666 
L 4325 4666 
L 2547 0 
L 1831 0 
z
" transform="scale(0.015625)"/>
       <path id="DejaVuSans-41" d="M 2188 4044 
L 1331 1722 
L 3047 1722 
L 2188 4044 
z
M 1831 4666 
L 2547 4666 
L 4325 0 
L 3669 0 
L 3244 1197 
L 1141 1197 
L 716 0 
L 50 0 
L 1831 4666 
z
" transform="scale(0.015625)"/>
       <path id="DejaVuSans-45" d="M 628 4666 
L 3578 4666 
L 3578 4134 
L 1259 4134 
L 1259 2753 
L 3481 2753 
L 3481 2222 
L 1259 2222 
L 1259 531 
L 3634 531 
L 3634 0 
L 628 0 
L 628 4666 
z
" transform="scale(0.015625)"/>
       <path id="DejaVuSans-2c" d="M 750 794 
L 1409 794 
L 1409 256 
L 897 -744 
L 494 -744 
L 750 256 
L 750 794 
z
" transform="scale(0.015625)"/>
       <path id="DejaVuSans-63" d="M 3122 3366 
L 3122 2828 
Q 2878 2963 2633 3030 
Q 2388 3097 2138 3097 
Q 1578 3097 1268 2742 
Q 959 2388 959 1747 
Q 959 1106 1268 751 
Q 1578 397 2138 397 
Q 2388 397 2633 464 
Q 2878 531 3122 666 
L 3122 134 
Q 2881 22 2623 -34 
Q 2366 -91 2075 -91 
Q 1284 -91 818 406 
Q 353 903 353 1747 
Q 353 2603 823 3093 
Q 1294 3584 2113 3584 
Q 2378 3584 2631 3529 
Q 2884 3475 3122 3366 
z
" transform="scale(0.015625)"/>
       <path id="DejaVuSans-3d" d="M 678 2906 
L 4684 2906 
L 4684 2381 
L 678 2381 
L 678 2906 
z
M 678 1631 
L 4684 1631 
L 4684 1100 
L 678 1100 
L 678 1631 
z
" transform="scale(0.015625)"/>
       <path id="DejaVuSans-39" d="M 703 97 
L 703 672 
Q 941 559 1184 500 
Q 1428 441 1663 441 
Q 2288 441 2617 861 
Q 2947 1281 2994 2138 
Q 2813 1869 2534 1725 
Q 2256 1581 1919 1581 
Q 1219 1581 811 2004 
Q 403 2428 403 3163 
Q 403 3881 828 4315 
Q 1253 4750 1959 4750 
Q 2769 4750 3195 4129 
Q 3622 3509 3622 2328 
Q 3622 1225 3098 567 
Q 2575 -91 1691 -91 
Q 1453 -91 1209 -44 
Q 966 3 703 97 
z
M 1959 2075 
Q 2384 2075 2632 2365 
Q 2881 2656 2881 3163 
Q 2881 3666 2632 3958 
Q 2384 4250 1959 4250 
Q 1534 4250 1286 3958 
Q 1038 3666 1038 3163 
Q 1038 2656 1286 2365 
Q 1534 2075 1959 2075 
z
" transform="scale(0.015625)"/>
      </defs>
      <use xlink:href="#DejaVuSans-52"/>
      <use xlink:href="#DejaVuSans-6f" x="64.982422"/>
      <use xlink:href="#DejaVuSans-74" x="126.164062"/>
      <use xlink:href="#DejaVuSans-49" x="165.373047"/>
      <use xlink:href="#DejaVuSans-6e" x="194.865234"/>
      <use xlink:href="#DejaVuSans-76" x="258.244141"/>
      <use xlink:href="#DejaVuSans-56" x="317.423828"/>
      <use xlink:href="#DejaVuSans-41" x="379.457031"/>
      <use xlink:href="#DejaVuSans-45" x="447.865234"/>
      <use xlink:href="#DejaVuSans-2c" x="511.048828"/>
      <use xlink:href="#DejaVuSans-20" x="542.835938"/>
      <use xlink:href="#DejaVuSans-61" x="574.623047"/>
      <use xlink:href="#DejaVuSans-75" x="635.902344"/>
      <use xlink:href="#DejaVuSans-63" x="699.28125"/>
      <use xlink:href="#DejaVuSans-3d" x="754.261719"/>
      <use xlink:href="#DejaVuSans-20" x="838.050781"/>
      <use xlink:href="#DejaVuSans-30" x="869.837891"/>
      <use xlink:href="#DejaVuSans-2e" x="933.460938"/>
      <use xlink:href="#DejaVuSans-39" x="965.248047"/>
      <use xlink:href="#DejaVuSans-31" x="1028.871094"/>
      <use xlink:href="#DejaVuSans-31" x="1092.494141"/>
     </g>
    </g>
    <g id="line2d_16">
     <path d="M 183.088437 205.686406 
L 196.088437 205.686406 
L 209.088437 205.686406 
" style="fill: none; stroke: #ff7f0e; stroke-width: 1.5; stroke-linecap: square"/>
    </g>
    <g id="text_16">
     <!-- VAE, auc= 0.491 -->
     <g transform="translate(219.488438 210.236406) scale(0.13 -0.13)">
      <use xlink:href="#DejaVuSans-56"/>
      <use xlink:href="#DejaVuSans-41" x="62.033203"/>
      <use xlink:href="#DejaVuSans-45" x="130.441406"/>
      <use xlink:href="#DejaVuSans-2c" x="193.625"/>
      <use xlink:href="#DejaVuSans-20" x="225.412109"/>
      <use xlink:href="#DejaVuSans-61" x="257.199219"/>
      <use xlink:href="#DejaVuSans-75" x="318.478516"/>
      <use xlink:href="#DejaVuSans-63" x="381.857422"/>
      <use xlink:href="#DejaVuSans-3d" x="436.837891"/>
      <use xlink:href="#DejaVuSans-20" x="520.626953"/>
      <use xlink:href="#DejaVuSans-30" x="552.414062"/>
      <use xlink:href="#DejaVuSans-2e" x="616.037109"/>
      <use xlink:href="#DejaVuSans-34" x="647.824219"/>
      <use xlink:href="#DejaVuSans-39" x="711.447266"/>
      <use xlink:href="#DejaVuSans-31" x="775.070312"/>
     </g>
    </g>
   </g>
  </g>
 </g>
 <defs>
  <clipPath id="pe13e7aa29b">
   <rect x="46.684688" y="7.2" width="334.8" height="217.44"/>
  </clipPath>
 </defs>
</svg>
