<?xml version="1.0" encoding="utf-8" standalone="no"?>
<!DOCTYPE svg PUBLIC "-//W3C//DTD SVG 1.1//EN"
  "http://www.w3.org/Graphics/SVG/1.1/DTD/svg11.dtd">
<svg xmlns:xlink="http://www.w3.org/1999/xlink" width="388.684687pt" height="265.099687pt" viewBox="0 0 388.684687 265.099687" xmlns="http://www.w3.org/2000/svg" version="1.1">
 <metadata>
  <rdf:RDF xmlns:dc="http://purl.org/dc/elements/1.1/" xmlns:cc="http://creativecommons.org/ns#" xmlns:rdf="http://www.w3.org/1999/02/22-rdf-syntax-ns#">
   <cc:Work>
    <dc:type rdf:resource="http://purl.org/dc/dcmitype/StillImage"/>
    <dc:date>2023-02-01T23:00:24.248218</dc:date>
    <dc:format>image/svg+xml</dc:format>
    <dc:creator>
     <cc:Agent>
      <dc:title>Matplotlib v3.6.3, https://matplotlib.org/</dc:title>
     </cc:Agent>
    </dc:creator>
   </cc:Work>
  </rdf:RDF>
 </metadata>
 <defs>
  <style type="text/css">*{stroke-linejoin: round; stroke-linecap: butt}</style>
 </defs>
 <g id="figure_1">
  <g id="patch_1">
   <path d="M 0 265.099687 
L 388.684687 265.099687 
L 388.684687 0 
L 0 0 
L 0 265.099687 
z
" style="fill: none"/>
  </g>
  <g id="axes_1">
   <g id="patch_2">
    <path d="M 46.684688 224.64 
L 381.484688 224.64 
L 381.484688 7.2 
L 46.684688 7.2 
z
" style="fill: #ffffff"/>
   </g>
   <g id="matplotlib.axis_1">
    <g id="xtick_1">
     <g id="line2d_1">
      <defs>
       <path id="mbdbd3e4406" d="M 0 0 
L 0 3.5 
" style="stroke: #000000; stroke-width: 0.8"/>
      </defs>
      <g>
       <use xlink:href="#mbdbd3e4406" x="61.902869" y="224.64" style="stroke: #000000; stroke-width: 0.8"/>
      </g>
     </g>
     <g id="text_1">
      <!-- 0.0 -->
      <g transform="translate(53.951307 239.238437) scale(0.1 -0.1)">
       <defs>
        <path id="DejaVuSans-30" d="M 2034 4250 
Q 1547 4250 1301 3770 
Q 1056 3291 1056 2328 
Q 1056 1369 1301 889 
Q 1547 409 2034 409 
Q 2525 409 2770 889 
Q 3016 1369 3016 2328 
Q 3016 3291 2770 3770 
Q 2525 4250 2034 4250 
z
M 2034 4750 
Q 2819 4750 3233 4129 
Q 3647 3509 3647 2328 
Q 3647 1150 3233 529 
Q 2819 -91 2034 -91 
Q 1250 -91 836 529 
Q 422 1150 422 2328 
Q 422 3509 836 4129 
Q 1250 4750 2034 4750 
z
" transform="scale(0.015625)"/>
        <path id="DejaVuSans-2e" d="M 684 794 
L 1344 794 
L 1344 0 
L 684 0 
L 684 794 
z
" transform="scale(0.015625)"/>
       </defs>
       <use xlink:href="#DejaVuSans-30"/>
       <use xlink:href="#DejaVuSans-2e" x="63.623047"/>
       <use xlink:href="#DejaVuSans-30" x="95.410156"/>
      </g>
     </g>
    </g>
    <g id="xtick_2">
     <g id="line2d_2">
      <g>
       <use xlink:href="#mbdbd3e4406" x="122.775597" y="224.64" style="stroke: #000000; stroke-width: 0.8"/>
      </g>
     </g>
     <g id="text_2">
      <!-- 0.2 -->
      <g transform="translate(114.824034 239.238437) scale(0.1 -0.1)">
       <defs>
        <path id="DejaVuSans-32" d="M 1228 531 
L 3431 531 
L 3431 0 
L 469 0 
L 469 531 
Q 828 903 1448 1529 
Q 2069 2156 2228 2338 
Q 2531 2678 2651 2914 
Q 2772 3150 2772 3378 
Q 2772 3750 2511 3984 
Q 2250 4219 1831 4219 
Q 1534 4219 1204 4116 
Q 875 4013 500 3803 
L 500 4441 
Q 881 4594 1212 4672 
Q 1544 4750 1819 4750 
Q 2544 4750 2975 4387 
Q 3406 4025 3406 3419 
Q 3406 3131 3298 2873 
Q 3191 2616 2906 2266 
Q 2828 2175 2409 1742 
Q 1991 1309 1228 531 
z
" transform="scale(0.015625)"/>
       </defs>
       <use xlink:href="#DejaVuSans-30"/>
       <use xlink:href="#DejaVuSans-2e" x="63.623047"/>
       <use xlink:href="#DejaVuSans-32" x="95.410156"/>
      </g>
     </g>
    </g>
    <g id="xtick_3">
     <g id="line2d_3">
      <g>
       <use xlink:href="#mbdbd3e4406" x="183.648324" y="224.64" style="stroke: #000000; stroke-width: 0.8"/>
      </g>
     </g>
     <g id="text_3">
      <!-- 0.4 -->
      <g transform="translate(175.696761 239.238437) scale(0.1 -0.1)">
       <defs>
        <path id="DejaVuSans-34" d="M 2419 4116 
L 825 1625 
L 2419 1625 
L 2419 4116 
z
M 2253 4666 
L 3047 4666 
L 3047 1625 
L 3713 1625 
L 3713 1100 
L 3047 1100 
L 3047 0 
L 2419 0 
L 2419 1100 
L 313 1100 
L 313 1709 
L 2253 4666 
z
" transform="scale(0.015625)"/>
       </defs>
       <use xlink:href="#DejaVuSans-30"/>
       <use xlink:href="#DejaVuSans-2e" x="63.623047"/>
       <use xlink:href="#DejaVuSans-34" x="95.410156"/>
      </g>
     </g>
    </g>
    <g id="xtick_4">
     <g id="line2d_4">
      <g>
       <use xlink:href="#mbdbd3e4406" x="244.521051" y="224.64" style="stroke: #000000; stroke-width: 0.8"/>
      </g>
     </g>
     <g id="text_4">
      <!-- 0.6 -->
      <g transform="translate(236.569489 239.238437) scale(0.1 -0.1)">
       <defs>
        <path id="DejaVuSans-36" d="M 2113 2584 
Q 1688 2584 1439 2293 
Q 1191 2003 1191 1497 
Q 1191 994 1439 701 
Q 1688 409 2113 409 
Q 2538 409 2786 701 
Q 3034 994 3034 1497 
Q 3034 2003 2786 2293 
Q 2538 2584 2113 2584 
z
M 3366 4563 
L 3366 3988 
Q 3128 4100 2886 4159 
Q 2644 4219 2406 4219 
Q 1781 4219 1451 3797 
Q 1122 3375 1075 2522 
Q 1259 2794 1537 2939 
Q 1816 3084 2150 3084 
Q 2853 3084 3261 2657 
Q 3669 2231 3669 1497 
Q 3669 778 3244 343 
Q 2819 -91 2113 -91 
Q 1303 -91 875 529 
Q 447 1150 447 2328 
Q 447 3434 972 4092 
Q 1497 4750 2381 4750 
Q 2619 4750 2861 4703 
Q 3103 4656 3366 4563 
z
" transform="scale(0.015625)"/>
       </defs>
       <use xlink:href="#DejaVuSans-30"/>
       <use xlink:href="#DejaVuSans-2e" x="63.623047"/>
       <use xlink:href="#DejaVuSans-36" x="95.410156"/>
      </g>
     </g>
    </g>
    <g id="xtick_5">
     <g id="line2d_5">
      <g>
       <use xlink:href="#mbdbd3e4406" x="305.393778" y="224.64" style="stroke: #000000; stroke-width: 0.8"/>
      </g>
     </g>
     <g id="text_5">
      <!-- 0.8 -->
      <g transform="translate(297.442216 239.238437) scale(0.1 -0.1)">
       <defs>
        <path id="DejaVuSans-38" d="M 2034 2216 
Q 1584 2216 1326 1975 
Q 1069 1734 1069 1313 
Q 1069 891 1326 650 
Q 1584 409 2034 409 
Q 2484 409 2743 651 
Q 3003 894 3003 1313 
Q 3003 1734 2745 1975 
Q 2488 2216 2034 2216 
z
M 1403 2484 
Q 997 2584 770 2862 
Q 544 3141 544 3541 
Q 544 4100 942 4425 
Q 1341 4750 2034 4750 
Q 2731 4750 3128 4425 
Q 3525 4100 3525 3541 
Q 3525 3141 3298 2862 
Q 3072 2584 2669 2484 
Q 3125 2378 3379 2068 
Q 3634 1759 3634 1313 
Q 3634 634 3220 271 
Q 2806 -91 2034 -91 
Q 1263 -91 848 271 
Q 434 634 434 1313 
Q 434 1759 690 2068 
Q 947 2378 1403 2484 
z
M 1172 3481 
Q 1172 3119 1398 2916 
Q 1625 2713 2034 2713 
Q 2441 2713 2670 2916 
Q 2900 3119 2900 3481 
Q 2900 3844 2670 4047 
Q 2441 4250 2034 4250 
Q 1625 4250 1398 4047 
Q 1172 3844 1172 3481 
z
" transform="scale(0.015625)"/>
       </defs>
       <use xlink:href="#DejaVuSans-30"/>
       <use xlink:href="#DejaVuSans-2e" x="63.623047"/>
       <use xlink:href="#DejaVuSans-38" x="95.410156"/>
      </g>
     </g>
    </g>
    <g id="xtick_6">
     <g id="line2d_6">
      <g>
       <use xlink:href="#mbdbd3e4406" x="366.266506" y="224.64" style="stroke: #000000; stroke-width: 0.8"/>
      </g>
     </g>
     <g id="text_6">
      <!-- 1.0 -->
      <g transform="translate(358.314943 239.238437) scale(0.1 -0.1)">
       <defs>
        <path id="DejaVuSans-31" d="M 794 531 
L 1825 531 
L 1825 4091 
L 703 3866 
L 703 4441 
L 1819 4666 
L 2450 4666 
L 2450 531 
L 3481 531 
L 3481 0 
L 794 0 
L 794 531 
z
" transform="scale(0.015625)"/>
       </defs>
       <use xlink:href="#DejaVuSans-31"/>
       <use xlink:href="#DejaVuSans-2e" x="63.623047"/>
       <use xlink:href="#DejaVuSans-30" x="95.410156"/>
      </g>
     </g>
    </g>
    <g id="text_7">
     <!-- False Positive Rate -->
     <g transform="translate(153.678359 255.196094) scale(0.13 -0.13)">
      <defs>
       <path id="DejaVuSans-46" d="M 628 4666 
L 3309 4666 
L 3309 4134 
L 1259 4134 
L 1259 2759 
L 3109 2759 
L 3109 2228 
L 1259 2228 
L 1259 0 
L 628 0 
L 628 4666 
z
" transform="scale(0.015625)"/>
       <path id="DejaVuSans-61" d="M 2194 1759 
Q 1497 1759 1228 1600 
Q 959 1441 959 1056 
Q 959 750 1161 570 
Q 1363 391 1709 391 
Q 2188 391 2477 730 
Q 2766 1069 2766 1631 
L 2766 1759 
L 2194 1759 
z
M 3341 1997 
L 3341 0 
L 2766 0 
L 2766 531 
Q 2569 213 2275 61 
Q 1981 -91 1556 -91 
Q 1019 -91 701 211 
Q 384 513 384 1019 
Q 384 1609 779 1909 
Q 1175 2209 1959 2209 
L 2766 2209 
L 2766 2266 
Q 2766 2663 2505 2880 
Q 2244 3097 1772 3097 
Q 1472 3097 1187 3025 
Q 903 2953 641 2809 
L 641 3341 
Q 956 3463 1253 3523 
Q 1550 3584 1831 3584 
Q 2591 3584 2966 3190 
Q 3341 2797 3341 1997 
z
" transform="scale(0.015625)"/>
       <path id="DejaVuSans-6c" d="M 603 4863 
L 1178 4863 
L 1178 0 
L 603 0 
L 603 4863 
z
" transform="scale(0.015625)"/>
       <path id="DejaVuSans-73" d="M 2834 3397 
L 2834 2853 
Q 2591 2978 2328 3040 
Q 2066 3103 1784 3103 
Q 1356 3103 1142 2972 
Q 928 2841 928 2578 
Q 928 2378 1081 2264 
Q 1234 2150 1697 2047 
L 1894 2003 
Q 2506 1872 2764 1633 
Q 3022 1394 3022 966 
Q 3022 478 2636 193 
Q 2250 -91 1575 -91 
Q 1294 -91 989 -36 
Q 684 19 347 128 
L 347 722 
Q 666 556 975 473 
Q 1284 391 1588 391 
Q 1994 391 2212 530 
Q 2431 669 2431 922 
Q 2431 1156 2273 1281 
Q 2116 1406 1581 1522 
L 1381 1569 
Q 847 1681 609 1914 
Q 372 2147 372 2553 
Q 372 3047 722 3315 
Q 1072 3584 1716 3584 
Q 2034 3584 2315 3537 
Q 2597 3491 2834 3397 
z
" transform="scale(0.015625)"/>
       <path id="DejaVuSans-65" d="M 3597 1894 
L 3597 1613 
L 953 1613 
Q 991 1019 1311 708 
Q 1631 397 2203 397 
Q 2534 397 2845 478 
Q 3156 559 3463 722 
L 3463 178 
Q 3153 47 2828 -22 
Q 2503 -91 2169 -91 
Q 1331 -91 842 396 
Q 353 884 353 1716 
Q 353 2575 817 3079 
Q 1281 3584 2069 3584 
Q 2775 3584 3186 3129 
Q 3597 2675 3597 1894 
z
M 3022 2063 
Q 3016 2534 2758 2815 
Q 2500 3097 2075 3097 
Q 1594 3097 1305 2825 
Q 1016 2553 972 2059 
L 3022 2063 
z
" transform="scale(0.015625)"/>
       <path id="DejaVuSans-20" transform="scale(0.015625)"/>
       <path id="DejaVuSans-50" d="M 1259 4147 
L 1259 2394 
L 2053 2394 
Q 2494 2394 2734 2622 
Q 2975 2850 2975 3272 
Q 2975 3691 2734 3919 
Q 2494 4147 2053 4147 
L 1259 4147 
z
M 628 4666 
L 2053 4666 
Q 2838 4666 3239 4311 
Q 3641 3956 3641 3272 
Q 3641 2581 3239 2228 
Q 2838 1875 2053 1875 
L 1259 1875 
L 1259 0 
L 628 0 
L 628 4666 
z
" transform="scale(0.015625)"/>
       <path id="DejaVuSans-6f" d="M 1959 3097 
Q 1497 3097 1228 2736 
Q 959 2375 959 1747 
Q 959 1119 1226 758 
Q 1494 397 1959 397 
Q 2419 397 2687 759 
Q 2956 1122 2956 1747 
Q 2956 2369 2687 2733 
Q 2419 3097 1959 3097 
z
M 1959 3584 
Q 2709 3584 3137 3096 
Q 3566 2609 3566 1747 
Q 3566 888 3137 398 
Q 2709 -91 1959 -91 
Q 1206 -91 779 398 
Q 353 888 353 1747 
Q 353 2609 779 3096 
Q 1206 3584 1959 3584 
z
" transform="scale(0.015625)"/>
       <path id="DejaVuSans-69" d="M 603 3500 
L 1178 3500 
L 1178 0 
L 603 0 
L 603 3500 
z
M 603 4863 
L 1178 4863 
L 1178 4134 
L 603 4134 
L 603 4863 
z
" transform="scale(0.015625)"/>
       <path id="DejaVuSans-74" d="M 1172 4494 
L 1172 3500 
L 2356 3500 
L 2356 3053 
L 1172 3053 
L 1172 1153 
Q 1172 725 1289 603 
Q 1406 481 1766 481 
L 2356 481 
L 2356 0 
L 1766 0 
Q 1100 0 847 248 
Q 594 497 594 1153 
L 594 3053 
L 172 3053 
L 172 3500 
L 594 3500 
L 594 4494 
L 1172 4494 
z
" transform="scale(0.015625)"/>
       <path id="DejaVuSans-76" d="M 191 3500 
L 800 3500 
L 1894 563 
L 2988 3500 
L 3597 3500 
L 2284 0 
L 1503 0 
L 191 3500 
z
" transform="scale(0.015625)"/>
       <path id="DejaVuSans-52" d="M 2841 2188 
Q 3044 2119 3236 1894 
Q 3428 1669 3622 1275 
L 4263 0 
L 3584 0 
L 2988 1197 
Q 2756 1666 2539 1819 
Q 2322 1972 1947 1972 
L 1259 1972 
L 1259 0 
L 628 0 
L 628 4666 
L 2053 4666 
Q 2853 4666 3247 4331 
Q 3641 3997 3641 3322 
Q 3641 2881 3436 2590 
Q 3231 2300 2841 2188 
z
M 1259 4147 
L 1259 2491 
L 2053 2491 
Q 2509 2491 2742 2702 
Q 2975 2913 2975 3322 
Q 2975 3731 2742 3939 
Q 2509 4147 2053 4147 
L 1259 4147 
z
" transform="scale(0.015625)"/>
      </defs>
      <use xlink:href="#DejaVuSans-46"/>
      <use xlink:href="#DejaVuSans-61" x="48.394531"/>
      <use xlink:href="#DejaVuSans-6c" x="109.673828"/>
      <use xlink:href="#DejaVuSans-73" x="137.457031"/>
      <use xlink:href="#DejaVuSans-65" x="189.556641"/>
      <use xlink:href="#DejaVuSans-20" x="251.080078"/>
      <use xlink:href="#DejaVuSans-50" x="282.867188"/>
      <use xlink:href="#DejaVuSans-6f" x="339.544922"/>
      <use xlink:href="#DejaVuSans-73" x="400.726562"/>
      <use xlink:href="#DejaVuSans-69" x="452.826172"/>
      <use xlink:href="#DejaVuSans-74" x="480.609375"/>
      <use xlink:href="#DejaVuSans-69" x="519.818359"/>
      <use xlink:href="#DejaVuSans-76" x="547.601562"/>
      <use xlink:href="#DejaVuSans-65" x="606.78125"/>
      <use xlink:href="#DejaVuSans-20" x="668.304688"/>
      <use xlink:href="#DejaVuSans-52" x="700.091797"/>
      <use xlink:href="#DejaVuSans-61" x="767.324219"/>
      <use xlink:href="#DejaVuSans-74" x="828.603516"/>
      <use xlink:href="#DejaVuSans-65" x="867.8125"/>
     </g>
    </g>
   </g>
   <g id="matplotlib.axis_2">
    <g id="ytick_1">
     <g id="line2d_7">
      <defs>
       <path id="m800c1a2a63" d="M 0 0 
L -3.5 0 
" style="stroke: #000000; stroke-width: 0.8"/>
      </defs>
      <g>
       <use xlink:href="#m800c1a2a63" x="46.684688" y="214.756364" style="stroke: #000000; stroke-width: 0.8"/>
      </g>
     </g>
     <g id="text_8">
      <!-- 0.0 -->
      <g transform="translate(23.781563 218.555582) scale(0.1 -0.1)">
       <use xlink:href="#DejaVuSans-30"/>
       <use xlink:href="#DejaVuSans-2e" x="63.623047"/>
       <use xlink:href="#DejaVuSans-30" x="95.410156"/>
      </g>
     </g>
    </g>
    <g id="ytick_2">
     <g id="line2d_8">
      <g>
       <use xlink:href="#m800c1a2a63" x="46.684688" y="175.221818" style="stroke: #000000; stroke-width: 0.8"/>
      </g>
     </g>
     <g id="text_9">
      <!-- 0.2 -->
      <g transform="translate(23.781563 179.021037) scale(0.1 -0.1)">
       <use xlink:href="#DejaVuSans-30"/>
       <use xlink:href="#DejaVuSans-2e" x="63.623047"/>
       <use xlink:href="#DejaVuSans-32" x="95.410156"/>
      </g>
     </g>
    </g>
    <g id="ytick_3">
     <g id="line2d_9">
      <g>
       <use xlink:href="#m800c1a2a63" x="46.684688" y="135.687273" style="stroke: #000000; stroke-width: 0.8"/>
      </g>
     </g>
     <g id="text_10">
      <!-- 0.4 -->
      <g transform="translate(23.781563 139.486491) scale(0.1 -0.1)">
       <use xlink:href="#DejaVuSans-30"/>
       <use xlink:href="#DejaVuSans-2e" x="63.623047"/>
       <use xlink:href="#DejaVuSans-34" x="95.410156"/>
      </g>
     </g>
    </g>
    <g id="ytick_4">
     <g id="line2d_10">
      <g>
       <use xlink:href="#m800c1a2a63" x="46.684688" y="96.152727" style="stroke: #000000; stroke-width: 0.8"/>
      </g>
     </g>
     <g id="text_11">
      <!-- 0.6 -->
      <g transform="translate(23.781563 99.951946) scale(0.1 -0.1)">
       <use xlink:href="#DejaVuSans-30"/>
       <use xlink:href="#DejaVuSans-2e" x="63.623047"/>
       <use xlink:href="#DejaVuSans-36" x="95.410156"/>
      </g>
     </g>
    </g>
    <g id="ytick_5">
     <g id="line2d_11">
      <g>
       <use xlink:href="#m800c1a2a63" x="46.684688" y="56.618182" style="stroke: #000000; stroke-width: 0.8"/>
      </g>
     </g>
     <g id="text_12">
      <!-- 0.8 -->
      <g transform="translate(23.781563 60.417401) scale(0.1 -0.1)">
       <use xlink:href="#DejaVuSans-30"/>
       <use xlink:href="#DejaVuSans-2e" x="63.623047"/>
       <use xlink:href="#DejaVuSans-38" x="95.410156"/>
      </g>
     </g>
    </g>
    <g id="ytick_6">
     <g id="line2d_12">
      <g>
       <use xlink:href="#m800c1a2a63" x="46.684688" y="17.083636" style="stroke: #000000; stroke-width: 0.8"/>
      </g>
     </g>
     <g id="text_13">
      <!-- 1.0 -->
      <g transform="translate(23.781563 20.882855) scale(0.1 -0.1)">
       <use xlink:href="#DejaVuSans-31"/>
       <use xlink:href="#DejaVuSans-2e" x="63.623047"/>
       <use xlink:href="#DejaVuSans-30" x="95.410156"/>
      </g>
     </g>
    </g>
    <g id="text_14">
     <!-- True Positive Rate -->
     <g transform="translate(17.077969 173.808594) rotate(-90) scale(0.13 -0.13)">
      <defs>
       <path id="DejaVuSans-54" d="M -19 4666 
L 3928 4666 
L 3928 4134 
L 2272 4134 
L 2272 0 
L 1638 0 
L 1638 4134 
L -19 4134 
L -19 4666 
z
" transform="scale(0.015625)"/>
       <path id="DejaVuSans-72" d="M 2631 2963 
Q 2534 3019 2420 3045 
Q 2306 3072 2169 3072 
Q 1681 3072 1420 2755 
Q 1159 2438 1159 1844 
L 1159 0 
L 581 0 
L 581 3500 
L 1159 3500 
L 1159 2956 
Q 1341 3275 1631 3429 
Q 1922 3584 2338 3584 
Q 2397 3584 2469 3576 
Q 2541 3569 2628 3553 
L 2631 2963 
z
" transform="scale(0.015625)"/>
       <path id="DejaVuSans-75" d="M 544 1381 
L 544 3500 
L 1119 3500 
L 1119 1403 
Q 1119 906 1312 657 
Q 1506 409 1894 409 
Q 2359 409 2629 706 
Q 2900 1003 2900 1516 
L 2900 3500 
L 3475 3500 
L 3475 0 
L 2900 0 
L 2900 538 
Q 2691 219 2414 64 
Q 2138 -91 1772 -91 
Q 1169 -91 856 284 
Q 544 659 544 1381 
z
M 1991 3584 
L 1991 3584 
z
" transform="scale(0.015625)"/>
      </defs>
      <use xlink:href="#DejaVuSans-54"/>
      <use xlink:href="#DejaVuSans-72" x="46.333984"/>
      <use xlink:href="#DejaVuSans-75" x="87.447266"/>
      <use xlink:href="#DejaVuSans-65" x="150.826172"/>
      <use xlink:href="#DejaVuSans-20" x="212.349609"/>
      <use xlink:href="#DejaVuSans-50" x="244.136719"/>
      <use xlink:href="#DejaVuSans-6f" x="300.814453"/>
      <use xlink:href="#DejaVuSans-73" x="361.996094"/>
      <use xlink:href="#DejaVuSans-69" x="414.095703"/>
      <use xlink:href="#DejaVuSans-74" x="441.878906"/>
      <use xlink:href="#DejaVuSans-69" x="481.087891"/>
      <use xlink:href="#DejaVuSans-76" x="508.871094"/>
      <use xlink:href="#DejaVuSans-65" x="568.050781"/>
      <use xlink:href="#DejaVuSans-20" x="629.574219"/>
      <use xlink:href="#DejaVuSans-52" x="661.361328"/>
      <use xlink:href="#DejaVuSans-61" x="728.59375"/>
      <use xlink:href="#DejaVuSans-74" x="789.873047"/>
      <use xlink:href="#DejaVuSans-65" x="829.082031"/>
     </g>
    </g>
   </g>
   <g id="line2d_13">
    <path d="M 61.902869 214.756364 
L 61.97896 146.707527 
L 62.055051 146.707527 
L 62.131142 115.771745 
L 62.207233 115.771745 
L 62.283324 109.199127 
L 62.359415 109.199127 
L 62.435506 98.376545 
L 62.587688 98.277709 
L 62.663778 93.237055 
L 62.739869 93.237055 
L 62.81596 91.309745 
L 62.892051 91.309745 
L 62.968142 83.600509 
L 63.044233 83.600509 
L 63.120324 79.795309 
L 63.348597 79.696473 
L 63.424688 77.571491 
L 63.576869 77.571491 
L 63.65296 76.385455 
L 63.729051 76.385455 
L 63.805142 75.940691 
L 63.957324 75.940691 
L 64.033415 72.777927 
L 64.185597 72.728509 
L 64.185597 71.394218 
L 64.337778 71.394218 
L 64.413869 71.048291 
L 64.48996 71.048291 
L 64.566051 70.751782 
L 64.642142 70.751782 
L 64.642142 67.5396 
L 64.794324 67.5396 
L 64.870415 66.501818 
L 65.022597 66.501818 
L 65.098688 65.711127 
L 65.174778 65.711127 
L 65.250869 65.216945 
L 65.403051 65.167527 
L 65.403051 65.068691 
L 65.631324 65.019273 
L 65.707415 64.525091 
L 65.859597 64.525091 
L 65.935688 63.783818 
L 66.011778 63.783818 
L 66.087869 63.042545 
L 66.240051 63.042545 
L 66.316142 62.153018 
L 66.544415 62.1036 
L 66.620506 61.56 
L 66.772688 61.461164 
L 66.848778 61.214073 
L 66.924869 61.214073 
L 67.00096 60.966982 
L 67.077051 60.966982 
L 67.153142 60.522218 
L 67.229233 60.522218 
L 67.305324 60.077455 
L 67.609688 60.028036 
L 67.609688 59.632691 
L 67.761869 59.632691 
L 67.761869 59.039673 
L 67.914051 59.039673 
L 67.914051 58.743164 
L 68.294506 58.743164 
L 68.294506 58.446655 
L 68.522778 58.347818 
L 68.598869 58.150145 
L 69.131506 58.051309 
L 69.131506 57.952473 
L 69.283688 57.952473 
L 69.359778 57.705382 
L 69.435869 57.705382 
L 69.51196 57.507709 
L 69.740233 57.507709 
L 69.816324 56.272255 
L 69.968506 56.272255 
L 69.968506 56.124 
L 70.272869 56.025164 
L 70.34896 55.728655 
L 70.653324 55.629818 
L 70.729415 55.432145 
L 71.109869 55.333309 
L 71.109869 55.234473 
L 71.338142 55.234473 
L 71.338142 54.937964 
L 71.490324 54.937964 
L 71.490324 54.690873 
L 72.02296 54.641455 
L 72.099051 54.4932 
L 72.479506 54.394364 
L 72.555597 54.246109 
L 72.783869 54.147273 
L 72.85996 53.653091 
L 73.316506 53.554255 
L 73.316506 53.406 
L 74.001324 53.307164 
L 74.077415 53.208327 
L 74.457869 53.109491 
L 74.457869 53.010655 
L 74.990506 52.911818 
L 75.066597 52.714145 
L 75.751415 52.615309 
L 75.827506 52.170545 
L 76.360142 52.071709 
L 76.436233 51.7752 
L 77.121051 51.676364 
L 77.121051 51.626945 
L 77.501506 51.577527 
L 77.501506 51.478691 
L 78.414597 51.379855 
L 78.414597 51.281018 
L 79.403778 51.182182 
L 79.479869 51.083345 
L 80.164688 50.984509 
L 80.240778 50.836255 
L 80.773415 50.737418 
L 80.849506 50.638582 
L 81.458233 50.539745 
L 81.534324 50.440909 
L 83.893142 50.342073 
L 83.893142 50.243236 
L 84.57796 50.193818 
L 84.57796 50.045564 
L 84.882324 49.946727 
L 84.958415 49.847891 
L 85.186688 49.847891 
L 85.186688 49.551382 
L 86.328051 49.452545 
L 86.404142 49.353709 
L 87.012869 49.304291 
L 87.012869 49.205455 
L 87.697688 49.106618 
L 87.697688 49.0572 
L 89.447778 48.958364 
L 89.523869 48.711273 
L 89.676051 48.711273 
L 89.676051 48.563018 
L 90.360869 48.5136 
L 90.360869 48.414764 
L 91.121778 48.315927 
L 91.121778 48.266509 
L 91.730506 48.167673 
L 91.730506 48.118255 
L 92.034869 48.118255 
L 92.034869 47.97 
L 92.871869 47.871164 
L 92.871869 47.821745 
L 93.176233 47.722909 
L 93.176233 47.673491 
L 94.62196 47.574655 
L 94.62196 47.525236 
L 96.29596 47.4264 
L 96.372051 47.278145 
L 97.513415 47.179309 
L 97.513415 47.129891 
L 99.187415 47.031055 
L 99.263506 46.8828 
L 100.937506 46.783964 
L 100.937506 46.734545 
L 103.372415 46.635709 
L 103.372415 46.536873 
L 104.742051 46.438036 
L 104.818142 46.3392 
L 105.959506 46.240364 
L 105.959506 46.190945 
L 107.253051 46.092109 
L 107.253051 46.042691 
L 107.861778 45.943855 
L 107.861778 45.894436 
L 108.546597 45.7956 
L 108.546597 45.746182 
L 109.155324 45.647345 
L 109.155324 45.597927 
L 109.68796 45.499091 
L 109.68796 45.449673 
L 110.068415 45.449673 
L 110.068415 45.301418 
L 111.285869 45.202582 
L 111.285869 45.103745 
L 112.807688 45.004909 
L 112.883778 44.856655 
L 114.938233 44.757818 
L 114.938233 44.7084 
L 115.470869 44.609564 
L 115.54696 44.510727 
L 116.688324 44.411891 
L 116.688324 44.362473 
L 118.286233 44.263636 
L 118.286233 44.1648 
L 119.199324 44.065964 
L 119.199324 44.016545 
L 121.710324 43.917709 
L 121.710324 43.868291 
L 122.471233 43.769455 
L 122.471233 43.720036 
L 124.373506 43.6212 
L 124.373506 43.571782 
L 126.656233 43.472945 
L 126.656233 43.423527 
L 127.797597 43.324691 
L 127.797597 43.275273 
L 128.786778 43.176436 
L 128.786778 43.0776 
L 129.623778 43.028182 
L 129.623778 42.929345 
L 131.297778 42.830509 
L 131.373869 42.682255 
L 132.819597 42.632836 
L 132.819597 42.534 
L 133.352233 42.435164 
L 133.352233 42.385745 
L 133.884869 42.286909 
L 133.884869 42.188073 
L 134.79796 42.089236 
L 134.79796 41.9904 
L 135.787142 41.940982 
L 135.787142 41.743309 
L 138.069869 41.644473 
L 138.069869 41.595055 
L 139.211233 41.496218 
L 139.287324 41.397382 
L 140.048233 41.298545 
L 140.048233 41.249127 
L 141.417869 41.150291 
L 141.417869 41.100873 
L 143.396233 41.002036 
L 143.396233 40.952618 
L 145.146324 40.853782 
L 145.146324 40.804364 
L 146.135506 40.705527 
L 146.135506 40.656109 
L 147.35296 40.557273 
L 147.429051 40.458436 
L 148.037778 40.3596 
L 148.037778 40.310182 
L 149.179142 40.211345 
L 149.179142 40.161927 
L 149.711778 40.063091 
L 149.711778 40.013673 
L 150.853142 39.914836 
L 150.853142 39.865418 
L 152.37496 39.766582 
L 152.37496 39.717164 
L 152.755415 39.667745 
L 152.755415 39.519491 
L 155.494687 39.420655 
L 155.494687 39.371236 
L 158.23396 39.2724 
L 158.23396 39.222982 
L 159.90796 39.173564 
L 159.90796 39.074727 
L 161.810233 39.025309 
L 161.810233 38.926473 
L 164.169051 38.827636 
L 164.245142 38.7288 
L 165.158233 38.629964 
L 165.158233 38.580545 
L 165.462597 38.580545 
L 165.462597 38.432291 
L 167.44096 38.333455 
L 167.44096 38.1852 
L 167.821415 38.135782 
L 167.821415 38.036945 
L 169.11496 37.938109 
L 169.11496 37.839273 
L 171.930324 37.740436 
L 171.930324 37.691018 
L 172.234688 37.6416 
L 172.234688 37.542764 
L 172.691233 37.443927 
L 172.767324 37.345091 
L 174.441324 37.246255 
L 174.441324 37.196836 
L 177.028415 37.147418 
L 177.028415 37.048582 
L 177.789324 36.949745 
L 177.789324 36.850909 
L 178.474142 36.752073 
L 178.474142 36.653236 
L 180.148142 36.5544 
L 180.148142 36.504982 
L 181.137324 36.406145 
L 181.213415 36.307309 
L 184.257051 36.208473 
L 184.257051 36.159055 
L 187.376778 36.060218 
L 187.376778 36.0108 
L 188.670324 35.911964 
L 188.670324 35.862545 
L 190.800869 35.763709 
L 190.800869 35.714291 
L 192.627051 35.615455 
L 192.627051 35.566036 
L 193.996688 35.4672 
L 193.996688 35.318945 
L 196.507688 35.220109 
L 196.507688 35.170691 
L 197.420778 35.071855 
L 197.420778 35.022436 
L 199.094778 34.9236 
L 199.094778 34.874182 
L 203.584142 34.775345 
L 203.584142 34.725927 
L 205.258142 34.676509 
L 205.258142 34.577673 
L 206.095142 34.478836 
L 206.095142 34.429418 
L 207.997415 34.330582 
L 207.997415 34.281164 
L 208.682233 34.182327 
L 208.682233 34.132909 
L 210.051869 34.034073 
L 210.051869 33.984655 
L 211.041051 33.885818 
L 211.041051 33.8364 
L 213.47596 33.737564 
L 213.47596 33.688145 
L 214.008597 33.589309 
L 214.008597 33.539891 
L 214.617324 33.441055 
L 214.617324 33.391636 
L 216.139142 33.2928 
L 216.139142 33.243382 
L 216.595687 33.144545 
L 216.671778 32.946873 
L 217.66096 32.848036 
L 217.737051 32.7492 
L 218.726233 32.650364 
L 218.726233 32.600945 
L 219.411051 32.502109 
L 219.411051 32.452691 
L 219.867597 32.353855 
L 219.867597 32.304436 
L 221.693778 32.2056 
L 221.693778 32.156182 
L 224.128688 32.057345 
L 224.128688 32.007927 
L 227.628869 31.909091 
L 227.70496 31.760836 
L 228.846324 31.662 
L 228.846324 31.612582 
L 229.531142 31.513745 
L 229.531142 31.464327 
L 230.748597 31.365491 
L 230.748597 31.316073 
L 232.879142 31.217236 
L 232.879142 31.167818 
L 233.640051 31.068982 
L 233.640051 31.019564 
L 235.009687 30.920727 
L 235.009687 30.821891 
L 235.922778 30.723055 
L 235.922778 30.624218 
L 237.292415 30.525382 
L 237.292415 30.475964 
L 241.09696 30.377127 
L 241.09696 30.278291 
L 242.77096 30.179455 
L 242.77096 30.130036 
L 243.379687 30.0312 
L 243.379687 29.981782 
L 245.205869 29.882945 
L 245.28196 29.784109 
L 247.488597 29.685273 
L 247.488597 29.635855 
L 248.782142 29.537018 
L 248.782142 29.4876 
L 250.608324 29.388764 
L 250.608324 29.339345 
L 253.65196 29.240509 
L 253.65196 29.191091 
L 255.858597 29.092255 
L 255.934687 28.993418 
L 256.771687 28.894582 
L 256.771687 28.845164 
L 258.445688 28.746327 
L 258.445688 28.696909 
L 259.739233 28.598073 
L 259.815324 28.449818 
L 262.250233 28.449818 
L 262.326324 28.252145 
L 264.456869 28.153309 
L 264.456869 28.103891 
L 269.859324 28.005055 
L 269.935415 27.906218 
L 271.381142 27.807382 
L 271.381142 27.757964 
L 272.446415 27.708545 
L 272.446415 27.609709 
L 275.337869 27.510873 
L 275.337869 27.461455 
L 276.631415 27.362618 
L 276.707506 27.263782 
L 279.066324 27.164945 
L 279.066324 27.115527 
L 281.27296 27.016691 
L 281.27296 26.967273 
L 283.251324 26.868436 
L 283.251324 26.819018 
L 283.860051 26.7696 
L 283.860051 26.670764 
L 285.381869 26.571927 
L 285.45796 26.473091 
L 286.142778 26.374255 
L 286.142778 26.324836 
L 286.675415 26.275418 
L 286.675415 26.176582 
L 289.795142 26.077745 
L 289.871233 25.978909 
L 290.708233 25.880073 
L 290.708233 25.830655 
L 291.088687 25.731818 
L 291.088687 25.6824 
L 293.371415 25.583564 
L 293.371415 25.534145 
L 294.436688 25.435309 
L 294.436688 25.385891 
L 295.349778 25.336473 
L 295.425869 25.188218 
L 296.110687 25.089382 
L 296.186778 24.990545 
L 297.252051 24.891709 
L 297.328142 24.792873 
L 299.002142 24.694036 
L 299.078233 24.5952 
L 299.839142 24.496364 
L 299.839142 24.446945 
L 300.752233 24.348109 
L 300.828324 24.249273 
L 301.969688 24.199855 
L 301.969688 24.101018 
L 303.111051 24.002182 
L 303.187142 23.903345 
L 304.252415 23.804509 
L 304.252415 23.755091 
L 305.241597 23.656255 
L 305.241597 23.606836 
L 306.002506 23.508 
L 306.002506 23.458582 
L 306.915597 23.359745 
L 306.915597 23.310327 
L 308.89396 23.211491 
L 308.89396 23.112655 
L 310.415778 23.013818 
L 310.415778 22.9644 
L 313.687688 22.865564 
L 313.687688 22.816145 
L 316.731324 22.717309 
L 316.731324 22.667891 
L 321.677233 22.569055 
L 321.677233 22.470218 
L 323.883869 22.371382 
L 323.883869 22.321964 
L 326.242688 22.272545 
L 326.242688 22.173709 
L 327.155778 22.074873 
L 327.155778 22.025455 
L 329.134142 21.926618 
L 329.134142 21.8772 
L 330.275506 21.778364 
L 330.351597 21.679527 
L 331.721233 21.580691 
L 331.721233 21.531273 
L 332.482142 21.481855 
L 332.482142 21.383018 
L 333.395233 21.3336 
L 333.395233 21.234764 
L 334.308324 21.135927 
L 334.308324 21.086509 
L 335.069233 20.987673 
L 335.145324 20.888836 
L 336.286688 20.79 
L 336.286688 20.740582 
L 337.199778 20.641745 
L 337.199778 20.542909 
L 338.036778 20.444073 
L 338.036778 20.394655 
L 339.102051 20.345236 
L 339.178142 20.147564 
L 339.710778 20.048727 
L 339.786869 19.949891 
L 341.765233 19.851055 
L 341.765233 19.752218 
L 342.830506 19.7028 
L 342.830506 19.603964 
L 344.04796 19.554545 
L 344.04796 19.455709 
L 344.428415 19.356873 
L 344.428415 19.307455 
L 347.319869 19.208618 
L 347.319869 19.1592 
L 348.461233 19.060364 
L 348.537324 18.961527 
L 350.135233 18.862691 
L 350.135233 18.813273 
L 351.124415 18.714436 
L 351.124415 18.665018 
L 352.41796 18.566182 
L 352.41796 18.516764 
L 353.939778 18.417927 
L 353.939778 18.368509 
L 354.92896 18.269673 
L 354.92896 18.170836 
L 358.124778 18.072 
L 358.124778 18.022582 
L 358.353051 17.973164 
L 358.429142 17.824909 
L 360.103142 17.726073 
L 360.103142 17.627236 
L 361.320597 17.5284 
L 361.320597 17.478982 
L 362.766324 17.380145 
L 362.766324 17.330727 
L 363.375051 17.231891 
L 363.375051 17.182473 
L 366.266506 17.083636 
L 366.266506 17.083636 
" clip-path="url(#p7732758745)" style="fill: none; stroke: #1f77b4; stroke-width: 1.5; stroke-linecap: square"/>
   </g>
   <g id="line2d_14">
    <path d="M 61.902869 214.756364 
L 61.97896 199.930909 
L 62.055051 199.930909 
L 62.131142 196.768145 
L 62.207233 196.768145 
L 62.283324 196.026873 
L 62.359415 196.026873 
L 62.435506 195.433855 
L 62.511597 195.433855 
L 62.587688 194.445491 
L 62.739869 194.346655 
L 62.81596 191.925164 
L 62.892051 191.925164 
L 62.968142 190.837964 
L 63.044233 190.837964 
L 63.120324 188.910655 
L 63.272506 188.910655 
L 63.348597 188.169382 
L 63.576869 188.070545 
L 63.65296 186.588 
L 63.729051 186.588 
L 63.805142 185.204291 
L 63.881233 185.204291 
L 63.957324 183.672327 
L 64.033415 183.672327 
L 64.109506 182.041527 
L 64.185597 182.041527 
L 64.185597 181.152 
L 64.48996 181.152 
L 64.48996 180.707236 
L 64.642142 180.707236 
L 64.718233 180.410727 
L 64.870415 180.410727 
L 64.946506 179.718873 
L 65.022597 179.718873 
L 65.098688 178.779927 
L 65.250869 178.681091 
L 65.32696 178.088073 
L 65.479142 178.088073 
L 65.555233 177.742145 
L 65.631324 177.742145 
L 65.631324 177.593891 
L 65.783506 177.593891 
L 65.859597 177.099709 
L 65.935688 177.099709 
L 66.011778 176.061927 
L 66.087869 176.061927 
L 66.16396 175.567745 
L 66.240051 175.567745 
L 66.316142 174.480545 
L 66.392233 174.480545 
L 66.468324 173.788691 
L 66.772688 173.739273 
L 66.848778 173.393345 
L 66.924869 173.393345 
L 67.00096 171.960218 
L 67.153142 171.9108 
L 67.229233 170.873018 
L 67.305324 170.873018 
L 67.381415 170.527091 
L 67.457506 170.527091 
L 67.533597 168.896291 
L 67.609688 168.896291 
L 67.609688 168.550364 
L 67.761869 168.550364 
L 67.83796 168.006764 
L 67.914051 168.006764 
L 67.990142 167.364327 
L 68.066233 167.364327 
L 68.142324 167.0184 
L 68.218415 167.0184 
L 68.294506 166.573636 
L 68.522778 166.4748 
L 68.598869 164.942836 
L 68.67496 164.942836 
L 68.751051 163.855636 
L 68.827142 163.855636 
L 68.827142 163.312036 
L 69.131506 163.262618 
L 69.207597 161.631818 
L 69.283688 161.631818 
L 69.359778 161.137636 
L 69.435869 161.137636 
L 69.51196 160.890545 
L 69.588051 160.890545 
L 69.664142 160.346945 
L 69.740233 160.346945 
L 69.816324 159.605673 
L 69.892415 159.605673 
L 69.968506 159.062073 
L 70.120688 158.963236 
L 70.196778 158.073709 
L 70.34896 158.073709 
L 70.425051 157.678364 
L 70.501142 157.678364 
L 70.577233 156.887673 
L 70.653324 156.887673 
L 70.729415 154.317927 
L 70.805506 154.317927 
L 70.805506 154.021418 
L 70.957688 154.021418 
L 70.957688 153.873164 
L 71.109869 153.873164 
L 71.18596 153.4284 
L 71.338142 153.378982 
L 71.338142 152.736545 
L 71.718597 152.637709 
L 71.718597 151.945855 
L 71.870778 151.945855 
L 71.870778 151.303418 
L 72.099051 151.204582 
L 72.175142 150.809236 
L 72.251233 150.809236 
L 72.251233 150.512727 
L 72.555597 150.413891 
L 72.631688 150.117382 
L 72.707778 150.117382 
L 72.783869 149.524364 
L 72.936051 149.474945 
L 73.012142 148.980764 
L 73.240415 148.881927 
L 73.316506 148.585418 
L 73.392597 148.585418 
L 73.468688 148.140655 
L 73.544778 148.140655 
L 73.620869 147.942982 
L 73.773051 147.942982 
L 73.849142 147.498218 
L 74.305688 147.4488 
L 74.381778 147.053455 
L 74.457869 147.053455 
L 74.53396 146.163927 
L 74.610051 146.163927 
L 74.686142 145.2744 
L 74.914415 145.2744 
L 74.990506 144.582545 
L 75.218778 144.582545 
L 75.294869 144.1872 
L 75.523142 144.1872 
L 75.523142 143.890691 
L 75.675324 143.890691 
L 75.751415 143.297673 
L 75.827506 143.297673 
L 75.903597 142.457564 
L 75.979688 142.457564 
L 76.055778 142.161055 
L 76.360142 142.062218 
L 76.360142 141.963382 
L 76.588415 141.864545 
L 76.588415 141.222109 
L 76.740597 141.222109 
L 76.740597 140.975018 
L 77.04496 140.9256 
L 77.121051 140.678509 
L 77.197142 140.678509 
L 77.197142 139.8384 
L 77.349324 139.8384 
L 77.425415 139.393636 
L 77.501506 139.393636 
L 77.501506 139.245382 
L 77.653688 139.245382 
L 77.653688 138.998291 
L 77.88196 138.948873 
L 77.958051 138.009927 
L 78.034142 138.009927 
L 78.034142 137.812255 
L 78.186324 137.812255 
L 78.262415 137.466327 
L 78.338506 137.466327 
L 78.338506 137.1204 
L 78.490688 137.1204 
L 78.566778 136.823891 
L 78.642869 136.823891 
L 78.71896 136.0332 
L 79.023324 135.934364 
L 79.099415 135.440182 
L 79.251597 135.440182 
L 79.327688 135.044836 
L 79.55596 135.044836 
L 79.632051 133.908218 
L 79.708142 133.908218 
L 79.784233 133.562291 
L 80.012506 133.562291 
L 80.012506 133.265782 
L 80.240778 133.265782 
L 80.316869 132.524509 
L 80.39296 132.524509 
L 80.469051 131.980909 
L 80.545142 131.980909 
L 80.621233 131.783236 
L 80.697324 131.783236 
L 80.773415 130.844291 
L 80.849506 130.844291 
L 80.925597 130.646618 
L 81.001688 130.646618 
L 81.077778 130.152436 
L 81.153869 130.152436 
L 81.153869 129.658255 
L 81.458233 129.559418 
L 81.534324 129.114655 
L 81.686506 129.015818 
L 81.762597 128.719309 
L 81.838688 128.719309 
L 81.838688 128.571055 
L 81.990869 128.571055 
L 81.990869 128.4228 
L 82.143051 128.4228 
L 82.219142 127.978036 
L 82.295233 127.978036 
L 82.371324 127.533273 
L 82.447415 127.533273 
L 82.523506 127.088509 
L 82.675688 126.989673 
L 82.675688 126.890836 
L 82.980051 126.792 
L 83.056142 126.149564 
L 83.284415 126.100145 
L 83.360506 125.605964 
L 83.512688 125.556545 
L 83.588778 125.309455 
L 84.273597 125.260036 
L 84.273597 125.1612 
L 84.501869 125.1612 
L 84.57796 124.765855 
L 84.654051 124.765855 
L 84.730142 124.469345 
L 84.958415 124.419927 
L 84.958415 124.074 
L 85.110597 124.074 
L 85.186688 123.777491 
L 85.262778 123.777491 
L 85.338869 123.5304 
L 85.491051 123.480982 
L 85.567142 123.036218 
L 85.719324 122.937382 
L 85.795415 122.690291 
L 85.871506 122.690291 
L 85.871506 122.245527 
L 86.023688 122.245527 
L 86.099778 121.998436 
L 86.480233 121.8996 
L 86.556324 121.553673 
L 86.708506 121.553673 
L 86.708506 121.356 
L 87.165051 121.306582 
L 87.165051 121.207745 
L 87.469415 121.158327 
L 87.545506 120.960655 
L 87.849869 120.861818 
L 87.92596 119.972291 
L 88.078142 119.972291 
L 88.154233 119.626364 
L 88.382506 119.527527 
L 88.458597 119.1816 
L 88.76296 119.082764 
L 88.839051 118.934509 
L 88.991233 118.835673 
L 88.991233 118.786255 
L 89.295597 118.736836 
L 89.371688 118.539164 
L 89.59996 118.440327 
L 89.676051 118.341491 
L 89.752142 118.341491 
L 89.752142 118.0944 
L 89.904324 118.0944 
L 89.980415 117.600218 
L 90.132597 117.501382 
L 90.132597 117.402545 
L 90.360869 117.303709 
L 90.43696 116.760109 
L 90.741324 116.661273 
L 90.817415 116.216509 
L 91.27396 116.117673 
L 91.350051 115.771745 
L 91.882688 115.722327 
L 91.958778 115.475236 
L 92.034869 115.475236 
L 92.11096 115.228145 
L 92.339233 115.129309 
L 92.415324 115.030473 
L 92.643597 114.981055 
L 92.643597 114.8328 
L 92.94796 114.783382 
L 93.024051 114.536291 
L 93.176233 114.536291 
L 93.252324 114.190364 
L 93.328415 114.190364 
L 93.404506 113.844436 
L 93.556688 113.7456 
L 93.632778 113.350255 
L 94.241506 113.251418 
L 94.317597 113.004327 
L 94.469778 112.954909 
L 94.469778 112.608982 
L 94.698051 112.510145 
L 94.774142 112.361891 
L 94.850233 112.361891 
L 94.850233 112.213636 
L 95.306778 112.1148 
L 95.306778 111.422945 
L 95.45896 111.422945 
L 95.535051 111.0276 
L 95.915506 110.978182 
L 95.915506 110.879345 
L 96.143778 110.829927 
L 96.143778 110.731091 
L 96.524233 110.681673 
L 96.600324 110.533418 
L 96.828597 110.434582 
L 96.904688 110.187491 
L 97.285142 110.138073 
L 97.285142 109.9404 
L 97.513415 109.841564 
L 97.589506 109.742727 
L 97.893869 109.693309 
L 97.96996 109.446218 
L 98.046051 109.446218 
L 98.122142 109.248545 
L 98.274324 109.199127 
L 98.350415 108.655527 
L 98.654778 108.606109 
L 98.730869 108.260182 
L 98.883051 108.161345 
L 98.959142 107.815418 
L 99.111324 107.766 
L 99.187415 107.518909 
L 99.567869 107.420073 
L 99.64396 107.2224 
L 99.872233 107.123564 
L 99.872233 107.024727 
L 100.252688 106.925891 
L 100.328778 106.629382 
L 100.404869 106.629382 
L 100.404869 106.431709 
L 100.633142 106.332873 
L 100.709233 106.085782 
L 100.937506 106.036364 
L 101.013597 105.838691 
L 101.165778 105.789273 
L 101.165778 105.492764 
L 101.546233 105.393927 
L 101.622324 105.048 
L 101.698415 105.048 
L 101.698415 104.850327 
L 102.078869 104.751491 
L 102.15496 104.356145 
L 102.687597 104.257309 
L 102.687597 104.207891 
L 103.068051 104.109055 
L 103.068051 104.059636 
L 103.296324 104.059636 
L 103.372415 103.516036 
L 103.600688 103.466618 
L 103.676778 103.318364 
L 103.82896 103.219527 
L 103.905051 103.021855 
L 104.285506 102.972436 
L 104.285506 102.675927 
L 104.742051 102.577091 
L 104.742051 102.527673 
L 105.122506 102.478255 
L 105.122506 102.379418 
L 105.426869 102.33 
L 105.50296 102.082909 
L 105.655142 102.033491 
L 105.731233 101.687564 
L 106.035597 101.588727 
L 106.035597 101.391055 
L 106.416051 101.292218 
L 106.492142 101.193382 
L 106.644324 101.193382 
L 106.720415 100.946291 
L 106.948688 100.946291 
L 106.948688 100.649782 
L 107.785688 100.550945 
L 107.785688 100.402691 
L 108.01396 100.303855 
L 108.01396 100.254436 
L 108.470506 100.1556 
L 108.470506 100.056764 
L 108.85096 100.056764 
L 108.927051 99.513164 
L 109.231415 99.414327 
L 109.307506 99.167236 
L 109.383597 99.167236 
L 109.383597 98.870727 
L 109.611869 98.821309 
L 109.68796 98.623636 
L 109.916233 98.5248 
L 109.916233 98.376545 
L 110.144506 98.327127 
L 110.144506 98.080036 
L 110.448869 97.9812 
L 110.448869 97.684691 
L 110.753233 97.635273 
L 110.829324 97.487018 
L 110.981506 97.388182 
L 111.057597 97.239927 
L 111.209778 97.239927 
L 111.285869 96.992836 
L 111.438051 96.992836 
L 111.514142 96.795164 
L 111.742415 96.745745 
L 111.818506 96.399818 
L 111.894597 96.399818 
L 111.894597 96.251564 
L 112.19896 96.152727 
L 112.275051 95.905636 
L 112.731597 95.8068 
L 112.807688 95.559709 
L 112.883778 95.559709 
L 112.883778 95.411455 
L 113.112051 95.312618 
L 113.188142 95.065527 
L 113.644688 94.966691 
L 113.720778 94.867855 
L 114.025142 94.769018 
L 114.025142 94.521927 
L 114.329506 94.423091 
L 114.329506 94.324255 
L 114.481688 94.324255 
L 114.481688 94.126582 
L 114.70996 94.027745 
L 114.70996 93.978327 
L 115.318688 93.928909 
L 115.394778 93.731236 
L 116.003506 93.6324 
L 116.079597 93.533564 
L 116.38396 93.434727 
L 116.460051 93.0888 
L 116.992688 92.989964 
L 116.992688 92.792291 
L 117.525324 92.693455 
L 117.601415 92.594618 
L 117.677506 92.594618 
L 117.677506 92.298109 
L 118.05796 92.199273 
L 118.134051 92.100436 
L 118.590597 92.0016 
L 118.666688 91.803927 
L 119.047142 91.705091 
L 119.047142 91.507418 
L 119.427597 91.408582 
L 119.503688 91.260327 
L 119.655869 91.210909 
L 119.655869 90.963818 
L 120.188506 90.864982 
L 120.188506 90.815564 
L 120.492869 90.716727 
L 120.492869 90.617891 
L 120.721142 90.568473 
L 120.797233 90.123709 
L 120.949415 90.024873 
L 120.949415 89.975455 
L 121.177688 89.926036 
L 121.253778 89.580109 
L 121.938597 89.481273 
L 122.014688 89.333018 
L 122.319051 89.234182 
L 122.395142 89.036509 
L 122.775597 88.987091 
L 122.851688 88.641164 
L 123.07996 88.591745 
L 123.07996 88.1964 
L 123.688688 88.146982 
L 123.688688 87.949309 
L 123.993051 87.899891 
L 124.069142 87.6528 
L 124.373506 87.553964 
L 124.449597 87.306873 
L 124.75396 87.306873 
L 124.75396 87.158618 
L 124.982233 87.1092 
L 125.058324 86.367927 
L 125.438778 86.318509 
L 125.514869 86.170255 
L 125.819233 86.071418 
L 125.895324 85.972582 
L 126.199688 85.923164 
L 126.275778 85.4784 
L 126.42796 85.4784 
L 126.42796 85.330145 
L 126.580142 85.330145 
L 126.656233 85.132473 
L 127.112778 85.033636 
L 127.112778 84.9348 
L 127.569324 84.835964 
L 127.569324 84.786545 
L 127.721506 84.786545 
L 127.797597 84.588873 
L 127.873688 84.588873 
L 127.873688 84.292364 
L 128.254142 84.292364 
L 128.330233 83.995855 
L 128.786778 83.897018 
L 128.862869 83.748764 
L 129.243324 83.649927 
L 129.319415 83.304 
L 129.623778 83.254582 
L 129.699869 82.809818 
L 129.928142 82.710982 
L 130.004233 82.513309 
L 130.61296 82.414473 
L 130.689051 82.315636 
L 131.297778 82.266218 
L 131.297778 82.068545 
L 131.526051 81.969709 
L 131.526051 81.920291 
L 131.678233 81.920291 
L 131.678233 81.772036 
L 132.058688 81.722618 
L 132.058688 81.574364 
L 132.210869 81.574364 
L 132.28696 81.376691 
L 132.591324 81.376691 
L 132.591324 81.179018 
L 133.12396 81.080182 
L 133.200051 80.734255 
L 133.504415 80.635418 
L 133.580506 80.338909 
L 133.732687 80.289491 
L 133.808778 80.141236 
L 133.884869 80.141236 
L 133.884869 79.894145 
L 134.189233 79.795309 
L 134.189233 79.696473 
L 134.493597 79.597636 
L 134.569688 79.4988 
L 135.787142 79.449382 
L 135.863233 79.301127 
L 135.939324 79.301127 
L 135.939324 79.103455 
L 136.395869 79.004618 
L 136.395869 78.856364 
L 136.852415 78.757527 
L 136.928506 78.609273 
L 137.004597 78.609273 
L 137.004597 78.4116 
L 137.30896 78.362182 
L 137.30896 78.263345 
L 137.765506 78.164509 
L 137.841597 77.868 
L 138.069869 77.818582 
L 138.14596 77.670327 
L 138.298142 77.670327 
L 138.374233 77.3244 
L 138.450324 77.3244 
L 138.526415 77.126727 
L 138.602506 77.126727 
L 138.602506 76.7808 
L 138.754688 76.7808 
L 138.754688 76.632545 
L 139.363415 76.533709 
L 139.363415 76.484291 
L 139.743869 76.385455 
L 139.743869 76.2372 
L 140.352597 76.138364 
L 140.352597 76.039527 
L 140.65696 76.039527 
L 140.733051 75.841855 
L 140.961324 75.792436 
L 140.961324 75.6936 
L 141.113506 75.6936 
L 141.189597 75.495927 
L 141.417869 75.446509 
L 141.49396 75.199418 
L 142.407051 75.100582 
L 142.407051 75.051164 
L 142.863597 74.952327 
L 142.939687 74.853491 
L 143.320142 74.754655 
L 143.396233 74.655818 
L 143.776688 74.556982 
L 143.776688 74.507564 
L 144.385415 74.408727 
L 144.385415 74.309891 
L 144.613688 74.260473 
L 144.613688 74.013382 
L 146.059415 73.914545 
L 146.059415 73.865127 
L 146.592051 73.766291 
L 146.668142 73.667455 
L 146.972506 73.667455 
L 146.972506 73.469782 
L 147.276869 73.420364 
L 147.276869 73.272109 
L 147.885597 73.173273 
L 147.885597 73.074436 
L 148.342142 73.074436 
L 148.342142 72.926182 
L 148.646506 72.827345 
L 148.722597 72.481418 
L 149.331324 72.382582 
L 149.331324 72.234327 
L 149.787869 72.184909 
L 149.86396 71.8884 
L 150.092233 71.789564 
L 150.092233 71.740145 
L 150.929233 71.641309 
L 150.929233 71.591891 
L 151.081415 71.591891 
L 151.157506 71.394218 
L 151.461869 71.3448 
L 151.461869 71.147127 
L 151.766233 71.147127 
L 151.766233 70.998873 
L 152.070597 70.900036 
L 152.070597 70.8012 
L 152.527142 70.8012 
L 152.603233 70.603527 
L 152.831506 70.504691 
L 152.907597 70.405855 
L 153.288051 70.307018 
L 153.288051 70.2576 
L 153.592415 70.158764 
L 153.592415 70.109345 
L 154.657688 70.010509 
L 154.733778 69.812836 
L 155.114233 69.714 
L 155.114233 69.615164 
L 155.418597 69.516327 
L 155.494687 69.417491 
L 155.72296 69.318655 
L 155.799051 69.120982 
L 156.027324 69.120982 
L 156.103415 68.923309 
L 156.407778 68.824473 
L 156.483869 68.725636 
L 156.712142 68.6268 
L 156.788233 68.429127 
L 156.940415 68.330291 
L 157.016506 68.0832 
L 157.473051 67.984364 
L 157.473051 67.934945 
L 157.701324 67.934945 
L 157.777415 67.638436 
L 158.23396 67.589018 
L 158.23396 67.341927 
L 158.994869 67.292509 
L 158.994869 67.094836 
L 159.755778 66.996 
L 159.755778 66.946582 
L 160.060142 66.897164 
L 160.136233 66.501818 
L 160.821051 66.402982 
L 160.897142 66.254727 
L 161.277597 66.205309 
L 161.277597 66.106473 
L 161.962415 66.007636 
L 161.962415 65.958218 
L 162.647233 65.859382 
L 162.723324 65.612291 
L 162.799415 65.612291 
L 162.799415 65.464036 
L 163.560324 65.3652 
L 163.560324 65.315782 
L 163.788597 65.266364 
L 163.788597 65.019273 
L 164.169051 64.969855 
L 164.169051 64.8216 
L 164.701687 64.722764 
L 164.777778 64.426255 
L 165.234324 64.327418 
L 165.234324 64.278 
L 165.76696 64.179164 
L 165.76696 64.080327 
L 165.995233 63.981491 
L 165.995233 63.932073 
L 166.223506 63.882655 
L 166.299597 63.635564 
L 166.451778 63.586145 
L 166.527869 63.388473 
L 167.136597 63.339055 
L 167.136597 63.240218 
L 167.973597 63.141382 
L 168.049688 62.943709 
L 168.354051 62.894291 
L 168.430142 62.696618 
L 168.734506 62.597782 
L 168.734506 62.548364 
L 168.962778 62.449527 
L 168.962778 62.350691 
L 169.571506 62.350691 
L 169.571506 62.1036 
L 170.256324 62.004764 
L 170.332415 61.757673 
L 171.169415 61.658836 
L 171.245506 61.510582 
L 172.234688 61.411745 
L 172.234688 61.362327 
L 172.539051 61.263491 
L 172.615142 61.115236 
L 172.843415 61.115236 
L 172.919506 60.917564 
L 173.071688 60.917564 
L 173.071688 60.719891 
L 173.908688 60.621055 
L 173.908688 60.571636 
L 174.365233 60.4728 
L 174.441324 60.324545 
L 174.593506 60.324545 
L 174.593506 60.176291 
L 174.97396 60.126873 
L 175.050051 59.978618 
L 175.354415 59.879782 
L 175.430506 59.731527 
L 175.582688 59.731527 
L 175.658778 59.435018 
L 175.963142 59.435018 
L 175.963142 59.286764 
L 176.419688 59.187927 
L 176.419688 59.138509 
L 177.256687 59.089091 
L 177.256687 58.891418 
L 177.865415 58.792582 
L 177.865415 58.743164 
L 178.702415 58.644327 
L 178.702415 58.594909 
L 179.006778 58.496073 
L 179.006778 58.2984 
L 180.300324 58.199564 
L 180.376415 58.051309 
L 180.528597 58.001891 
L 180.604688 57.655964 
L 180.680778 57.655964 
L 180.680778 57.507709 
L 180.909051 57.458291 
L 180.909051 57.359455 
L 181.517778 57.260618 
L 181.517778 57.2112 
L 181.898233 57.112364 
L 181.974324 57.013527 
L 182.278688 56.964109 
L 182.278688 56.815855 
L 182.735233 56.815855 
L 182.811324 56.519345 
L 182.963506 56.519345 
L 182.963506 56.371091 
L 183.267869 56.321673 
L 183.267869 56.124 
L 183.876597 56.025164 
L 183.952688 55.827491 
L 184.409233 55.728655 
L 184.485324 55.530982 
L 185.322324 55.432145 
L 185.322324 55.382727 
L 186.159324 55.283891 
L 186.159324 55.234473 
L 186.539778 55.135636 
L 186.615869 54.888545 
L 186.996324 54.789709 
L 187.072415 54.690873 
L 187.376778 54.592036 
L 187.376778 54.542618 
L 187.681142 54.4932 
L 187.681142 54.295527 
L 187.985506 54.246109 
L 188.061597 54.097855 
L 188.442051 53.999018 
L 188.518142 53.801345 
L 189.126869 53.801345 
L 189.20296 53.455418 
L 189.279051 53.455418 
L 189.279051 53.208327 
L 190.344324 53.109491 
L 190.344324 53.060073 
L 190.496506 53.060073 
L 190.572597 52.615309 
L 191.333506 52.516473 
L 191.409597 52.417636 
L 191.71396 52.368218 
L 191.71396 52.269382 
L 192.170506 52.170545 
L 192.246597 52.071709 
L 192.779233 51.972873 
L 192.779233 51.923455 
L 193.007506 51.923455 
L 193.007506 51.528109 
L 193.311869 51.429273 
L 193.38796 51.330436 
L 194.22496 51.2316 
L 194.301051 51.132764 
L 195.138051 51.033927 
L 195.214142 50.935091 
L 195.366324 50.885673 
L 195.366324 50.786836 
L 196.203324 50.688 
L 196.203324 50.638582 
L 196.888142 50.589164 
L 196.888142 50.440909 
L 197.725142 50.342073 
L 197.725142 50.1444 
L 198.029506 50.045564 
L 198.029506 49.996145 
L 198.333869 49.897309 
L 198.333869 49.847891 
L 199.24696 49.749055 
L 199.24696 49.650218 
L 200.312233 49.551382 
L 200.388324 49.452545 
L 200.844869 49.403127 
L 200.844869 49.205455 
L 201.605778 49.106618 
L 201.605778 49.007782 
L 202.138415 48.908945 
L 202.214506 48.612436 
L 202.59496 48.5136 
L 202.59496 48.464182 
L 202.975415 48.414764 
L 203.051506 48.217091 
L 204.116778 48.118255 
L 204.116778 48.068836 
L 204.421142 47.97 
L 204.497233 47.821745 
L 204.801597 47.821745 
L 204.801597 47.673491 
L 205.866869 47.574655 
L 205.866869 47.525236 
L 206.856051 47.4264 
L 206.932142 47.327564 
L 207.008233 47.327564 
L 207.008233 47.179309 
L 207.160415 47.179309 
L 207.236506 46.981636 
L 207.61696 46.932218 
L 207.61696 46.833382 
L 207.769142 46.833382 
L 207.769142 46.685127 
L 208.225687 46.586291 
L 208.225687 46.536873 
L 208.377869 46.536873 
L 208.377869 46.289782 
L 208.606142 46.190945 
L 208.682233 45.943855 
L 209.062688 45.845018 
L 209.138778 45.746182 
L 209.899688 45.696764 
L 209.899688 45.499091 
L 210.96496 45.400255 
L 211.041051 45.202582 
L 212.030233 45.103745 
L 212.030233 45.004909 
L 212.486778 44.906073 
L 212.562869 44.757818 
L 212.943324 44.658982 
L 213.019415 44.560145 
L 213.47596 44.510727 
L 213.552051 44.362473 
L 214.236869 44.263636 
L 214.31296 44.065964 
L 214.541233 43.967127 
L 214.541233 43.917709 
L 215.682597 43.818873 
L 215.682597 43.769455 
L 215.98696 43.720036 
L 216.063051 43.571782 
L 216.747869 43.522364 
L 216.747869 43.374109 
L 217.432688 43.275273 
L 217.432688 43.176436 
L 217.889233 43.127018 
L 217.889233 43.028182 
L 218.041415 43.028182 
L 218.117506 42.781091 
L 218.726233 42.682255 
L 218.726233 42.632836 
L 218.954506 42.534 
L 218.954506 42.484582 
L 219.487142 42.385745 
L 219.563233 42.188073 
L 220.019778 42.089236 
L 220.019778 42.039818 
L 220.780687 41.940982 
L 220.780687 41.891564 
L 221.313324 41.792727 
L 221.313324 41.743309 
L 221.922051 41.644473 
L 221.922051 41.595055 
L 222.606869 41.496218 
L 222.68296 41.397382 
L 223.51996 41.347964 
L 223.51996 41.249127 
L 224.052597 41.150291 
L 224.128688 41.002036 
L 224.585233 40.9032 
L 224.661324 40.754945 
L 226.03096 40.656109 
L 226.03096 40.606691 
L 227.020142 40.507855 
L 227.020142 40.458436 
L 227.781051 40.3596 
L 227.781051 40.310182 
L 228.237597 40.211345 
L 228.313688 40.112509 
L 228.618051 40.112509 
L 228.618051 39.816 
L 229.150688 39.766582 
L 229.150688 39.667745 
L 230.063778 39.568909 
L 230.139869 39.470073 
L 230.520324 39.371236 
L 230.520324 39.321818 
L 230.824688 39.321818 
L 230.824688 39.173564 
L 231.357324 39.074727 
L 231.357324 39.025309 
L 231.966051 38.926473 
L 231.966051 38.778218 
L 232.422597 38.7288 
L 232.498688 38.580545 
L 233.411778 38.481709 
L 233.411778 38.432291 
L 234.096597 38.382873 
L 234.096597 38.284036 
L 234.553142 38.1852 
L 234.553142 38.135782 
L 235.770597 38.086364 
L 235.770597 37.938109 
L 236.303233 37.839273 
L 236.303233 37.691018 
L 236.91196 37.592182 
L 236.988051 37.443927 
L 237.520688 37.345091 
L 237.520688 37.295673 
L 237.977233 37.246255 
L 237.977233 37.098 
L 238.433778 36.999164 
L 238.433778 36.900327 
L 238.738142 36.850909 
L 238.738142 36.653236 
L 239.42296 36.603818 
L 239.499051 36.455564 
L 240.412142 36.356727 
L 240.488233 36.257891 
L 241.325233 36.159055 
L 241.325233 36.109636 
L 241.629597 36.0108 
L 241.629597 35.961382 
L 242.694869 35.862545 
L 242.694869 35.763709 
L 243.227506 35.664873 
L 243.227506 35.615455 
L 243.60796 35.516618 
L 243.60796 35.368364 
L 244.292778 35.269527 
L 244.292778 35.220109 
L 244.521051 35.121273 
L 244.521051 35.071855 
L 244.901506 35.022436 
L 244.901506 34.9236 
L 245.510233 34.824764 
L 245.510233 34.775345 
L 246.575506 34.676509 
L 246.651597 34.429418 
L 246.727688 34.429418 
L 246.727688 34.281164 
L 247.412506 34.231745 
L 247.412506 34.132909 
L 247.869051 34.034073 
L 247.869051 33.984655 
L 248.097324 33.984655 
L 248.097324 33.8364 
L 248.934324 33.737564 
L 249.010415 33.589309 
L 249.390869 33.539891 
L 249.390869 33.441055 
L 249.695233 33.342218 
L 249.695233 33.2928 
L 250.151778 33.193964 
L 250.151778 33.095127 
L 250.760506 32.996291 
L 250.836597 32.848036 
L 250.988778 32.848036 
L 250.988778 32.699782 
L 252.130142 32.600945 
L 252.206233 32.452691 
L 252.662778 32.353855 
L 252.662778 32.304436 
L 253.043233 32.2056 
L 253.043233 32.106764 
L 253.499778 32.007927 
L 253.499778 31.958509 
L 254.48896 31.859673 
L 254.48896 31.760836 
L 254.945506 31.662 
L 255.021597 31.513745 
L 256.010778 31.414909 
L 256.086869 31.167818 
L 256.847778 31.1184 
L 256.923869 30.970145 
L 257.456506 30.970145 
L 257.456506 30.821891 
L 258.217415 30.723055 
L 258.217415 30.525382 
L 258.369597 30.525382 
L 258.445688 30.278291 
L 258.902233 30.179455 
L 258.902233 30.130036 
L 259.587051 30.0312 
L 259.587051 29.981782 
L 260.652324 29.932364 
L 260.652324 29.784109 
L 261.108869 29.784109 
L 261.18496 29.586436 
L 262.402415 29.4876 
L 262.478506 29.289927 
L 263.011142 29.240509 
L 263.011142 29.141673 
L 263.315506 29.141673 
L 263.315506 28.993418 
L 264.000324 28.894582 
L 264.000324 28.795745 
L 264.837324 28.746327 
L 264.837324 28.647491 
L 265.217778 28.647491 
L 265.293869 28.4004 
L 266.359142 28.301564 
L 266.435233 28.153309 
L 267.728778 28.054473 
L 267.728778 27.955636 
L 268.033142 27.8568 
L 268.033142 27.807382 
L 268.794051 27.708545 
L 268.794051 27.609709 
L 269.707142 27.510873 
L 269.707142 27.412036 
L 270.620233 27.3132 
L 270.620233 27.263782 
L 271.000688 27.214364 
L 271.000688 27.066109 
L 271.913778 26.967273 
L 271.913778 26.917855 
L 272.522506 26.819018 
L 272.598597 26.720182 
L 273.663869 26.621345 
L 273.663869 26.571927 
L 274.729142 26.473091 
L 274.729142 26.324836 
L 275.337869 26.226 
L 275.337869 26.176582 
L 276.783597 26.077745 
L 276.859688 25.929491 
L 277.544506 25.830655 
L 277.620597 25.6824 
L 278.609778 25.583564 
L 278.609778 25.534145 
L 280.207688 25.435309 
L 280.207688 25.385891 
L 281.349051 25.287055 
L 281.349051 25.237636 
L 281.729506 25.1388 
L 281.729506 25.089382 
L 282.338233 24.990545 
L 282.338233 24.941127 
L 284.088324 24.842291 
L 284.088324 24.792873 
L 284.316597 24.743455 
L 284.316597 24.644618 
L 285.153597 24.545782 
L 285.153597 24.496364 
L 286.371051 24.397527 
L 286.371051 24.348109 
L 286.827597 24.298691 
L 286.827597 24.199855 
L 287.436324 24.101018 
L 287.512415 24.002182 
L 288.349415 23.903345 
L 288.349415 23.853927 
L 288.958142 23.804509 
L 288.958142 23.606836 
L 289.338597 23.557418 
L 289.338597 23.458582 
L 291.469142 23.359745 
L 291.469142 23.310327 
L 292.077869 23.211491 
L 292.077869 23.162073 
L 292.99096 23.063236 
L 293.067051 22.9644 
L 294.284506 22.865564 
L 294.284506 22.816145 
L 295.045415 22.717309 
L 295.045415 22.618473 
L 296.491142 22.519636 
L 296.491142 22.470218 
L 297.328142 22.4208 
L 297.404233 22.272545 
L 299.002142 22.173709 
L 299.078233 22.074873 
L 300.295688 21.976036 
L 300.295688 21.926618 
L 301.513142 21.827782 
L 301.513142 21.679527 
L 301.893597 21.580691 
L 301.893597 21.531273 
L 302.502324 21.432436 
L 302.502324 21.383018 
L 303.263233 21.3336 
L 303.263233 21.234764 
L 304.100233 21.135927 
L 304.100233 21.086509 
L 304.632869 20.987673 
L 304.70896 20.888836 
L 305.622051 20.79 
L 305.622051 20.740582 
L 306.306869 20.641745 
L 306.306869 20.592327 
L 307.524324 20.493491 
L 307.524324 20.444073 
L 308.05696 20.444073 
L 308.05696 20.2464 
L 308.589597 20.196982 
L 308.589597 20.098145 
L 309.198324 20.048727 
L 309.198324 19.949891 
L 310.035324 19.851055 
L 310.111415 19.7028 
L 310.491869 19.603964 
L 310.491869 19.554545 
L 311.709324 19.455709 
L 311.785415 19.307455 
L 312.774597 19.208618 
L 312.774597 19.1592 
L 313.839869 19.060364 
L 313.91596 18.961527 
L 315.361688 18.862691 
L 315.437778 18.763855 
L 317.187869 18.665018 
L 317.187869 18.566182 
L 318.10096 18.467345 
L 318.10096 18.417927 
L 320.764142 18.319091 
L 320.764142 18.269673 
L 322.209869 18.170836 
L 322.28596 18.072 
L 325.938324 17.973164 
L 325.938324 17.923745 
L 331.49296 17.824909 
L 331.49296 17.775491 
L 333.319142 17.676655 
L 333.395233 17.5284 
L 340.167324 17.429564 
L 340.167324 17.380145 
L 342.526142 17.281309 
L 342.526142 17.231891 
L 358.353051 17.133055 
L 358.353051 17.083636 
L 366.266506 17.083636 
L 366.266506 17.083636 
" clip-path="url(#p7732758745)" style="fill: none; stroke: #ff7f0e; stroke-width: 1.5; stroke-linecap: square"/>
   </g>
   <g id="patch_3">
    <path d="M 46.684688 224.64 
L 46.684688 7.2 
" style="fill: none; stroke: #000000; stroke-width: 0.8; stroke-linejoin: miter; stroke-linecap: square"/>
   </g>
   <g id="patch_4">
    <path d="M 381.484688 224.64 
L 381.484688 7.2 
" style="fill: none; stroke: #000000; stroke-width: 0.8; stroke-linejoin: miter; stroke-linecap: square"/>
   </g>
   <g id="patch_5">
    <path d="M 46.684688 224.64 
L 381.484688 224.64 
" style="fill: none; stroke: #000000; stroke-width: 0.8; stroke-linejoin: miter; stroke-linecap: square"/>
   </g>
   <g id="patch_6">
    <path d="M 46.684688 7.2 
L 381.484688 7.2 
" style="fill: none; stroke: #000000; stroke-width: 0.8; stroke-linejoin: miter; stroke-linecap: square"/>
   </g>
   <g id="legend_1">
    <g id="patch_7">
     <path d="M 184.62 218.14 
L 372.384687 218.14 
Q 374.984688 218.14 374.984688 215.54 
L 374.984688 178.676875 
Q 374.984688 176.076875 372.384687 176.076875 
L 184.62 176.076875 
Q 182.02 176.076875 182.02 178.676875 
L 182.02 215.54 
Q 182.02 218.14 184.62 218.14 
z
" style="fill: #ffffff; opacity: 0.8; stroke: #cccccc; stroke-linejoin: miter"/>
    </g>
    <g id="line2d_15">
     <path d="M 187.22 186.604844 
L 200.22 186.604844 
L 213.22 186.604844 
" style="fill: none; stroke: #1f77b4; stroke-width: 1.5; stroke-linecap: square"/>
    </g>
    <g id="text_15">
     <!-- RotInvVAE, auc=0.912 -->
     <g transform="translate(223.62 191.154844) scale(0.13 -0.13)">
      <defs>
       <path id="DejaVuSans-49" d="M 628 4666 
L 1259 4666 
L 1259 0 
L 628 0 
L 628 4666 
z
" transform="scale(0.015625)"/>
       <path id="DejaVuSans-6e" d="M 3513 2113 
L 3513 0 
L 2938 0 
L 2938 2094 
Q 2938 2591 2744 2837 
Q 2550 3084 2163 3084 
Q 1697 3084 1428 2787 
Q 1159 2491 1159 1978 
L 1159 0 
L 581 0 
L 581 3500 
L 1159 3500 
L 1159 2956 
Q 1366 3272 1645 3428 
Q 1925 3584 2291 3584 
Q 2894 3584 3203 3211 
Q 3513 2838 3513 2113 
z
" transform="scale(0.015625)"/>
       <path id="DejaVuSans-56" d="M 1831 0 
L 50 4666 
L 709 4666 
L 2188 738 
L 3669 4666 
L 4325 4666 
L 2547 0 
L 1831 0 
z
" transform="scale(0.015625)"/>
       <path id="DejaVuSans-41" d="M 2188 4044 
L 1331 1722 
L 3047 1722 
L 2188 4044 
z
M 1831 4666 
L 2547 4666 
L 4325 0 
L 3669 0 
L 3244 1197 
L 1141 1197 
L 716 0 
L 50 0 
L 1831 4666 
z
" transform="scale(0.015625)"/>
       <path id="DejaVuSans-45" d="M 628 4666 
L 3578 4666 
L 3578 4134 
L 1259 4134 
L 1259 2753 
L 3481 2753 
L 3481 2222 
L 1259 2222 
L 1259 531 
L 3634 531 
L 3634 0 
L 628 0 
L 628 4666 
z
" transform="scale(0.015625)"/>
       <path id="DejaVuSans-2c" d="M 750 794 
L 1409 794 
L 1409 256 
L 897 -744 
L 494 -744 
L 750 256 
L 750 794 
z
" transform="scale(0.015625)"/>
       <path id="DejaVuSans-63" d="M 3122 3366 
L 3122 2828 
Q 2878 2963 2633 3030 
Q 2388 3097 2138 3097 
Q 1578 3097 1268 2742 
Q 959 2388 959 1747 
Q 959 1106 1268 751 
Q 1578 397 2138 397 
Q 2388 397 2633 464 
Q 2878 531 3122 666 
L 3122 134 
Q 2881 22 2623 -34 
Q 2366 -91 2075 -91 
Q 1284 -91 818 406 
Q 353 903 353 1747 
Q 353 2603 823 3093 
Q 1294 3584 2113 3584 
Q 2378 3584 2631 3529 
Q 2884 3475 3122 3366 
z
" transform="scale(0.015625)"/>
       <path id="DejaVuSans-3d" d="M 678 2906 
L 4684 2906 
L 4684 2381 
L 678 2381 
L 678 2906 
z
M 678 1631 
L 4684 1631 
L 4684 1100 
L 678 1100 
L 678 1631 
z
" transform="scale(0.015625)"/>
       <path id="DejaVuSans-39" d="M 703 97 
L 703 672 
Q 941 559 1184 500 
Q 1428 441 1663 441 
Q 2288 441 2617 861 
Q 2947 1281 2994 2138 
Q 2813 1869 2534 1725 
Q 2256 1581 1919 1581 
Q 1219 1581 811 2004 
Q 403 2428 403 3163 
Q 403 3881 828 4315 
Q 1253 4750 1959 4750 
Q 2769 4750 3195 4129 
Q 3622 3509 3622 2328 
Q 3622 1225 3098 567 
Q 2575 -91 1691 -91 
Q 1453 -91 1209 -44 
Q 966 3 703 97 
z
M 1959 2075 
Q 2384 2075 2632 2365 
Q 2881 2656 2881 3163 
Q 2881 3666 2632 3958 
Q 2384 4250 1959 4250 
Q 1534 4250 1286 3958 
Q 1038 3666 1038 3163 
Q 1038 2656 1286 2365 
Q 1534 2075 1959 2075 
z
" transform="scale(0.015625)"/>
      </defs>
      <use xlink:href="#DejaVuSans-52"/>
      <use xlink:href="#DejaVuSans-6f" x="64.982422"/>
      <use xlink:href="#DejaVuSans-74" x="126.164062"/>
      <use xlink:href="#DejaVuSans-49" x="165.373047"/>
      <use xlink:href="#DejaVuSans-6e" x="194.865234"/>
      <use xlink:href="#DejaVuSans-76" x="258.244141"/>
      <use xlink:href="#DejaVuSans-56" x="317.423828"/>
      <use xlink:href="#DejaVuSans-41" x="379.457031"/>
      <use xlink:href="#DejaVuSans-45" x="447.865234"/>
      <use xlink:href="#DejaVuSans-2c" x="511.048828"/>
      <use xlink:href="#DejaVuSans-20" x="542.835938"/>
      <use xlink:href="#DejaVuSans-61" x="574.623047"/>
      <use xlink:href="#DejaVuSans-75" x="635.902344"/>
      <use xlink:href="#DejaVuSans-63" x="699.28125"/>
      <use xlink:href="#DejaVuSans-3d" x="754.261719"/>
      <use xlink:href="#DejaVuSans-30" x="838.050781"/>
      <use xlink:href="#DejaVuSans-2e" x="901.673828"/>
      <use xlink:href="#DejaVuSans-39" x="933.460938"/>
      <use xlink:href="#DejaVuSans-31" x="997.083984"/>
      <use xlink:href="#DejaVuSans-32" x="1060.707031"/>
     </g>
    </g>
    <g id="line2d_16">
     <path d="M 187.22 205.686406 
L 200.22 205.686406 
L 213.22 205.686406 
" style="fill: none; stroke: #ff7f0e; stroke-width: 1.5; stroke-linecap: square"/>
    </g>
    <g id="text_16">
     <!-- VAE, auc=0.800 -->
     <g transform="translate(223.62 210.236406) scale(0.13 -0.13)">
      <use xlink:href="#DejaVuSans-56"/>
      <use xlink:href="#DejaVuSans-41" x="62.033203"/>
      <use xlink:href="#DejaVuSans-45" x="130.441406"/>
      <use xlink:href="#DejaVuSans-2c" x="193.625"/>
      <use xlink:href="#DejaVuSans-20" x="225.412109"/>
      <use xlink:href="#DejaVuSans-61" x="257.199219"/>
      <use xlink:href="#DejaVuSans-75" x="318.478516"/>
      <use xlink:href="#DejaVuSans-63" x="381.857422"/>
      <use xlink:href="#DejaVuSans-3d" x="436.837891"/>
      <use xlink:href="#DejaVuSans-30" x="520.626953"/>
      <use xlink:href="#DejaVuSans-2e" x="584.25"/>
      <use xlink:href="#DejaVuSans-38" x="616.037109"/>
      <use xlink:href="#DejaVuSans-30" x="679.660156"/>
      <use xlink:href="#DejaVuSans-30" x="743.283203"/>
     </g>
    </g>
   </g>
  </g>
 </g>
 <defs>
  <clipPath id="p7732758745">
   <rect x="46.684688" y="7.2" width="334.8" height="217.44"/>
  </clipPath>
 </defs>
</svg>
