<?xml version="1.0" encoding="utf-8" standalone="no"?>
<!DOCTYPE svg PUBLIC "-//W3C//DTD SVG 1.1//EN"
  "http://www.w3.org/Graphics/SVG/1.1/DTD/svg11.dtd">
<svg xmlns:xlink="http://www.w3.org/1999/xlink" width="388.684687pt" height="265.099687pt" viewBox="0 0 388.684687 265.099687" xmlns="http://www.w3.org/2000/svg" version="1.1">
 <metadata>
  <rdf:RDF xmlns:dc="http://purl.org/dc/elements/1.1/" xmlns:cc="http://creativecommons.org/ns#" xmlns:rdf="http://www.w3.org/1999/02/22-rdf-syntax-ns#">
   <cc:Work>
    <dc:type rdf:resource="http://purl.org/dc/dcmitype/StillImage"/>
    <dc:date>2023-02-01T23:00:32.609808</dc:date>
    <dc:format>image/svg+xml</dc:format>
    <dc:creator>
     <cc:Agent>
      <dc:title>Matplotlib v3.6.3, https://matplotlib.org/</dc:title>
     </cc:Agent>
    </dc:creator>
   </cc:Work>
  </rdf:RDF>
 </metadata>
 <defs>
  <style type="text/css">*{stroke-linejoin: round; stroke-linecap: butt}</style>
 </defs>
 <g id="figure_1">
  <g id="patch_1">
   <path d="M 0 265.099687 
L 388.684687 265.099687 
L 388.684687 0 
L 0 0 
L 0 265.099687 
z
" style="fill: none"/>
  </g>
  <g id="axes_1">
   <g id="patch_2">
    <path d="M 46.684688 224.64 
L 381.484688 224.64 
L 381.484688 7.2 
L 46.684688 7.2 
z
" style="fill: #ffffff"/>
   </g>
   <g id="matplotlib.axis_1">
    <g id="xtick_1">
     <g id="line2d_1">
      <defs>
       <path id="m0b07103e09" d="M 0 0 
L 0 3.5 
" style="stroke: #000000; stroke-width: 0.8"/>
      </defs>
      <g>
       <use xlink:href="#m0b07103e09" x="61.902869" y="224.64" style="stroke: #000000; stroke-width: 0.8"/>
      </g>
     </g>
     <g id="text_1">
      <!-- 0.0 -->
      <g transform="translate(53.951307 239.238437) scale(0.1 -0.1)">
       <defs>
        <path id="DejaVuSans-30" d="M 2034 4250 
Q 1547 4250 1301 3770 
Q 1056 3291 1056 2328 
Q 1056 1369 1301 889 
Q 1547 409 2034 409 
Q 2525 409 2770 889 
Q 3016 1369 3016 2328 
Q 3016 3291 2770 3770 
Q 2525 4250 2034 4250 
z
M 2034 4750 
Q 2819 4750 3233 4129 
Q 3647 3509 3647 2328 
Q 3647 1150 3233 529 
Q 2819 -91 2034 -91 
Q 1250 -91 836 529 
Q 422 1150 422 2328 
Q 422 3509 836 4129 
Q 1250 4750 2034 4750 
z
" transform="scale(0.015625)"/>
        <path id="DejaVuSans-2e" d="M 684 794 
L 1344 794 
L 1344 0 
L 684 0 
L 684 794 
z
" transform="scale(0.015625)"/>
       </defs>
       <use xlink:href="#DejaVuSans-30"/>
       <use xlink:href="#DejaVuSans-2e" x="63.623047"/>
       <use xlink:href="#DejaVuSans-30" x="95.410156"/>
      </g>
     </g>
    </g>
    <g id="xtick_2">
     <g id="line2d_2">
      <g>
       <use xlink:href="#m0b07103e09" x="122.775597" y="224.64" style="stroke: #000000; stroke-width: 0.8"/>
      </g>
     </g>
     <g id="text_2">
      <!-- 0.2 -->
      <g transform="translate(114.824034 239.238437) scale(0.1 -0.1)">
       <defs>
        <path id="DejaVuSans-32" d="M 1228 531 
L 3431 531 
L 3431 0 
L 469 0 
L 469 531 
Q 828 903 1448 1529 
Q 2069 2156 2228 2338 
Q 2531 2678 2651 2914 
Q 2772 3150 2772 3378 
Q 2772 3750 2511 3984 
Q 2250 4219 1831 4219 
Q 1534 4219 1204 4116 
Q 875 4013 500 3803 
L 500 4441 
Q 881 4594 1212 4672 
Q 1544 4750 1819 4750 
Q 2544 4750 2975 4387 
Q 3406 4025 3406 3419 
Q 3406 3131 3298 2873 
Q 3191 2616 2906 2266 
Q 2828 2175 2409 1742 
Q 1991 1309 1228 531 
z
" transform="scale(0.015625)"/>
       </defs>
       <use xlink:href="#DejaVuSans-30"/>
       <use xlink:href="#DejaVuSans-2e" x="63.623047"/>
       <use xlink:href="#DejaVuSans-32" x="95.410156"/>
      </g>
     </g>
    </g>
    <g id="xtick_3">
     <g id="line2d_3">
      <g>
       <use xlink:href="#m0b07103e09" x="183.648324" y="224.64" style="stroke: #000000; stroke-width: 0.8"/>
      </g>
     </g>
     <g id="text_3">
      <!-- 0.4 -->
      <g transform="translate(175.696761 239.238437) scale(0.1 -0.1)">
       <defs>
        <path id="DejaVuSans-34" d="M 2419 4116 
L 825 1625 
L 2419 1625 
L 2419 4116 
z
M 2253 4666 
L 3047 4666 
L 3047 1625 
L 3713 1625 
L 3713 1100 
L 3047 1100 
L 3047 0 
L 2419 0 
L 2419 1100 
L 313 1100 
L 313 1709 
L 2253 4666 
z
" transform="scale(0.015625)"/>
       </defs>
       <use xlink:href="#DejaVuSans-30"/>
       <use xlink:href="#DejaVuSans-2e" x="63.623047"/>
       <use xlink:href="#DejaVuSans-34" x="95.410156"/>
      </g>
     </g>
    </g>
    <g id="xtick_4">
     <g id="line2d_4">
      <g>
       <use xlink:href="#m0b07103e09" x="244.521051" y="224.64" style="stroke: #000000; stroke-width: 0.8"/>
      </g>
     </g>
     <g id="text_4">
      <!-- 0.6 -->
      <g transform="translate(236.569489 239.238437) scale(0.1 -0.1)">
       <defs>
        <path id="DejaVuSans-36" d="M 2113 2584 
Q 1688 2584 1439 2293 
Q 1191 2003 1191 1497 
Q 1191 994 1439 701 
Q 1688 409 2113 409 
Q 2538 409 2786 701 
Q 3034 994 3034 1497 
Q 3034 2003 2786 2293 
Q 2538 2584 2113 2584 
z
M 3366 4563 
L 3366 3988 
Q 3128 4100 2886 4159 
Q 2644 4219 2406 4219 
Q 1781 4219 1451 3797 
Q 1122 3375 1075 2522 
Q 1259 2794 1537 2939 
Q 1816 3084 2150 3084 
Q 2853 3084 3261 2657 
Q 3669 2231 3669 1497 
Q 3669 778 3244 343 
Q 2819 -91 2113 -91 
Q 1303 -91 875 529 
Q 447 1150 447 2328 
Q 447 3434 972 4092 
Q 1497 4750 2381 4750 
Q 2619 4750 2861 4703 
Q 3103 4656 3366 4563 
z
" transform="scale(0.015625)"/>
       </defs>
       <use xlink:href="#DejaVuSans-30"/>
       <use xlink:href="#DejaVuSans-2e" x="63.623047"/>
       <use xlink:href="#DejaVuSans-36" x="95.410156"/>
      </g>
     </g>
    </g>
    <g id="xtick_5">
     <g id="line2d_5">
      <g>
       <use xlink:href="#m0b07103e09" x="305.393778" y="224.64" style="stroke: #000000; stroke-width: 0.8"/>
      </g>
     </g>
     <g id="text_5">
      <!-- 0.8 -->
      <g transform="translate(297.442216 239.238437) scale(0.1 -0.1)">
       <defs>
        <path id="DejaVuSans-38" d="M 2034 2216 
Q 1584 2216 1326 1975 
Q 1069 1734 1069 1313 
Q 1069 891 1326 650 
Q 1584 409 2034 409 
Q 2484 409 2743 651 
Q 3003 894 3003 1313 
Q 3003 1734 2745 1975 
Q 2488 2216 2034 2216 
z
M 1403 2484 
Q 997 2584 770 2862 
Q 544 3141 544 3541 
Q 544 4100 942 4425 
Q 1341 4750 2034 4750 
Q 2731 4750 3128 4425 
Q 3525 4100 3525 3541 
Q 3525 3141 3298 2862 
Q 3072 2584 2669 2484 
Q 3125 2378 3379 2068 
Q 3634 1759 3634 1313 
Q 3634 634 3220 271 
Q 2806 -91 2034 -91 
Q 1263 -91 848 271 
Q 434 634 434 1313 
Q 434 1759 690 2068 
Q 947 2378 1403 2484 
z
M 1172 3481 
Q 1172 3119 1398 2916 
Q 1625 2713 2034 2713 
Q 2441 2713 2670 2916 
Q 2900 3119 2900 3481 
Q 2900 3844 2670 4047 
Q 2441 4250 2034 4250 
Q 1625 4250 1398 4047 
Q 1172 3844 1172 3481 
z
" transform="scale(0.015625)"/>
       </defs>
       <use xlink:href="#DejaVuSans-30"/>
       <use xlink:href="#DejaVuSans-2e" x="63.623047"/>
       <use xlink:href="#DejaVuSans-38" x="95.410156"/>
      </g>
     </g>
    </g>
    <g id="xtick_6">
     <g id="line2d_6">
      <g>
       <use xlink:href="#m0b07103e09" x="366.266506" y="224.64" style="stroke: #000000; stroke-width: 0.8"/>
      </g>
     </g>
     <g id="text_6">
      <!-- 1.0 -->
      <g transform="translate(358.314943 239.238437) scale(0.1 -0.1)">
       <defs>
        <path id="DejaVuSans-31" d="M 794 531 
L 1825 531 
L 1825 4091 
L 703 3866 
L 703 4441 
L 1819 4666 
L 2450 4666 
L 2450 531 
L 3481 531 
L 3481 0 
L 794 0 
L 794 531 
z
" transform="scale(0.015625)"/>
       </defs>
       <use xlink:href="#DejaVuSans-31"/>
       <use xlink:href="#DejaVuSans-2e" x="63.623047"/>
       <use xlink:href="#DejaVuSans-30" x="95.410156"/>
      </g>
     </g>
    </g>
    <g id="text_7">
     <!-- False Positive Rate -->
     <g transform="translate(153.678359 255.196094) scale(0.13 -0.13)">
      <defs>
       <path id="DejaVuSans-46" d="M 628 4666 
L 3309 4666 
L 3309 4134 
L 1259 4134 
L 1259 2759 
L 3109 2759 
L 3109 2228 
L 1259 2228 
L 1259 0 
L 628 0 
L 628 4666 
z
" transform="scale(0.015625)"/>
       <path id="DejaVuSans-61" d="M 2194 1759 
Q 1497 1759 1228 1600 
Q 959 1441 959 1056 
Q 959 750 1161 570 
Q 1363 391 1709 391 
Q 2188 391 2477 730 
Q 2766 1069 2766 1631 
L 2766 1759 
L 2194 1759 
z
M 3341 1997 
L 3341 0 
L 2766 0 
L 2766 531 
Q 2569 213 2275 61 
Q 1981 -91 1556 -91 
Q 1019 -91 701 211 
Q 384 513 384 1019 
Q 384 1609 779 1909 
Q 1175 2209 1959 2209 
L 2766 2209 
L 2766 2266 
Q 2766 2663 2505 2880 
Q 2244 3097 1772 3097 
Q 1472 3097 1187 3025 
Q 903 2953 641 2809 
L 641 3341 
Q 956 3463 1253 3523 
Q 1550 3584 1831 3584 
Q 2591 3584 2966 3190 
Q 3341 2797 3341 1997 
z
" transform="scale(0.015625)"/>
       <path id="DejaVuSans-6c" d="M 603 4863 
L 1178 4863 
L 1178 0 
L 603 0 
L 603 4863 
z
" transform="scale(0.015625)"/>
       <path id="DejaVuSans-73" d="M 2834 3397 
L 2834 2853 
Q 2591 2978 2328 3040 
Q 2066 3103 1784 3103 
Q 1356 3103 1142 2972 
Q 928 2841 928 2578 
Q 928 2378 1081 2264 
Q 1234 2150 1697 2047 
L 1894 2003 
Q 2506 1872 2764 1633 
Q 3022 1394 3022 966 
Q 3022 478 2636 193 
Q 2250 -91 1575 -91 
Q 1294 -91 989 -36 
Q 684 19 347 128 
L 347 722 
Q 666 556 975 473 
Q 1284 391 1588 391 
Q 1994 391 2212 530 
Q 2431 669 2431 922 
Q 2431 1156 2273 1281 
Q 2116 1406 1581 1522 
L 1381 1569 
Q 847 1681 609 1914 
Q 372 2147 372 2553 
Q 372 3047 722 3315 
Q 1072 3584 1716 3584 
Q 2034 3584 2315 3537 
Q 2597 3491 2834 3397 
z
" transform="scale(0.015625)"/>
       <path id="DejaVuSans-65" d="M 3597 1894 
L 3597 1613 
L 953 1613 
Q 991 1019 1311 708 
Q 1631 397 2203 397 
Q 2534 397 2845 478 
Q 3156 559 3463 722 
L 3463 178 
Q 3153 47 2828 -22 
Q 2503 -91 2169 -91 
Q 1331 -91 842 396 
Q 353 884 353 1716 
Q 353 2575 817 3079 
Q 1281 3584 2069 3584 
Q 2775 3584 3186 3129 
Q 3597 2675 3597 1894 
z
M 3022 2063 
Q 3016 2534 2758 2815 
Q 2500 3097 2075 3097 
Q 1594 3097 1305 2825 
Q 1016 2553 972 2059 
L 3022 2063 
z
" transform="scale(0.015625)"/>
       <path id="DejaVuSans-20" transform="scale(0.015625)"/>
       <path id="DejaVuSans-50" d="M 1259 4147 
L 1259 2394 
L 2053 2394 
Q 2494 2394 2734 2622 
Q 2975 2850 2975 3272 
Q 2975 3691 2734 3919 
Q 2494 4147 2053 4147 
L 1259 4147 
z
M 628 4666 
L 2053 4666 
Q 2838 4666 3239 4311 
Q 3641 3956 3641 3272 
Q 3641 2581 3239 2228 
Q 2838 1875 2053 1875 
L 1259 1875 
L 1259 0 
L 628 0 
L 628 4666 
z
" transform="scale(0.015625)"/>
       <path id="DejaVuSans-6f" d="M 1959 3097 
Q 1497 3097 1228 2736 
Q 959 2375 959 1747 
Q 959 1119 1226 758 
Q 1494 397 1959 397 
Q 2419 397 2687 759 
Q 2956 1122 2956 1747 
Q 2956 2369 2687 2733 
Q 2419 3097 1959 3097 
z
M 1959 3584 
Q 2709 3584 3137 3096 
Q 3566 2609 3566 1747 
Q 3566 888 3137 398 
Q 2709 -91 1959 -91 
Q 1206 -91 779 398 
Q 353 888 353 1747 
Q 353 2609 779 3096 
Q 1206 3584 1959 3584 
z
" transform="scale(0.015625)"/>
       <path id="DejaVuSans-69" d="M 603 3500 
L 1178 3500 
L 1178 0 
L 603 0 
L 603 3500 
z
M 603 4863 
L 1178 4863 
L 1178 4134 
L 603 4134 
L 603 4863 
z
" transform="scale(0.015625)"/>
       <path id="DejaVuSans-74" d="M 1172 4494 
L 1172 3500 
L 2356 3500 
L 2356 3053 
L 1172 3053 
L 1172 1153 
Q 1172 725 1289 603 
Q 1406 481 1766 481 
L 2356 481 
L 2356 0 
L 1766 0 
Q 1100 0 847 248 
Q 594 497 594 1153 
L 594 3053 
L 172 3053 
L 172 3500 
L 594 3500 
L 594 4494 
L 1172 4494 
z
" transform="scale(0.015625)"/>
       <path id="DejaVuSans-76" d="M 191 3500 
L 800 3500 
L 1894 563 
L 2988 3500 
L 3597 3500 
L 2284 0 
L 1503 0 
L 191 3500 
z
" transform="scale(0.015625)"/>
       <path id="DejaVuSans-52" d="M 2841 2188 
Q 3044 2119 3236 1894 
Q 3428 1669 3622 1275 
L 4263 0 
L 3584 0 
L 2988 1197 
Q 2756 1666 2539 1819 
Q 2322 1972 1947 1972 
L 1259 1972 
L 1259 0 
L 628 0 
L 628 4666 
L 2053 4666 
Q 2853 4666 3247 4331 
Q 3641 3997 3641 3322 
Q 3641 2881 3436 2590 
Q 3231 2300 2841 2188 
z
M 1259 4147 
L 1259 2491 
L 2053 2491 
Q 2509 2491 2742 2702 
Q 2975 2913 2975 3322 
Q 2975 3731 2742 3939 
Q 2509 4147 2053 4147 
L 1259 4147 
z
" transform="scale(0.015625)"/>
      </defs>
      <use xlink:href="#DejaVuSans-46"/>
      <use xlink:href="#DejaVuSans-61" x="48.394531"/>
      <use xlink:href="#DejaVuSans-6c" x="109.673828"/>
      <use xlink:href="#DejaVuSans-73" x="137.457031"/>
      <use xlink:href="#DejaVuSans-65" x="189.556641"/>
      <use xlink:href="#DejaVuSans-20" x="251.080078"/>
      <use xlink:href="#DejaVuSans-50" x="282.867188"/>
      <use xlink:href="#DejaVuSans-6f" x="339.544922"/>
      <use xlink:href="#DejaVuSans-73" x="400.726562"/>
      <use xlink:href="#DejaVuSans-69" x="452.826172"/>
      <use xlink:href="#DejaVuSans-74" x="480.609375"/>
      <use xlink:href="#DejaVuSans-69" x="519.818359"/>
      <use xlink:href="#DejaVuSans-76" x="547.601562"/>
      <use xlink:href="#DejaVuSans-65" x="606.78125"/>
      <use xlink:href="#DejaVuSans-20" x="668.304688"/>
      <use xlink:href="#DejaVuSans-52" x="700.091797"/>
      <use xlink:href="#DejaVuSans-61" x="767.324219"/>
      <use xlink:href="#DejaVuSans-74" x="828.603516"/>
      <use xlink:href="#DejaVuSans-65" x="867.8125"/>
     </g>
    </g>
   </g>
   <g id="matplotlib.axis_2">
    <g id="ytick_1">
     <g id="line2d_7">
      <defs>
       <path id="m9beb5ea990" d="M 0 0 
L -3.5 0 
" style="stroke: #000000; stroke-width: 0.8"/>
      </defs>
      <g>
       <use xlink:href="#m9beb5ea990" x="46.684688" y="214.756364" style="stroke: #000000; stroke-width: 0.8"/>
      </g>
     </g>
     <g id="text_8">
      <!-- 0.0 -->
      <g transform="translate(23.781563 218.555582) scale(0.1 -0.1)">
       <use xlink:href="#DejaVuSans-30"/>
       <use xlink:href="#DejaVuSans-2e" x="63.623047"/>
       <use xlink:href="#DejaVuSans-30" x="95.410156"/>
      </g>
     </g>
    </g>
    <g id="ytick_2">
     <g id="line2d_8">
      <g>
       <use xlink:href="#m9beb5ea990" x="46.684688" y="175.221818" style="stroke: #000000; stroke-width: 0.8"/>
      </g>
     </g>
     <g id="text_9">
      <!-- 0.2 -->
      <g transform="translate(23.781563 179.021037) scale(0.1 -0.1)">
       <use xlink:href="#DejaVuSans-30"/>
       <use xlink:href="#DejaVuSans-2e" x="63.623047"/>
       <use xlink:href="#DejaVuSans-32" x="95.410156"/>
      </g>
     </g>
    </g>
    <g id="ytick_3">
     <g id="line2d_9">
      <g>
       <use xlink:href="#m9beb5ea990" x="46.684688" y="135.687273" style="stroke: #000000; stroke-width: 0.8"/>
      </g>
     </g>
     <g id="text_10">
      <!-- 0.4 -->
      <g transform="translate(23.781563 139.486491) scale(0.1 -0.1)">
       <use xlink:href="#DejaVuSans-30"/>
       <use xlink:href="#DejaVuSans-2e" x="63.623047"/>
       <use xlink:href="#DejaVuSans-34" x="95.410156"/>
      </g>
     </g>
    </g>
    <g id="ytick_4">
     <g id="line2d_10">
      <g>
       <use xlink:href="#m9beb5ea990" x="46.684688" y="96.152727" style="stroke: #000000; stroke-width: 0.8"/>
      </g>
     </g>
     <g id="text_11">
      <!-- 0.6 -->
      <g transform="translate(23.781563 99.951946) scale(0.1 -0.1)">
       <use xlink:href="#DejaVuSans-30"/>
       <use xlink:href="#DejaVuSans-2e" x="63.623047"/>
       <use xlink:href="#DejaVuSans-36" x="95.410156"/>
      </g>
     </g>
    </g>
    <g id="ytick_5">
     <g id="line2d_11">
      <g>
       <use xlink:href="#m9beb5ea990" x="46.684688" y="56.618182" style="stroke: #000000; stroke-width: 0.8"/>
      </g>
     </g>
     <g id="text_12">
      <!-- 0.8 -->
      <g transform="translate(23.781563 60.417401) scale(0.1 -0.1)">
       <use xlink:href="#DejaVuSans-30"/>
       <use xlink:href="#DejaVuSans-2e" x="63.623047"/>
       <use xlink:href="#DejaVuSans-38" x="95.410156"/>
      </g>
     </g>
    </g>
    <g id="ytick_6">
     <g id="line2d_12">
      <g>
       <use xlink:href="#m9beb5ea990" x="46.684688" y="17.083636" style="stroke: #000000; stroke-width: 0.8"/>
      </g>
     </g>
     <g id="text_13">
      <!-- 1.0 -->
      <g transform="translate(23.781563 20.882855) scale(0.1 -0.1)">
       <use xlink:href="#DejaVuSans-31"/>
       <use xlink:href="#DejaVuSans-2e" x="63.623047"/>
       <use xlink:href="#DejaVuSans-30" x="95.410156"/>
      </g>
     </g>
    </g>
    <g id="text_14">
     <!-- True Positive Rate -->
     <g transform="translate(17.077969 173.808594) rotate(-90) scale(0.13 -0.13)">
      <defs>
       <path id="DejaVuSans-54" d="M -19 4666 
L 3928 4666 
L 3928 4134 
L 2272 4134 
L 2272 0 
L 1638 0 
L 1638 4134 
L -19 4134 
L -19 4666 
z
" transform="scale(0.015625)"/>
       <path id="DejaVuSans-72" d="M 2631 2963 
Q 2534 3019 2420 3045 
Q 2306 3072 2169 3072 
Q 1681 3072 1420 2755 
Q 1159 2438 1159 1844 
L 1159 0 
L 581 0 
L 581 3500 
L 1159 3500 
L 1159 2956 
Q 1341 3275 1631 3429 
Q 1922 3584 2338 3584 
Q 2397 3584 2469 3576 
Q 2541 3569 2628 3553 
L 2631 2963 
z
" transform="scale(0.015625)"/>
       <path id="DejaVuSans-75" d="M 544 1381 
L 544 3500 
L 1119 3500 
L 1119 1403 
Q 1119 906 1312 657 
Q 1506 409 1894 409 
Q 2359 409 2629 706 
Q 2900 1003 2900 1516 
L 2900 3500 
L 3475 3500 
L 3475 0 
L 2900 0 
L 2900 538 
Q 2691 219 2414 64 
Q 2138 -91 1772 -91 
Q 1169 -91 856 284 
Q 544 659 544 1381 
z
M 1991 3584 
L 1991 3584 
z
" transform="scale(0.015625)"/>
      </defs>
      <use xlink:href="#DejaVuSans-54"/>
      <use xlink:href="#DejaVuSans-72" x="46.333984"/>
      <use xlink:href="#DejaVuSans-75" x="87.447266"/>
      <use xlink:href="#DejaVuSans-65" x="150.826172"/>
      <use xlink:href="#DejaVuSans-20" x="212.349609"/>
      <use xlink:href="#DejaVuSans-50" x="244.136719"/>
      <use xlink:href="#DejaVuSans-6f" x="300.814453"/>
      <use xlink:href="#DejaVuSans-73" x="361.996094"/>
      <use xlink:href="#DejaVuSans-69" x="414.095703"/>
      <use xlink:href="#DejaVuSans-74" x="441.878906"/>
      <use xlink:href="#DejaVuSans-69" x="481.087891"/>
      <use xlink:href="#DejaVuSans-76" x="508.871094"/>
      <use xlink:href="#DejaVuSans-65" x="568.050781"/>
      <use xlink:href="#DejaVuSans-20" x="629.574219"/>
      <use xlink:href="#DejaVuSans-52" x="661.361328"/>
      <use xlink:href="#DejaVuSans-61" x="728.59375"/>
      <use xlink:href="#DejaVuSans-74" x="789.873047"/>
      <use xlink:href="#DejaVuSans-65" x="829.082031"/>
     </g>
    </g>
   </g>
   <g id="line2d_13">
    <path d="M 61.902869 214.756364 
L 61.965483 120.738806 
L 62.028096 120.738806 
L 62.090709 115.737007 
L 62.153323 115.737007 
L 62.215936 113.4191 
L 62.27855 113.4191 
L 62.341163 105.611414 
L 62.403776 105.611414 
L 62.46639 102.276881 
L 62.529003 102.276881 
L 62.591616 97.803728 
L 62.65423 97.803728 
L 62.716843 88.084785 
L 62.779457 88.084785 
L 62.84207 86.214193 
L 62.904683 86.214193 
L 62.967297 83.814956 
L 63.02991 83.814956 
L 63.092524 80.602419 
L 63.155137 80.602419 
L 63.21775 78.853822 
L 63.280364 78.853822 
L 63.342977 78.365842 
L 63.40559 78.365842 
L 63.468204 77.105226 
L 63.530817 77.105226 
L 63.530817 75.275299 
L 63.656044 75.275299 
L 63.718657 74.461998 
L 63.781271 74.461998 
L 63.843884 73.567368 
L 63.969111 73.526703 
L 64.031724 72.916727 
L 64.156951 72.835397 
L 64.219564 72.713402 
L 64.344791 72.632072 
L 64.407404 72.428747 
L 64.470018 72.428747 
L 64.532631 71.900101 
L 64.657858 71.818771 
L 64.720471 71.534116 
L 64.783085 71.534116 
L 64.783085 70.558155 
L 64.908312 70.558155 
L 64.970925 70.02951 
L 65.096152 69.988845 
L 65.158765 69.297539 
L 65.283992 69.216209 
L 65.346605 68.280913 
L 65.409219 68.280913 
L 65.409219 68.036923 
L 65.534445 68.036923 
L 65.597059 67.264288 
L 65.722285 67.264288 
L 65.784899 66.288327 
L 65.847512 66.288327 
L 65.847512 65.922341 
L 65.972739 65.922341 
L 66.035352 65.597021 
L 66.160579 65.556356 
L 66.223192 65.109041 
L 66.285806 65.109041 
L 66.348419 63.482439 
L 66.411033 63.482439 
L 66.473646 62.587809 
L 66.536259 62.587809 
L 66.598873 62.343819 
L 66.661486 62.343819 
L 66.7241 61.937168 
L 66.786713 61.937168 
L 66.849326 61.611848 
L 66.91194 61.611848 
L 66.974553 61.164533 
L 67.037166 61.164533 
L 67.09978 60.432562 
L 67.162393 60.432562 
L 67.225007 59.781921 
L 67.28762 59.781921 
L 67.28762 59.497266 
L 67.47546 59.497266 
L 67.47546 59.090616 
L 67.600687 59.090616 
L 67.6633 58.602635 
L 67.725914 58.602635 
L 67.788527 58.15532 
L 67.913754 58.07399 
L 67.976367 57.50468 
L 68.03898 57.50468 
L 68.101594 57.179359 
L 68.164207 57.179359 
L 68.226821 56.935369 
L 68.289434 56.935369 
L 68.352047 56.528719 
L 68.477274 56.528719 
L 68.539888 56.203398 
L 68.727728 56.203398 
L 68.790341 55.837413 
L 68.978181 55.837413 
L 69.040795 55.512093 
L 69.166021 55.471428 
L 69.166021 55.105443 
L 69.353861 55.064778 
L 69.416475 54.332807 
L 69.479088 54.332807 
L 69.541702 54.048152 
L 69.604315 54.048152 
L 69.666928 53.885492 
L 69.729542 53.885492 
L 69.792155 53.722831 
L 69.917382 53.641501 
L 69.917382 53.478841 
L 70.042609 53.478841 
L 70.042609 53.112856 
L 70.293062 53.031526 
L 70.355676 52.909531 
L 70.418289 52.909531 
L 70.418289 52.17756 
L 70.606129 52.136895 
L 70.668742 51.68958 
L 70.793969 51.68958 
L 70.856583 51.282929 
L 70.919196 51.282929 
L 70.981809 50.876279 
L 71.294876 50.835614 
L 71.35749 50.510294 
L 71.420103 50.510294 
L 71.482716 49.859653 
L 71.607943 49.859653 
L 71.670556 49.412338 
L 71.73317 49.412338 
L 71.795783 49.127683 
L 71.858397 49.127683 
L 71.858397 48.517707 
L 72.234077 48.436377 
L 72.29669 48.314382 
L 72.359304 48.314382 
L 72.421917 47.867067 
L 72.48453 47.867067 
L 72.48453 47.419751 
L 72.734984 47.379086 
L 72.734984 46.972436 
L 72.922824 46.891106 
L 72.922824 46.809776 
L 73.110664 46.769111 
L 73.110664 46.606451 
L 73.361118 46.525121 
L 73.423731 46.403125 
L 73.674185 46.36246 
L 73.736798 46.077805 
L 73.862025 46.077805 
L 73.862025 45.915145 
L 74.049865 45.915145 
L 74.112478 45.63049 
L 74.237705 45.54916 
L 74.237705 45.46783 
L 74.425545 45.427165 
L 74.488159 45.142509 
L 74.613385 45.142509 
L 74.675999 44.776524 
L 74.989066 44.695194 
L 75.051679 44.247879 
L 75.114292 44.247879 
L 75.176906 43.475243 
L 75.677813 43.434578 
L 75.740426 43.312583 
L 75.80304 43.312583 
L 75.865653 42.987263 
L 75.928266 42.987263 
L 75.99088 42.743272 
L 76.17872 42.702607 
L 76.17872 42.580612 
L 76.303947 42.580612 
L 76.303947 42.417952 
L 76.429173 42.417952 
L 76.491787 42.214627 
L 76.74224 42.133297 
L 76.804854 42.051967 
L 76.93008 42.051967 
L 76.992694 41.848642 
L 77.055307 41.848642 
L 77.11792 41.523321 
L 77.305761 41.482656 
L 77.305761 41.360661 
L 77.430987 41.360661 
L 77.430987 41.157336 
L 77.681441 41.076006 
L 77.744054 40.913346 
L 78.182348 40.832016 
L 78.244961 40.628691 
L 78.495415 40.547361 
L 78.558028 40.425366 
L 78.620642 40.425366 
L 78.620642 40.262705 
L 78.996322 40.181375 
L 79.058935 40.018715 
L 79.184162 40.018715 
L 79.246775 39.774725 
L 79.372002 39.774725 
L 79.434615 39.530735 
L 79.559842 39.530735 
L 79.559842 39.32741 
L 80.123363 39.286745 
L 80.123363 39.205415 
L 80.311203 39.164749 
L 80.311203 38.839429 
L 80.499043 38.758099 
L 80.561656 38.595439 
L 80.62427 38.595439 
L 80.686883 38.351449 
L 81.18779 38.270119 
L 81.18779 38.229454 
L 81.438244 38.229454 
L 81.438244 38.066794 
L 81.56347 38.066794 
L 81.56347 37.904133 
L 81.939151 37.822803 
L 82.001764 37.700808 
L 82.314831 37.619478 
L 82.377444 37.253493 
L 82.440058 37.253493 
L 82.502671 37.009503 
L 82.878351 36.968838 
L 82.878351 36.846843 
L 83.003578 36.846843 
L 83.003578 36.684182 
L 83.128805 36.684182 
L 83.191418 36.480857 
L 83.817552 36.399527 
L 83.880165 36.277532 
L 84.005392 36.277532 
L 84.005392 36.155537 
L 84.568913 36.074207 
L 84.568913 35.952212 
L 84.756753 35.870882 
L 84.756753 35.830217 
L 84.881979 35.830217 
L 84.881979 35.708222 
L 85.63334 35.626892 
L 85.63334 35.504896 
L 86.384701 35.464231 
L 86.447314 35.179576 
L 86.697767 35.138911 
L 86.697767 35.057581 
L 87.261288 34.976251 
L 87.261288 34.935586 
L 87.762195 34.854256 
L 87.762195 34.813591 
L 88.263102 34.732261 
L 88.263102 34.569601 
L 88.764009 34.528936 
L 88.764009 34.406941 
L 89.014463 34.325611 
L 89.014463 34.24428 
L 89.51537 34.16295 
L 89.577983 33.878295 
L 89.828436 33.796965 
L 89.89105 33.715635 
L 90.07889 33.67497 
L 90.07889 33.59364 
L 90.45457 33.51231 
L 90.45457 33.471645 
L 90.64241 33.390315 
L 90.705024 33.10566 
L 91.018091 33.024329 
L 91.080704 32.902334 
L 91.769451 32.821004 
L 91.769451 32.739674 
L 92.771265 32.658344 
L 92.833879 32.536349 
L 93.334786 32.455019 
L 93.334786 32.333024 
L 93.898306 32.251694 
L 93.898306 32.129699 
L 94.461827 32.048369 
L 94.52444 31.967039 
L 94.71228 31.967039 
L 94.71228 31.845043 
L 95.025347 31.845043 
L 95.08796 31.682383 
L 95.401027 31.601053 
L 95.401027 31.519723 
L 96.027161 31.438393 
L 96.089774 31.357063 
L 96.590681 31.275733 
L 96.590681 31.153738 
L 97.279429 31.113073 
L 97.279429 31.031743 
L 97.717722 30.991078 
L 97.780336 30.869083 
L 98.59431 30.787753 
L 98.59431 30.747088 
L 99.095217 30.665758 
L 99.095217 30.625092 
L 99.658737 30.543762 
L 99.658737 30.503097 
L 100.222257 30.421767 
L 100.284871 30.340437 
L 100.848391 30.259107 
L 100.848391 30.177777 
L 101.286685 30.096447 
L 101.286685 30.055782 
L 102.852019 29.974452 
L 102.914633 29.852457 
L 103.102473 29.771127 
L 103.102473 29.730462 
L 103.79122 29.649132 
L 103.79122 29.567802 
L 104.605194 29.486472 
L 104.605194 29.445807 
L 105.293941 29.364476 
L 105.293941 29.323811 
L 105.544395 29.323811 
L 105.544395 29.201816 
L 106.483595 29.120486 
L 106.483595 29.079821 
L 106.859276 28.998491 
L 106.859276 28.835831 
L 106.984502 28.835831 
L 106.984502 28.713836 
L 107.297569 28.632506 
L 107.297569 28.591841 
L 107.86109 28.510511 
L 107.923703 28.429181 
L 108.925517 28.347851 
L 108.925517 28.307186 
L 109.363811 28.225856 
L 109.363811 28.18519 
L 110.365625 28.10386 
L 110.365625 28.063195 
L 110.929145 27.981865 
L 110.929145 27.900535 
L 111.430052 27.819205 
L 111.430052 27.77854 
L 112.557093 27.69721 
L 112.557093 27.656545 
L 113.43368 27.575215 
L 113.43368 27.493885 
L 114.999015 27.412555 
L 114.999015 27.37189 
L 115.875602 27.29056 
L 115.875602 27.20923 
L 116.126056 27.20923 
L 116.126056 27.087235 
L 116.626963 27.005905 
L 116.626963 26.965239 
L 117.87923 26.883909 
L 117.87923 26.802579 
L 118.192297 26.721249 
L 118.192297 26.599254 
L 119.256725 26.517924 
L 119.256725 26.477259 
L 119.945472 26.395929 
L 119.945472 26.355264 
L 120.321152 26.273934 
L 120.321152 26.233269 
L 121.135126 26.151939 
L 121.135126 26.111274 
L 121.322966 26.070609 
L 121.322966 25.948614 
L 122.074327 25.867284 
L 122.074327 25.745288 
L 123.138754 25.663958 
L 123.138754 25.623293 
L 124.641475 25.541963 
L 124.641475 25.501298 
L 126.20681 25.419968 
L 126.20681 25.379303 
L 127.646917 25.338638 
L 127.646917 25.257308 
L 128.085211 25.216643 
L 128.085211 25.135313 
L 129.838386 25.053983 
L 129.838386 25.013318 
L 130.339293 24.931988 
L 130.339293 24.891323 
L 131.02804 24.809993 
L 131.02804 24.769328 
L 132.468148 24.687998 
L 132.530761 24.606668 
L 133.532575 24.525337 
L 133.532575 24.484672 
L 134.346549 24.403342 
L 134.346549 24.362677 
L 138.416419 24.281347 
L 138.416419 24.240682 
L 139.54346 24.159352 
L 139.54346 24.118687 
L 141.985381 24.037357 
L 141.985381 23.956027 
L 143.362876 23.874697 
L 143.362876 23.834032 
L 144.427303 23.752702 
L 144.427303 23.712037 
L 144.865597 23.671372 
L 144.865597 23.590042 
L 148.058879 23.508712 
L 148.058879 23.468047 
L 151.440002 23.386717 
L 151.440002 23.346052 
L 153.944537 23.305386 
L 153.944537 23.224056 
L 156.198618 23.142726 
L 156.198618 23.102061 
L 158.202247 23.020731 
L 158.202247 22.980066 
L 160.518942 22.898736 
L 160.518942 22.858071 
L 163.586997 22.776741 
L 163.586997 22.736076 
L 164.901878 22.695411 
L 164.901878 22.614081 
L 166.655053 22.532751 
L 166.717666 22.451421 
L 167.53164 22.370091 
L 167.53164 22.329426 
L 169.284815 22.248096 
L 169.284815 22.207431 
L 172.478097 22.126101 
L 172.54071 22.004105 
L 175.358312 21.922775 
L 175.358312 21.88211 
L 177.424554 21.80078 
L 177.424554 21.760115 
L 178.614208 21.678785 
L 178.614208 21.63812 
L 180.617836 21.55679 
L 180.617836 21.516125 
L 181.870104 21.434795 
L 181.870104 21.353465 
L 185.188613 21.272135 
L 185.188613 21.23147 
L 186.691334 21.15014 
L 186.691334 21.109475 
L 187.818375 21.028145 
L 187.880988 20.946815 
L 189.57155 20.865484 
L 189.57155 20.824819 
L 191.888245 20.743489 
L 191.888245 20.702824 
L 195.081527 20.621494 
L 195.081527 20.580829 
L 198.274809 20.499499 
L 198.274809 20.458834 
L 202.094225 20.377504 
L 202.094225 20.336839 
L 203.409106 20.296174 
L 203.409106 20.214844 
L 204.849214 20.133514 
L 204.849214 20.092849 
L 208.10511 20.011519 
L 208.10511 19.930189 
L 208.981697 19.848859 
L 208.981697 19.808194 
L 209.670444 19.726864 
L 209.670444 19.686199 
L 214.115994 19.604868 
L 214.115994 19.564203 
L 221.066079 19.482873 
L 221.066079 19.442208 
L 222.881867 19.360878 
L 222.881867 19.320213 
L 226.889124 19.238883 
L 226.889124 19.198218 
L 230.771153 19.116888 
L 230.771153 19.076223 
L 231.64774 18.994893 
L 231.64774 18.954228 
L 234.465342 18.872898 
L 234.465342 18.832233 
L 241.102361 18.750903 
L 241.102361 18.710238 
L 245.547911 18.628908 
L 245.547911 18.588243 
L 251.871862 18.506913 
L 251.871862 18.466247 
L 260.136828 18.384917 
L 260.136828 18.344252 
L 262.140456 18.303587 
L 262.140456 18.222257 
L 266.961686 18.140927 
L 266.961686 18.100262 
L 272.471664 18.018932 
L 272.471664 17.978267 
L 276.791987 17.896937 
L 276.791987 17.856272 
L 292.007038 17.774942 
L 292.007038 17.734277 
L 315.111375 17.652947 
L 315.111375 17.612282 
L 328.260184 17.530952 
L 328.260184 17.490287 
L 342.410808 17.408957 
L 342.410808 17.368292 
L 352.992469 17.286962 
L 352.992469 17.246296 
L 363.323677 17.164966 
L 363.323677 17.124301 
L 366.266506 17.083636 
L 366.266506 17.083636 
" clip-path="url(#p3218e4754e)" style="fill: none; stroke: #1f77b4; stroke-width: 1.5; stroke-linecap: square"/>
   </g>
   <g id="line2d_14">
    <path d="M 61.902869 214.756364 
L 61.965483 194.993157 
L 62.090709 194.911827 
L 62.153323 194.139192 
L 62.27855 194.057862 
L 62.341163 191.94328 
L 62.403776 191.94328 
L 62.46639 190.357344 
L 62.529003 190.357344 
L 62.591616 187.673451 
L 62.716843 187.592121 
L 62.779457 183.810273 
L 62.84207 183.810273 
L 62.904683 182.021012 
L 62.967297 182.021012 
L 63.02991 181.167046 
L 63.092524 181.167046 
L 63.155137 180.47574 
L 63.21775 180.47574 
L 63.280364 178.605149 
L 63.468204 178.523819 
L 63.530817 177.547858 
L 63.781271 177.466528 
L 63.843884 176.490567 
L 63.906497 176.490567 
L 63.969111 175.473941 
L 64.031724 175.473941 
L 64.094338 174.01 
L 64.156951 174.01 
L 64.219564 173.1967 
L 64.344791 173.156034 
L 64.407404 172.342734 
L 64.470018 172.342734 
L 64.532631 171.651428 
L 64.595245 171.651428 
L 64.657858 171.407438 
L 64.783085 171.407438 
L 64.845698 170.431477 
L 65.283992 170.350147 
L 65.346605 170.106157 
L 65.471832 170.106157 
L 65.534445 169.821502 
L 65.659672 169.740172 
L 65.722285 169.048866 
L 65.784899 169.048866 
L 65.847512 168.398226 
L 65.910126 168.398226 
L 65.910126 167.78825 
L 66.348419 167.747585 
L 66.348419 167.54426 
L 66.473646 167.54426 
L 66.536259 167.30027 
L 66.598873 167.30027 
L 66.661486 166.405639 
L 66.7241 166.405639 
L 66.786713 165.795663 
L 66.91194 165.714333 
L 66.91194 165.633003 
L 67.09978 165.633003 
L 67.162393 165.307683 
L 67.225007 165.307683 
L 67.28762 164.535047 
L 67.350233 164.535047 
L 67.412847 164.128397 
L 67.47546 164.128397 
L 67.538073 163.721747 
L 67.6633 163.640417 
L 67.725914 163.152436 
L 67.85114 163.071106 
L 67.913754 162.501796 
L 68.101594 162.501796 
L 68.101594 162.339136 
L 68.352047 162.298471 
L 68.414661 161.851155 
L 68.477274 161.851155 
L 68.539888 161.64783 
L 68.602501 161.64783 
L 68.665114 160.753199 
L 68.790341 160.712534 
L 68.790341 159.980564 
L 68.915568 159.980564 
L 68.978181 159.777239 
L 69.103408 159.777239 
L 69.166021 159.248593 
L 69.353861 159.167263 
L 69.416475 158.760613 
L 69.479088 158.760613 
L 69.541702 158.028642 
L 69.666928 157.947312 
L 69.666928 157.906647 
L 69.792155 157.906647 
L 69.792155 157.256006 
L 70.042609 157.215341 
L 70.105222 156.930686 
L 70.167835 156.930686 
L 70.230449 156.280046 
L 70.293062 156.280046 
L 70.293062 155.83273 
L 70.543516 155.7514 
L 70.606129 155.466745 
L 70.668742 155.466745 
L 70.731356 155.141425 
L 70.856583 155.10076 
L 70.856583 155.01943 
L 71.044423 154.9381 
L 71.107036 154.287459 
L 71.232263 154.206129 
L 71.294876 153.921474 
L 71.420103 153.921474 
L 71.420103 153.718149 
L 71.54533 153.718149 
L 71.607943 153.514823 
L 71.73317 153.514823 
L 71.795783 153.189503 
L 72.046237 153.108173 
L 72.10885 152.904848 
L 72.171464 152.904848 
L 72.234077 152.498198 
L 72.359304 152.457532 
L 72.421917 152.254207 
L 72.547144 152.254207 
L 72.609757 151.806892 
L 72.672371 151.806892 
L 72.672371 151.278247 
L 72.922824 151.196916 
L 72.985437 150.749601 
L 73.048051 150.749601 
L 73.110664 150.180291 
L 73.486344 150.098961 
L 73.548958 149.895635 
L 73.799411 149.814305 
L 73.799411 149.732975 
L 73.924638 149.732975 
L 73.987252 149.001005 
L 74.049865 149.001005 
L 74.112478 148.757014 
L 74.175092 148.757014 
L 74.175092 148.635019 
L 74.362932 148.594354 
L 74.425545 148.269034 
L 74.613385 148.187704 
L 74.613385 148.106374 
L 74.738612 148.106374 
L 74.801225 147.781054 
L 74.863839 147.781054 
L 74.926452 147.496398 
L 74.989066 147.496398 
L 74.989066 147.374403 
L 75.114292 147.374403 
L 75.114292 147.252408 
L 75.302132 147.171078 
L 75.364746 147.089748 
L 75.552586 147.049083 
L 75.615199 146.520438 
L 75.865653 146.439108 
L 75.928266 146.357777 
L 76.053493 146.357777 
L 76.053493 146.032457 
L 76.303947 145.991792 
L 76.303947 145.829132 
L 76.617013 145.788467 
L 76.617013 145.585142 
L 76.74224 145.585142 
L 76.804854 145.137826 
L 76.93008 145.097161 
L 76.93008 144.975166 
L 77.11792 144.975166 
L 77.180534 144.649846 
L 77.430987 144.568516 
L 77.493601 144.446521 
L 77.556214 144.446521 
L 77.618828 144.121201 
L 77.744054 144.080536 
L 77.806668 143.755215 
L 77.869281 143.755215 
L 77.869281 143.592555 
L 78.119735 143.511225 
L 78.182348 143.22657 
L 78.370188 143.22657 
L 78.432801 142.941915 
L 78.558028 142.941915 
L 78.620642 142.697924 
L 78.808482 142.657259 
L 78.808482 142.494599 
L 78.996322 142.494599 
L 79.058935 142.128614 
L 79.184162 142.128614 
L 79.246775 141.762629 
L 79.309389 141.762629 
L 79.309389 141.640634 
L 79.559842 141.559304 
L 79.622456 141.396643 
L 79.685069 141.396643 
L 79.685069 141.193318 
L 79.935523 141.193318 
L 79.935523 141.071323 
L 80.060749 141.071323 
L 80.060749 140.705338 
L 80.311203 140.705338 
L 80.373816 140.339353 
L 80.43643 140.339353 
L 80.499043 140.054697 
L 80.62427 140.014032 
L 80.62427 139.688712 
L 80.81211 139.648047 
L 80.874723 139.526052 
L 81.250403 139.444722 
L 81.313017 139.282062 
L 81.438244 139.282062 
L 81.500857 138.875411 
L 81.56347 138.875411 
L 81.56347 138.712751 
L 81.751311 138.631421 
L 81.813924 138.346766 
L 82.001764 138.306101 
L 82.001764 138.224771 
L 82.126991 138.224771 
L 82.189604 137.81812 
L 82.377444 137.73679 
L 82.377444 137.533465 
L 82.565284 137.452135 
L 82.565284 137.41147 
L 82.753125 137.33014 
L 82.815738 137.08615 
L 83.066191 137.00482 
L 83.128805 136.84216 
L 83.254032 136.84216 
L 83.316645 136.476174 
L 83.441872 136.394844 
L 83.504485 136.272849 
L 83.629712 136.191519 
L 83.692325 135.947529 
L 84.193232 135.866199 
L 84.255846 135.418884 
L 84.506299 135.337553 
L 84.506299 134.930903 
L 84.881979 134.890238 
L 84.881979 134.686913 
L 85.195046 134.605583 
L 85.195046 134.564918 
L 85.4455 134.483588 
L 85.508113 134.158267 
L 85.63334 134.117602 
L 85.695953 133.914277 
L 85.82118 133.873612 
L 85.883794 133.548292 
L 85.946407 133.548292 
L 85.946407 133.385632 
L 86.19686 133.304302 
L 86.259474 132.653661 
L 86.635154 132.572331 
L 86.697767 132.491001 
L 86.760381 132.491001 
L 86.822994 132.165681 
L 87.010834 132.084351 
L 87.010834 132.043686 
L 87.574355 131.962356 
L 87.574355 131.881026 
L 87.762195 131.881026 
L 87.762195 131.759031 
L 88.200489 131.6777 
L 88.263102 131.393045 
L 88.325715 131.393045 
L 88.325715 131.18972 
L 88.701396 131.10839 
L 88.701396 130.986395 
L 88.889236 130.905065 
L 88.951849 130.78307 
L 89.014463 130.78307 
L 89.014463 130.62041 
L 89.390143 130.579745 
L 89.452756 130.376419 
L 89.828436 130.295089 
L 89.89105 130.132429 
L 90.204117 130.051099 
L 90.26673 129.725779 
L 90.45457 129.685114 
L 90.45457 129.563119 
L 90.64241 129.563119 
L 90.705024 129.319128 
L 90.767637 129.319128 
L 90.830251 129.156468 
L 90.955477 129.075138 
L 91.018091 128.871813 
L 91.143317 128.831148 
L 91.205931 128.709153 
L 91.393771 128.668488 
L 91.393771 128.587158 
L 91.706838 128.587158 
L 91.769451 128.261838 
L 91.894678 128.261838 
L 91.894678 128.139843 
L 92.207745 128.139843 
L 92.207745 128.017847 
L 92.395585 128.017847 
L 92.458198 127.448537 
L 92.583425 127.448537 
L 92.583425 127.326542 
L 92.708652 127.326542 
L 92.771265 127.123217 
L 93.209559 127.041887 
L 93.272172 126.797896 
L 93.585239 126.797896 
L 93.585239 126.553906 
L 94.023533 126.513241 
L 94.086146 126.350581 
L 94.399213 126.269251 
L 94.461827 126.065926 
L 94.649667 125.984596 
L 94.649667 125.903266 
L 94.837507 125.821936 
L 94.90012 125.699941 
L 95.025347 125.659275 
L 95.025347 125.37462 
L 95.401027 125.29329 
L 95.401027 125.089965 
L 95.714094 125.008635 
L 95.714094 124.845975 
L 96.027161 124.764645 
L 96.089774 124.520655 
L 96.277615 124.47999 
L 96.340228 124.073339 
L 96.653295 124.032674 
L 96.715908 123.870014 
L 96.966362 123.788684 
L 96.966362 123.748019 
L 97.279429 123.666689 
L 97.342042 123.422699 
L 97.717722 123.341369 
L 97.717722 123.260039 
L 97.905562 123.260039 
L 97.968176 122.772058 
L 98.093403 122.690728 
L 98.156016 122.487403 
L 98.281243 122.446738 
L 98.281243 122.365408 
L 98.469083 122.365408 
L 98.531696 122.040088 
L 98.719536 121.958757 
L 98.719536 121.918092 
L 98.96999 121.877427 
L 98.96999 121.714767 
L 99.15783 121.714767 
L 99.220443 121.430112 
L 99.53351 121.389447 
L 99.596124 121.267452 
L 99.658737 121.267452 
L 99.658737 121.145457 
L 99.971804 121.104792 
L 100.034417 120.779471 
L 100.472711 120.698141 
L 100.472711 120.535481 
L 100.723164 120.454151 
L 100.785778 120.291491 
L 100.848391 120.291491 
L 100.848391 120.088166 
L 101.098845 120.047501 
L 101.161458 119.925506 
L 101.349298 119.925506 
L 101.349298 119.803511 
L 101.662365 119.722181 
L 101.724978 119.55952 
L 101.850205 119.55952 
L 101.912819 119.2342 
L 102.163272 119.193535 
L 102.163272 119.112205 
L 102.351112 119.030875 
L 102.413726 118.949545 
L 102.476339 118.949545 
L 102.476339 118.82755 
L 102.664179 118.74622 
L 102.664179 118.66489 
L 102.789406 118.66489 
L 102.852019 118.380235 
L 103.2277 118.339569 
L 103.2277 118.258239 
L 103.478153 118.176909 
L 103.540766 118.095579 
L 103.60338 118.095579 
L 103.665993 117.770259 
L 103.916447 117.729594 
L 103.97906 117.485604 
L 104.1669 117.404274 
L 104.1669 117.363609 
L 104.730421 117.282279 
L 104.730421 116.956958 
L 104.918261 116.875628 
L 104.918261 116.794298 
L 105.168714 116.753633 
L 105.168714 116.672303 
L 105.419168 116.672303 
L 105.481781 116.509643 
L 105.607008 116.428313 
L 105.669621 116.265653 
L 105.857462 116.184323 
L 105.920075 116.102993 
L 106.358369 116.062328 
L 106.420982 115.940333 
L 106.483595 115.940333 
L 106.546209 115.493017 
L 106.671435 115.411687 
L 106.734049 115.127032 
L 106.984502 115.045702 
L 107.047116 114.964372 
L 107.297569 114.923707 
L 107.360183 114.720382 
L 107.735863 114.639051 
L 107.798476 114.476391 
L 107.86109 114.476391 
L 107.923703 114.313731 
L 108.675064 114.232401 
L 108.737677 114.151071 
L 108.80029 114.151071 
L 108.80029 113.988411 
L 108.98813 113.947746 
L 109.050744 113.785086 
L 109.113357 113.785086 
L 109.113357 113.663091 
L 109.551651 113.622426 
L 109.551651 113.500431 
L 109.864718 113.459765 
L 109.864718 113.378435 
L 110.115171 113.33777 
L 110.115171 113.215775 
L 110.490852 113.134445 
L 110.553465 113.053115 
L 110.741305 113.01245 
L 110.741305 112.84979 
L 111.179599 112.76846 
L 111.242212 112.646465 
L 111.492666 112.6058 
L 111.555279 112.321145 
L 111.930959 112.239814 
L 111.930959 112.199149 
L 112.181413 112.117819 
L 112.181413 111.914494 
L 112.431866 111.873829 
L 112.49448 111.548509 
L 112.68232 111.507844 
L 112.744933 111.101194 
L 112.87016 111.060529 
L 112.932773 110.897868 
L 113.621521 110.816538 
L 113.621521 110.531883 
L 113.746747 110.531883 
L 113.809361 110.328558 
L 114.122428 110.287893 
L 114.185041 110.043903 
L 114.560721 110.003238 
L 114.560721 109.921908 
L 114.936402 109.840578 
L 114.999015 109.637252 
L 115.124242 109.555922 
L 115.124242 109.515257 
L 115.249468 109.515257 
L 115.312082 109.311932 
L 115.562535 109.271267 
L 115.562535 109.067942 
L 115.812989 108.986612 
L 115.812989 108.823952 
L 116.063442 108.783287 
L 116.063442 108.701957 
L 116.188669 108.701957 
L 116.251282 108.376636 
L 116.376509 108.295306 
L 116.376509 108.091981 
L 116.814803 108.010651 
L 116.814803 107.807326 
L 117.190483 107.725996 
L 117.253097 107.604001 
L 117.31571 107.604001 
L 117.378323 107.319345 
L 117.440937 107.319345 
L 117.440937 107.11602 
L 117.628777 107.11602 
L 117.628777 106.994025 
L 117.754004 106.994025 
L 117.816617 106.831365 
L 117.87923 106.831365 
L 117.87923 106.70937 
L 118.129684 106.70937 
L 118.129684 106.424715 
L 118.254911 106.424715 
L 118.254911 106.30272 
L 118.567978 106.262055 
L 118.567978 106.180725 
L 118.881044 106.099394 
L 118.943658 106.018064 
L 119.068885 106.018064 
L 119.131498 105.733409 
L 119.757632 105.652079 
L 119.757632 105.611414 
L 119.882858 105.611414 
L 119.882858 105.489419 
L 120.070699 105.448754 
L 120.070699 105.367424 
L 120.258539 105.367424 
L 120.258539 105.245429 
L 120.508992 105.164099 
L 120.508992 105.082769 
L 120.759446 105.001439 
L 120.822059 104.920108 
L 121.009899 104.838778 
L 121.072513 104.676118 
L 121.260353 104.594788 
L 121.322966 104.472793 
L 121.510806 104.472793 
L 121.57342 104.188138 
L 121.76126 104.106808 
L 121.76126 104.066143 
L 122.32478 104.066143 
L 122.387394 103.822153 
L 122.51262 103.781488 
L 122.575234 103.496832 
L 122.700461 103.496832 
L 122.700461 103.374837 
L 122.825687 103.374837 
L 122.825687 103.212177 
L 123.389208 103.130847 
L 123.389208 103.090182 
L 123.702275 103.090182 
L 123.764888 102.805527 
L 124.077955 102.724197 
L 124.140568 102.520872 
L 124.328408 102.480206 
L 124.328408 102.358211 
L 124.516249 102.276881 
L 124.578862 102.195551 
L 124.766702 102.154886 
L 124.766702 102.032891 
L 125.079769 101.992226 
L 125.079769 101.829566 
L 125.455449 101.829566 
L 125.455449 101.707571 
L 125.831129 101.626241 
L 125.893743 101.544911 
L 125.956356 101.544911 
L 125.956356 101.382251 
L 126.20681 101.30092 
L 126.269423 101.13826 
L 126.645103 101.097595 
L 126.645103 101.016265 
L 126.832944 100.9756 
L 126.832944 100.81294 
L 127.083397 100.73161 
L 127.14601 100.528285 
L 127.521691 100.446955 
L 127.584304 100.365625 
L 127.959984 100.284295 
L 127.959984 100.202965 
L 128.711345 100.121635 
L 128.773958 99.958974 
L 128.836572 99.958974 
L 128.899185 99.674319 
L 129.462705 99.592989 
L 129.462705 99.552324 
L 129.650546 99.470994 
L 129.650546 99.186339 
L 129.900999 99.186339 
L 129.900999 99.064344 
L 130.401906 98.983014 
L 130.46452 98.861018 
L 130.965427 98.779688 
L 131.02804 98.617028 
L 131.153267 98.535698 
L 131.21588 98.413703 
L 131.40372 98.332373 
L 131.40372 98.210378 
L 131.654174 98.169713 
L 131.654174 98.088383 
L 132.029854 98.007053 
L 132.029854 97.925723 
L 132.280308 97.844393 
L 132.342921 97.763063 
L 132.405534 97.763063 
L 132.405534 97.600402 
L 133.720415 97.519072 
L 133.720415 97.478407 
L 133.970869 97.478407 
L 134.033482 97.234417 
L 134.346549 97.153087 
L 134.346549 97.031092 
L 134.471776 97.031092 
L 134.534389 96.787102 
L 134.659616 96.746437 
L 134.659616 96.665107 
L 134.972683 96.583777 
L 135.035296 96.380451 
L 135.28575 96.299121 
L 135.28575 96.217791 
L 135.724043 96.136461 
L 135.786657 96.055131 
L 135.974497 96.055131 
L 135.974497 95.892471 
L 136.350177 95.811141 
L 136.350177 95.770476 
L 136.600631 95.770476 
L 136.663244 95.607816 
L 136.913698 95.526486 
L 136.976311 95.363826 
L 137.101538 95.323161 
L 137.101538 95.241831 
L 137.477218 95.241831 
L 137.477218 95.119835 
L 137.602445 95.119835 
L 137.602445 94.99784 
L 137.852898 94.91651 
L 137.852898 94.875845 
L 138.479032 94.794515 
L 138.541645 94.59119 
L 138.729486 94.50986 
L 138.729486 94.469195 
L 138.917326 94.469195 
L 138.917326 94.3472 
L 139.668686 94.26587 
L 139.668686 94.225205 
L 139.856526 94.225205 
L 139.856526 94.062545 
L 140.044367 94.062545 
L 140.044367 93.940549 
L 140.232207 93.940549 
L 140.232207 93.818554 
L 140.48266 93.737224 
L 140.545274 93.493234 
L 140.733114 93.411904 
L 140.795727 93.330574 
L 140.983567 93.289909 
L 140.983567 93.208579 
L 141.296634 93.167914 
L 141.296634 93.086584 
L 141.985381 93.005254 
L 142.047995 92.801929 
L 142.799355 92.720598 
L 142.861969 92.517273 
L 143.112422 92.435943 
L 143.112422 92.395278 
L 143.613329 92.354613 
L 143.613329 92.273283 
L 143.801169 92.232618 
L 143.801169 92.151288 
L 143.926396 92.151288 
L 143.989009 91.988628 
L 144.17685 91.907298 
L 144.239463 91.663308 
L 144.677757 91.581978 
L 144.74037 91.459982 
L 144.92821 91.419317 
L 144.92821 91.297322 
L 145.429117 91.215992 
L 145.491731 91.093997 
L 145.616957 91.053332 
L 145.679571 90.931337 
L 145.930024 90.890672 
L 145.930024 90.687347 
L 146.243091 90.687347 
L 146.243091 90.565352 
L 146.493545 90.524687 
L 146.493545 90.443357 
L 146.869225 90.362027 
L 146.931838 90.199366 
L 147.871039 90.118036 
L 147.933652 89.996041 
L 148.184106 89.955376 
L 148.184106 89.874046 
L 148.497173 89.874046 
L 148.559786 89.711386 
L 148.99808 89.630056 
L 149.060693 89.386066 
L 149.624214 89.304736 
L 149.686827 88.85742 
L 150.062507 88.77609 
L 150.062507 88.735425 
L 150.500801 88.69476 
L 150.500801 88.61343 
L 151.502615 88.5321 
L 151.565228 88.45077 
L 151.940909 88.36944 
L 152.003522 88.247445 
L 152.066135 88.247445 
L 152.066135 88.084785 
L 152.504429 88.003455 
L 152.504429 87.922125 
L 152.629656 87.922125 
L 152.629656 87.718799 
L 153.25579 87.637469 
L 153.25579 87.556139 
L 153.381016 87.556139 
L 153.381016 87.434144 
L 154.00715 87.393479 
L 154.00715 87.271484 
L 154.132377 87.271484 
L 154.19499 87.068159 
L 154.38283 87.068159 
L 154.445444 86.864834 
L 154.883737 86.824169 
L 154.883737 86.742839 
L 155.134191 86.661508 
L 155.134191 86.580178 
L 155.447258 86.498848 
L 155.447258 86.458183 
L 156.010778 86.417518 
L 156.010778 86.336188 
L 156.198618 86.254858 
L 156.198618 86.214193 
L 156.636912 86.132863 
L 156.636912 85.970203 
L 156.762139 85.970203 
L 156.762139 85.848208 
L 157.137819 85.807543 
L 157.137819 85.726213 
L 157.450886 85.685548 
L 157.450886 85.563553 
L 157.88918 85.522888 
L 157.951793 85.278897 
L 158.327473 85.197567 
L 158.327473 85.116237 
L 158.577927 85.034907 
L 158.64054 84.953577 
L 158.765767 84.953577 
L 158.765767 84.831582 
L 159.704968 84.750252 
L 159.767581 84.668922 
L 160.205875 84.628257 
L 160.205875 84.546927 
L 160.331101 84.546927 
L 160.331101 84.384267 
L 160.518942 84.302937 
L 160.518942 84.221606 
L 160.706782 84.221606 
L 160.769395 83.977616 
L 161.145075 83.896286 
L 161.207689 83.733626 
L 161.458142 83.652296 
L 161.458142 83.408306 
L 161.833823 83.367641 
L 161.896436 83.164316 
L 162.33473 83.082986 
L 162.33473 83.042321 
L 162.459956 83.042321 
L 162.52257 82.87966 
L 162.89825 82.79833 
L 162.960863 82.717 
L 163.08609 82.63567 
L 163.08609 82.513675 
L 163.46177 82.432345 
L 163.46177 82.351015 
L 163.900064 82.269685 
L 163.962677 82.14769 
L 164.400971 82.06636 
L 164.463584 81.944365 
L 164.651425 81.9037 
L 164.651425 81.659709 
L 164.901878 81.578379 
L 164.964492 81.456384 
L 165.152332 81.456384 
L 165.152332 81.334389 
L 165.402785 81.253059 
L 165.465399 81.131064 
L 166.028919 81.090399 
L 166.028919 80.805744 
L 166.467213 80.765079 
L 166.529826 80.561753 
L 166.655053 80.561753 
L 166.717666 80.317763 
L 167.15596 80.236433 
L 167.15596 80.195768 
L 167.469027 80.114438 
L 167.53164 79.992443 
L 167.844707 79.951778 
L 167.844707 79.870448 
L 168.408227 79.789118 
L 168.408227 79.748453 
L 168.658681 79.667123 
L 168.721294 79.545128 
L 169.347428 79.463798 
L 169.347428 79.423133 
L 169.723108 79.341802 
L 169.723108 79.179142 
L 169.973562 79.097812 
L 170.036175 78.975817 
L 170.286629 78.935152 
L 170.349242 78.447172 
L 170.912763 78.365842 
L 170.912763 78.203182 
L 171.476283 78.121851 
L 171.476283 78.040521 
L 171.726736 77.999856 
L 171.726736 77.918526 
L 172.415484 77.837196 
L 172.478097 77.633871 
L 172.603324 77.552541 
L 172.665937 77.471211 
L 173.166844 77.389881 
L 173.229458 77.267886 
L 173.605138 77.186556 
L 173.667751 77.064561 
L 173.855591 77.064561 
L 173.855591 76.942566 
L 174.231272 76.861235 
L 174.231272 76.82057 
L 174.606952 76.73924 
L 174.606952 76.65791 
L 174.982632 76.617245 
L 174.982632 76.454585 
L 175.796606 76.373255 
L 175.796606 76.25126 
L 176.547967 76.16993 
L 176.547967 76.129265 
L 176.98626 76.0886 
L 177.048874 75.966605 
L 177.236714 75.966605 
L 177.236714 75.803945 
L 177.549781 75.803945 
L 177.612394 75.641284 
L 177.925461 75.600619 
L 177.988074 75.356629 
L 178.238528 75.275299 
L 178.301141 75.153304 
L 178.927275 75.071974 
L 178.927275 75.031309 
L 179.365569 74.949979 
L 179.428182 74.827984 
L 179.616022 74.746654 
L 179.616022 74.705989 
L 179.929089 74.624659 
L 179.991703 74.543329 
L 180.617836 74.461998 
L 180.617836 74.380668 
L 180.930903 74.299338 
L 180.930903 74.177343 
L 181.557037 74.096013 
L 181.557037 74.055348 
L 181.807491 73.974018 
L 181.807491 73.933353 
L 182.245784 73.852023 
L 182.308398 73.730028 
L 182.433624 73.648698 
L 182.433624 73.608033 
L 183.059758 73.526703 
L 183.059758 73.445373 
L 183.247598 73.445373 
L 183.247598 73.201382 
L 183.936345 73.120052 
L 183.998959 72.998057 
L 184.750319 72.916727 
L 184.750319 72.876062 
L 184.875546 72.876062 
L 184.938159 72.591407 
L 185.31384 72.510077 
L 185.376453 72.306752 
L 185.626907 72.266087 
L 185.68952 71.981431 
L 186.127814 71.900101 
L 186.190427 71.656111 
L 186.440881 71.574781 
L 186.503494 71.493451 
L 186.628721 71.412121 
L 186.628721 71.371456 
L 186.879174 71.330791 
L 186.879174 71.168131 
L 187.317468 71.127466 
L 187.317468 71.046136 
L 188.006215 70.964806 
L 188.006215 70.883476 
L 188.507122 70.802145 
L 188.507122 70.76148 
L 188.945416 70.68015 
L 189.008029 70.51749 
L 189.321096 70.43616 
L 189.321096 70.35483 
L 189.508936 70.2735 
L 189.57155 70.19217 
L 189.696776 70.11084 
L 189.75939 69.988845 
L 190.072457 69.907515 
L 190.072457 69.86685 
L 190.69859 69.78552 
L 190.69859 69.744855 
L 191.011657 69.663525 
L 191.011657 69.622859 
L 191.763018 69.541529 
L 191.763018 69.500864 
L 192.013471 69.419534 
L 192.013471 69.378869 
L 192.326538 69.297539 
L 192.389152 69.175544 
L 192.702218 69.134879 
L 192.702218 69.053549 
L 192.890059 68.972219 
L 192.890059 68.850224 
L 193.203126 68.809559 
L 193.203126 68.687564 
L 193.704033 68.606234 
L 193.766646 68.362243 
L 194.455393 68.280913 
L 194.518006 68.077588 
L 194.893687 67.996258 
L 194.9563 67.874263 
L 195.394594 67.792933 
L 195.394594 67.752268 
L 195.707661 67.752268 
L 195.707661 67.630273 
L 195.958114 67.548943 
L 195.958114 67.508278 
L 196.646861 67.467613 
L 196.646861 67.345618 
L 197.085155 67.264288 
L 197.085155 67.182957 
L 197.648675 67.182957 
L 197.711289 66.898302 
L 198.086969 66.816972 
L 198.149582 66.735642 
L 198.337423 66.735642 
L 198.337423 66.613647 
L 198.587876 66.572982 
L 198.587876 66.491652 
L 198.83833 66.410322 
L 198.900943 66.328992 
L 199.151397 66.247662 
L 199.151397 66.206997 
L 200.215824 66.125667 
L 200.215824 66.085002 
L 201.217638 66.044337 
L 201.217638 65.841011 
L 201.405478 65.759681 
L 201.405478 65.678351 
L 201.593318 65.678351 
L 201.593318 65.556356 
L 202.156839 65.515691 
L 202.156839 65.393696 
L 202.720359 65.312366 
L 202.720359 65.190371 
L 203.033426 65.190371 
L 203.096039 65.027711 
L 203.221266 64.946381 
L 203.221266 64.905716 
L 203.346493 64.905716 
L 203.346493 64.661725 
L 203.65956 64.580395 
L 203.722173 64.499065 
L 204.03524 64.417735 
L 204.03524 64.37707 
L 204.22308 64.29574 
L 204.22308 64.255075 
L 204.536147 64.173745 
L 204.536147 64.092415 
L 205.600575 64.011085 
L 205.663188 63.88909 
L 205.788415 63.848425 
L 205.851028 63.685765 
L 206.289322 63.604435 
L 206.351935 63.523104 
L 206.665002 63.441774 
L 206.727615 63.360444 
L 206.790229 63.360444 
L 206.852842 63.116454 
L 207.228522 63.035124 
L 207.228522 62.994459 
L 207.72943 62.953794 
L 207.72943 62.872464 
L 208.919084 62.791134 
L 208.981697 62.628474 
L 209.357377 62.547144 
L 209.357377 62.506479 
L 209.795671 62.425149 
L 209.795671 62.384484 
L 210.233965 62.303153 
L 210.233965 62.262488 
L 210.547032 62.181158 
L 210.547032 62.140493 
L 211.047939 62.059163 
L 211.047939 62.018498 
L 211.173165 62.018498 
L 211.173165 61.896503 
L 211.674072 61.896503 
L 211.674072 61.652513 
L 212.112366 61.571183 
L 212.112366 61.530518 
L 212.237593 61.530518 
L 212.300206 61.327193 
L 212.55066 61.245863 
L 212.55066 61.205198 
L 212.988953 61.164533 
L 213.051567 61.042537 
L 213.928154 60.961207 
L 213.990767 60.879877 
L 214.554288 60.798547 
L 214.554288 60.757882 
L 214.929968 60.676552 
L 214.929968 60.635887 
L 215.493489 60.554557 
L 215.493489 60.513892 
L 215.931782 60.432562 
L 215.931782 60.391897 
L 216.620529 60.310567 
L 216.683143 60.229237 
L 218.060637 60.147907 
L 218.060637 60.107242 
L 218.436317 60.025912 
L 218.498931 59.781921 
L 219.125065 59.700591 
L 219.125065 59.659926 
L 219.500745 59.578596 
L 219.563358 59.375271 
L 220.064265 59.293941 
L 220.064265 59.253276 
L 220.377332 59.171946 
L 220.377332 59.131281 
L 220.878239 59.090616 
L 220.940853 58.765296 
L 221.066079 58.724631 
L 221.128693 58.602635 
L 222.00528 58.521305 
L 222.00528 58.48064 
L 222.506187 58.39931 
L 222.5688 58.195985 
L 223.069707 58.114655 
L 223.132321 58.033325 
L 223.445388 58.033325 
L 223.445388 57.870665 
L 223.821068 57.83 
L 223.821068 57.708005 
L 224.071521 57.708005 
L 224.071521 57.58601 
L 224.384588 57.58601 
L 224.447202 57.382684 
L 224.885495 57.301354 
L 224.885495 57.260689 
L 225.323789 57.179359 
L 225.386402 56.976034 
L 225.887309 56.894704 
L 225.887309 56.854039 
L 226.63867 56.772709 
L 226.701283 56.691379 
L 227.01435 56.691379 
L 227.01435 56.528719 
L 227.264804 56.447389 
L 227.264804 56.406724 
L 227.640484 56.406724 
L 227.640484 56.244064 
L 228.078778 56.203398 
L 228.078778 56.122068 
L 228.329231 56.040738 
L 228.329231 56.000073 
L 228.830138 55.918743 
L 228.830138 55.756083 
L 229.080592 55.715418 
L 229.080592 55.593423 
L 229.268432 55.512093 
L 229.331045 55.430763 
L 229.957179 55.390098 
L 229.957179 55.268103 
L 230.270246 55.186773 
L 230.270246 55.024113 
L 230.70854 54.942782 
L 230.70854 54.902117 
L 231.08422 54.820787 
L 231.08422 54.780122 
L 231.27206 54.780122 
L 231.27206 54.658127 
L 231.898194 54.576797 
L 231.898194 54.536132 
L 232.273874 54.495467 
L 232.273874 54.414137 
L 232.712168 54.332807 
L 232.712168 54.129482 
L 232.962621 54.129482 
L 232.962621 53.926157 
L 233.526142 53.844827 
L 233.526142 53.804162 
L 233.713982 53.722831 
L 233.776595 53.600836 
L 234.402729 53.519506 
L 234.402729 53.438176 
L 234.966249 53.397511 
L 235.028863 53.275516 
L 235.279316 53.275516 
L 235.279316 53.031526 
L 235.654997 52.950196 
L 235.71761 52.868866 
L 236.594197 52.787536 
L 236.656811 52.584211 
L 236.844651 52.543545 
L 236.844651 52.42155 
L 237.345558 52.34022 
L 237.345558 52.299555 
L 237.846465 52.218225 
L 237.909078 52.09623 
L 238.347372 52.0149 
L 238.347372 51.93357 
L 238.660439 51.892905 
L 238.660439 51.811575 
L 239.036119 51.730245 
L 239.098732 51.648915 
L 239.59964 51.567585 
L 239.662253 51.44559 
L 239.912706 51.44559 
L 239.912706 51.282929 
L 240.288387 51.201599 
L 240.288387 51.160934 
L 240.53884 51.079604 
L 240.601454 50.916944 
L 240.789294 50.835614 
L 240.851907 50.591624 
L 241.227587 50.510294 
L 241.290201 50.388299 
L 241.853721 50.306969 
L 241.916335 50.184974 
L 242.855535 50.103643 
L 242.918149 49.696993 
L 243.105989 49.656328 
L 243.168602 49.534333 
L 243.419056 49.453003 
L 243.481669 49.331008 
L 243.919963 49.249678 
L 243.919963 49.168348 
L 244.546096 49.087018 
L 244.60871 49.005688 
L 245.234844 48.924358 
L 245.297457 48.761697 
L 245.485297 48.761697 
L 245.547911 48.599037 
L 246.424498 48.517707 
L 246.424498 48.477042 
L 246.925405 48.436377 
L 246.925405 48.355047 
L 247.739379 48.273717 
L 247.739379 48.192387 
L 248.177672 48.111057 
L 248.177672 48.070392 
L 248.490739 48.070392 
L 248.490739 47.867067 
L 248.86642 47.785737 
L 248.929033 47.704407 
L 249.179487 47.704407 
L 249.179487 47.582411 
L 249.367327 47.541746 
L 249.42994 47.379086 
L 249.492553 47.379086 
L 249.555167 47.135096 
L 250.431754 47.053766 
L 250.494368 46.972436 
L 250.807434 46.931771 
L 250.807434 46.769111 
L 251.183115 46.728446 
L 251.183115 46.647116 
L 251.433568 46.647116 
L 251.496182 46.403125 
L 251.809248 46.321795 
L 251.809248 46.28113 
L 252.247542 46.1998 
L 252.310156 46.11847 
L 252.811063 46.03714 
L 252.811063 45.95581 
L 254.188557 45.87448 
L 254.188557 45.833815 
L 255.002531 45.79315 
L 255.065144 45.63049 
L 255.566051 45.54916 
L 255.628665 45.264504 
L 256.066958 45.183174 
L 256.129572 45.061179 
L 256.317412 44.979849 
L 256.380025 44.857854 
L 256.630479 44.776524 
L 256.630479 44.695194 
L 257.006159 44.613864 
L 257.006159 44.573199 
L 257.256612 44.491869 
L 257.256612 44.451204 
L 258.383653 44.369874 
L 258.446267 44.166549 
L 258.69672 44.085219 
L 258.759334 43.922558 
L 259.635921 43.881893 
L 259.635921 43.800563 
L 260.011601 43.759898 
L 260.011601 43.678568 
L 260.762962 43.597238 
L 260.762962 43.556573 
L 261.263869 43.515908 
L 261.326482 43.353248 
L 261.702162 43.271918 
L 261.702162 43.231253 
L 262.015229 43.190588 
L 262.015229 43.109258 
L 262.140456 43.109258 
L 262.140456 42.946598 
L 262.891817 42.865268 
L 262.95443 42.743272 
L 263.705791 42.661942 
L 263.705791 42.621277 
L 264.269311 42.539947 
L 264.331924 42.458617 
L 265.083285 42.417952 
L 265.083285 42.336622 
L 265.271125 42.336622 
L 265.271125 42.214627 
L 266.085099 42.133297 
L 266.147712 41.970637 
L 266.335552 41.889307 
L 266.335552 41.848642 
L 267.21214 41.767312 
L 267.274753 41.685982 
L 267.525207 41.604651 
L 267.525207 41.563986 
L 268.026114 41.482656 
L 268.088727 41.401326 
L 268.213954 41.401326 
L 268.213954 41.279331 
L 268.965314 41.198001 
L 269.027928 41.116671 
L 270.029742 41.035341 
L 270.029742 40.994676 
L 270.468035 40.913346 
L 270.468035 40.872681 
L 270.843716 40.791351 
L 270.843716 40.750686 
L 271.282009 40.710021 
L 271.282009 40.588026 
L 272.03337 40.506696 
L 272.095983 40.425366 
L 272.722117 40.344035 
L 272.722117 40.30337 
L 273.348251 40.22204 
L 273.348251 40.181375 
L 274.099611 40.14071 
L 274.099611 39.937385 
L 274.788359 39.856055 
L 274.788359 39.81539 
L 275.727559 39.73406 
L 275.790173 39.5714 
L 276.10324 39.49007 
L 276.10324 39.449405 
L 277.23028 39.368075 
L 277.23028 39.32741 
L 277.543347 39.24608 
L 277.543347 39.164749 
L 277.856414 39.124084 
L 277.856414 39.042754 
L 278.357321 38.961424 
L 278.357321 38.920759 
L 279.421749 38.839429 
L 279.421749 38.798764 
L 279.797429 38.717434 
L 279.797429 38.636104 
L 279.922656 38.636104 
L 279.922656 38.473444 
L 280.235723 38.473444 
L 280.298336 38.310784 
L 280.486176 38.310784 
L 280.486176 38.188789 
L 280.73663 38.188789 
L 280.73663 38.066794 
L 281.174923 38.026129 
L 281.174923 37.863468 
L 281.863671 37.822803 
L 281.863671 37.741473 
L 283.241165 37.660143 
L 283.241165 37.619478 
L 283.554232 37.578813 
L 283.554232 37.497483 
L 283.742072 37.497483 
L 283.804685 37.172163 
L 284.681273 37.090833 
L 284.681273 37.050168 
L 285.18218 36.968838 
L 285.18218 36.928173 
L 285.620473 36.846843 
L 285.683087 36.765513 
L 286.058767 36.684182 
L 286.058767 36.602852 
L 286.497061 36.521522 
L 286.497061 36.440192 
L 286.810127 36.358862 
L 286.810127 36.318197 
L 287.311034 36.236867 
L 287.311034 36.196202 
L 287.811942 36.114872 
L 287.874555 35.992877 
L 288.438075 35.952212 
L 288.500689 35.789552 
L 289.252049 35.748887 
L 289.252049 35.667557 
L 289.62773 35.667557 
L 289.690343 35.464231 
L 290.37909 35.382901 
L 290.37909 35.342236 
L 290.817384 35.301571 
L 290.817384 35.220241 
L 291.255677 35.179576 
L 291.318291 35.016916 
L 291.631358 34.935586 
L 291.631358 34.772926 
L 291.819198 34.772926 
L 291.819198 34.650931 
L 292.633172 34.569601 
L 292.633172 34.528936 
L 292.946239 34.447606 
L 292.946239 34.406941 
L 293.634986 34.325611 
L 293.634986 34.284945 
L 294.198506 34.203615 
L 294.198506 33.959625 
L 294.386346 33.959625 
L 294.44896 33.7563 
L 295.262934 33.67497 
L 295.262934 33.552975 
L 295.701227 33.471645 
L 295.701227 33.43098 
L 296.765655 33.34965 
L 296.765655 33.227655 
L 297.329175 33.18699 
L 297.329175 33.10566 
L 297.767469 33.024329 
L 297.767469 32.942999 
L 298.017922 32.942999 
L 298.080536 32.658344 
L 298.70667 32.577014 
L 298.769283 32.495684 
L 299.27019 32.414354 
L 299.27019 32.373689 
L 299.64587 32.292359 
L 299.708484 32.211029 
L 300.209391 32.129699 
L 300.209391 32.089034 
L 300.835524 32.007704 
L 300.835524 31.967039 
L 301.524272 31.926374 
L 301.524272 31.845043 
L 302.213019 31.763713 
L 302.213019 31.723048 
L 302.776539 31.682383 
L 302.776539 31.601053 
L 303.34006 31.519723 
L 303.34006 31.438393 
L 304.154034 31.357063 
L 304.154034 31.316398 
L 304.842781 31.275733 
L 304.842781 31.153738 
L 305.218461 31.072408 
L 305.281074 30.950413 
L 305.719368 30.869083 
L 305.781981 30.787753 
L 306.157662 30.706423 
L 306.157662 30.584427 
L 306.345502 30.543762 
L 306.345502 30.462432 
L 306.595955 30.421767 
L 306.658569 30.177777 
L 306.846409 30.177777 
L 306.846409 30.055782 
L 307.096862 30.055782 
L 307.096862 29.893122 
L 307.284702 29.852457 
L 307.284702 29.771127 
L 307.910836 29.689797 
L 307.910836 29.649132 
L 308.286517 29.567802 
L 308.286517 29.486472 
L 308.662197 29.445807 
L 308.72481 29.323811 
L 310.227531 29.242481 
L 310.290145 29.120486 
L 310.540598 29.079821 
L 310.540598 28.998491 
L 311.104119 28.917161 
L 311.104119 28.876496 
L 311.918093 28.795166 
L 311.918093 28.754501 
L 312.043319 28.754501 
L 312.043319 28.632506 
L 312.356386 28.591841 
L 312.356386 28.510511 
L 312.919907 28.429181 
L 312.919907 28.388516 
L 313.859107 28.307186 
L 313.859107 28.266521 
L 314.234788 28.18519 
L 314.297401 28.063195 
L 314.547854 28.02253 
L 314.547854 27.9412 
L 314.923535 27.85987 
L 314.923535 27.819205 
L 315.737509 27.737875 
L 315.737509 27.61588 
L 316.426256 27.53455 
L 316.426256 27.493885 
L 317.177616 27.493885 
L 317.177616 27.37189 
L 317.42807 27.331225 
L 317.42807 27.20923 
L 318.868178 27.1279 
L 318.868178 27.087235 
L 320.120445 27.005905 
L 320.120445 26.965239 
L 320.746579 26.883909 
L 320.746579 26.843244 
L 321.059646 26.802579 
L 321.122259 26.639919 
L 321.49794 26.558589 
L 321.49794 26.436594 
L 321.998847 26.355264 
L 321.998847 26.314599 
L 322.687594 26.233269 
L 322.687594 26.192604 
L 323.814635 26.151939 
L 323.814635 26.070609 
L 324.190315 25.989279 
L 324.252928 25.907949 
L 325.192129 25.867284 
L 325.254742 25.663958 
L 325.943489 25.582628 
L 325.943489 25.501298 
L 327.007917 25.419968 
L 327.007917 25.338638 
L 327.884504 25.257308 
L 327.884504 25.094648 
L 328.197571 25.013318 
L 328.197571 24.972653 
L 328.510638 24.891323 
L 328.510638 24.850658 
L 329.261999 24.809993 
L 329.261999 24.728663 
L 330.827333 24.647333 
L 330.827333 24.606668 
L 332.517894 24.525337 
L 332.517894 24.484672 
L 333.269255 24.403342 
L 333.269255 24.362677 
L 333.457095 24.362677 
L 333.457095 24.240682 
L 334.396296 24.159352 
L 334.396296 24.118687 
L 335.022429 24.037357 
L 335.085043 23.956027 
L 335.899017 23.874697 
L 335.899017 23.834032 
L 336.33731 23.752702 
L 336.33731 23.671372 
L 336.838217 23.590042 
L 336.838217 23.549377 
L 337.088671 23.508712 
L 337.088671 23.386717 
L 338.027872 23.305386 
L 338.027872 23.264721 
L 339.530593 23.183391 
L 339.530593 23.142726 
L 339.718433 23.102061 
L 339.718433 23.020731 
L 339.906273 22.980066 
L 339.906273 22.898736 
L 340.156727 22.858071 
L 340.156727 22.776741 
L 340.532407 22.776741 
L 340.532407 22.654746 
L 341.158541 22.573416 
L 341.158541 22.532751 
L 341.909901 22.451421 
L 341.972515 22.370091 
L 342.911715 22.288761 
L 342.911715 22.248096 
L 343.663076 22.207431 
L 343.663076 22.085435 
L 344.85273 22.004105 
L 344.915343 21.71945 
L 345.04057 21.678785 
L 345.103184 21.47546 
L 345.41625 21.39413 
L 345.41625 21.353465 
L 346.605905 21.272135 
L 346.605905 21.190805 
L 347.732945 21.109475 
L 347.795559 21.028145 
L 348.171239 20.946815 
L 348.171239 20.90615 
L 348.73476 20.865484 
L 348.73476 20.784154 
L 349.799187 20.702824 
L 349.799187 20.662159 
L 350.300094 20.580829 
L 350.362707 20.458834 
L 351.614975 20.377504 
L 351.614975 20.336839 
L 352.742016 20.255509 
L 352.742016 20.214844 
L 353.36815 20.174179 
L 353.36815 20.092849 
L 353.806443 20.052184 
L 353.806443 19.970854 
L 354.369964 19.889524 
L 354.432577 19.726864 
L 354.808257 19.645533 
L 354.808257 19.523538 
L 355.747458 19.442208 
L 355.747458 19.401543 
L 357.124952 19.360878 
L 357.124952 19.279548 
L 357.688473 19.238883 
L 357.688473 19.157553 
L 358.7529 19.076223 
L 358.7529 19.035558 
L 359.253807 18.994893 
L 359.253807 18.913563 
L 359.692101 18.872898 
L 359.692101 18.791568 
L 360.443461 18.750903 
L 360.443461 18.669573 
L 361.257435 18.588243 
L 361.257435 18.547578 
L 362.196636 18.466247 
L 362.259249 18.344252 
L 362.697543 18.303587 
L 362.760156 18.181592 
L 363.323677 18.100262 
L 363.38629 17.978267 
L 364.012424 17.896937 
L 364.012424 17.856272 
L 364.826398 17.774942 
L 364.826398 17.693612 
L 365.702985 17.612282 
L 365.765599 17.490287 
L 365.890825 17.449622 
L 365.953439 17.286962 
L 366.141279 17.205631 
L 366.203892 17.124301 
L 366.266506 17.124301 
L 366.266506 17.083636 
" clip-path="url(#p3218e4754e)" style="fill: none; stroke: #ff7f0e; stroke-width: 1.5; stroke-linecap: square"/>
   </g>
   <g id="patch_3">
    <path d="M 46.684688 224.64 
L 46.684688 7.2 
" style="fill: none; stroke: #000000; stroke-width: 0.8; stroke-linejoin: miter; stroke-linecap: square"/>
   </g>
   <g id="patch_4">
    <path d="M 381.484688 224.64 
L 381.484688 7.2 
" style="fill: none; stroke: #000000; stroke-width: 0.8; stroke-linejoin: miter; stroke-linecap: square"/>
   </g>
   <g id="patch_5">
    <path d="M 46.684688 224.64 
L 381.484688 224.64 
" style="fill: none; stroke: #000000; stroke-width: 0.8; stroke-linejoin: miter; stroke-linecap: square"/>
   </g>
   <g id="patch_6">
    <path d="M 46.684688 7.2 
L 381.484688 7.2 
" style="fill: none; stroke: #000000; stroke-width: 0.8; stroke-linejoin: miter; stroke-linecap: square"/>
   </g>
   <g id="legend_1">
    <g id="patch_7">
     <path d="M 176.356875 218.14 
L 372.384687 218.14 
Q 374.984688 218.14 374.984688 215.54 
L 374.984688 178.676875 
Q 374.984688 176.076875 372.384687 176.076875 
L 176.356875 176.076875 
Q 173.756875 176.076875 173.756875 178.676875 
L 173.756875 215.54 
Q 173.756875 218.14 176.356875 218.14 
z
" style="fill: #ffffff; opacity: 0.8; stroke: #cccccc; stroke-linejoin: miter"/>
    </g>
    <g id="line2d_15">
     <path d="M 178.956875 186.604844 
L 191.956875 186.604844 
L 204.956875 186.604844 
" style="fill: none; stroke: #1f77b4; stroke-width: 1.5; stroke-linecap: square"/>
    </g>
    <g id="text_15">
     <!-- RotInvVAE, AUC =0.968 -->
     <g transform="translate(215.356875 191.154844) scale(0.13 -0.13)">
      <defs>
       <path id="DejaVuSans-49" d="M 628 4666 
L 1259 4666 
L 1259 0 
L 628 0 
L 628 4666 
z
" transform="scale(0.015625)"/>
       <path id="DejaVuSans-6e" d="M 3513 2113 
L 3513 0 
L 2938 0 
L 2938 2094 
Q 2938 2591 2744 2837 
Q 2550 3084 2163 3084 
Q 1697 3084 1428 2787 
Q 1159 2491 1159 1978 
L 1159 0 
L 581 0 
L 581 3500 
L 1159 3500 
L 1159 2956 
Q 1366 3272 1645 3428 
Q 1925 3584 2291 3584 
Q 2894 3584 3203 3211 
Q 3513 2838 3513 2113 
z
" transform="scale(0.015625)"/>
       <path id="DejaVuSans-56" d="M 1831 0 
L 50 4666 
L 709 4666 
L 2188 738 
L 3669 4666 
L 4325 4666 
L 2547 0 
L 1831 0 
z
" transform="scale(0.015625)"/>
       <path id="DejaVuSans-41" d="M 2188 4044 
L 1331 1722 
L 3047 1722 
L 2188 4044 
z
M 1831 4666 
L 2547 4666 
L 4325 0 
L 3669 0 
L 3244 1197 
L 1141 1197 
L 716 0 
L 50 0 
L 1831 4666 
z
" transform="scale(0.015625)"/>
       <path id="DejaVuSans-45" d="M 628 4666 
L 3578 4666 
L 3578 4134 
L 1259 4134 
L 1259 2753 
L 3481 2753 
L 3481 2222 
L 1259 2222 
L 1259 531 
L 3634 531 
L 3634 0 
L 628 0 
L 628 4666 
z
" transform="scale(0.015625)"/>
       <path id="DejaVuSans-2c" d="M 750 794 
L 1409 794 
L 1409 256 
L 897 -744 
L 494 -744 
L 750 256 
L 750 794 
z
" transform="scale(0.015625)"/>
       <path id="DejaVuSans-55" d="M 556 4666 
L 1191 4666 
L 1191 1831 
Q 1191 1081 1462 751 
Q 1734 422 2344 422 
Q 2950 422 3222 751 
Q 3494 1081 3494 1831 
L 3494 4666 
L 4128 4666 
L 4128 1753 
Q 4128 841 3676 375 
Q 3225 -91 2344 -91 
Q 1459 -91 1007 375 
Q 556 841 556 1753 
L 556 4666 
z
" transform="scale(0.015625)"/>
       <path id="DejaVuSans-43" d="M 4122 4306 
L 4122 3641 
Q 3803 3938 3442 4084 
Q 3081 4231 2675 4231 
Q 1875 4231 1450 3742 
Q 1025 3253 1025 2328 
Q 1025 1406 1450 917 
Q 1875 428 2675 428 
Q 3081 428 3442 575 
Q 3803 722 4122 1019 
L 4122 359 
Q 3791 134 3420 21 
Q 3050 -91 2638 -91 
Q 1578 -91 968 557 
Q 359 1206 359 2328 
Q 359 3453 968 4101 
Q 1578 4750 2638 4750 
Q 3056 4750 3426 4639 
Q 3797 4528 4122 4306 
z
" transform="scale(0.015625)"/>
       <path id="DejaVuSans-3d" d="M 678 2906 
L 4684 2906 
L 4684 2381 
L 678 2381 
L 678 2906 
z
M 678 1631 
L 4684 1631 
L 4684 1100 
L 678 1100 
L 678 1631 
z
" transform="scale(0.015625)"/>
       <path id="DejaVuSans-39" d="M 703 97 
L 703 672 
Q 941 559 1184 500 
Q 1428 441 1663 441 
Q 2288 441 2617 861 
Q 2947 1281 2994 2138 
Q 2813 1869 2534 1725 
Q 2256 1581 1919 1581 
Q 1219 1581 811 2004 
Q 403 2428 403 3163 
Q 403 3881 828 4315 
Q 1253 4750 1959 4750 
Q 2769 4750 3195 4129 
Q 3622 3509 3622 2328 
Q 3622 1225 3098 567 
Q 2575 -91 1691 -91 
Q 1453 -91 1209 -44 
Q 966 3 703 97 
z
M 1959 2075 
Q 2384 2075 2632 2365 
Q 2881 2656 2881 3163 
Q 2881 3666 2632 3958 
Q 2384 4250 1959 4250 
Q 1534 4250 1286 3958 
Q 1038 3666 1038 3163 
Q 1038 2656 1286 2365 
Q 1534 2075 1959 2075 
z
" transform="scale(0.015625)"/>
      </defs>
      <use xlink:href="#DejaVuSans-52"/>
      <use xlink:href="#DejaVuSans-6f" x="64.982422"/>
      <use xlink:href="#DejaVuSans-74" x="126.164062"/>
      <use xlink:href="#DejaVuSans-49" x="165.373047"/>
      <use xlink:href="#DejaVuSans-6e" x="194.865234"/>
      <use xlink:href="#DejaVuSans-76" x="258.244141"/>
      <use xlink:href="#DejaVuSans-56" x="317.423828"/>
      <use xlink:href="#DejaVuSans-41" x="379.457031"/>
      <use xlink:href="#DejaVuSans-45" x="447.865234"/>
      <use xlink:href="#DejaVuSans-2c" x="511.048828"/>
      <use xlink:href="#DejaVuSans-20" x="542.835938"/>
      <use xlink:href="#DejaVuSans-41" x="574.623047"/>
      <use xlink:href="#DejaVuSans-55" x="643.03125"/>
      <use xlink:href="#DejaVuSans-43" x="716.224609"/>
      <use xlink:href="#DejaVuSans-20" x="786.048828"/>
      <use xlink:href="#DejaVuSans-3d" x="817.835938"/>
      <use xlink:href="#DejaVuSans-30" x="901.625"/>
      <use xlink:href="#DejaVuSans-2e" x="965.248047"/>
      <use xlink:href="#DejaVuSans-39" x="997.035156"/>
      <use xlink:href="#DejaVuSans-36" x="1060.658203"/>
      <use xlink:href="#DejaVuSans-38" x="1124.28125"/>
     </g>
    </g>
    <g id="line2d_16">
     <path d="M 178.956875 205.686406 
L 191.956875 205.686406 
L 204.956875 205.686406 
" style="fill: none; stroke: #ff7f0e; stroke-width: 1.5; stroke-linecap: square"/>
    </g>
    <g id="text_16">
     <!-- VAE, AUC =0.739 -->
     <g transform="translate(215.356875 210.236406) scale(0.13 -0.13)">
      <defs>
       <path id="DejaVuSans-37" d="M 525 4666 
L 3525 4666 
L 3525 4397 
L 1831 0 
L 1172 0 
L 2766 4134 
L 525 4134 
L 525 4666 
z
" transform="scale(0.015625)"/>
       <path id="DejaVuSans-33" d="M 2597 2516 
Q 3050 2419 3304 2112 
Q 3559 1806 3559 1356 
Q 3559 666 3084 287 
Q 2609 -91 1734 -91 
Q 1441 -91 1130 -33 
Q 819 25 488 141 
L 488 750 
Q 750 597 1062 519 
Q 1375 441 1716 441 
Q 2309 441 2620 675 
Q 2931 909 2931 1356 
Q 2931 1769 2642 2001 
Q 2353 2234 1838 2234 
L 1294 2234 
L 1294 2753 
L 1863 2753 
Q 2328 2753 2575 2939 
Q 2822 3125 2822 3475 
Q 2822 3834 2567 4026 
Q 2313 4219 1838 4219 
Q 1578 4219 1281 4162 
Q 984 4106 628 3988 
L 628 4550 
Q 988 4650 1302 4700 
Q 1616 4750 1894 4750 
Q 2613 4750 3031 4423 
Q 3450 4097 3450 3541 
Q 3450 3153 3228 2886 
Q 3006 2619 2597 2516 
z
" transform="scale(0.015625)"/>
      </defs>
      <use xlink:href="#DejaVuSans-56"/>
      <use xlink:href="#DejaVuSans-41" x="62.033203"/>
      <use xlink:href="#DejaVuSans-45" x="130.441406"/>
      <use xlink:href="#DejaVuSans-2c" x="193.625"/>
      <use xlink:href="#DejaVuSans-20" x="225.412109"/>
      <use xlink:href="#DejaVuSans-41" x="257.199219"/>
      <use xlink:href="#DejaVuSans-55" x="325.607422"/>
      <use xlink:href="#DejaVuSans-43" x="398.800781"/>
      <use xlink:href="#DejaVuSans-20" x="468.625"/>
      <use xlink:href="#DejaVuSans-3d" x="500.412109"/>
      <use xlink:href="#DejaVuSans-30" x="584.201172"/>
      <use xlink:href="#DejaVuSans-2e" x="647.824219"/>
      <use xlink:href="#DejaVuSans-37" x="679.611328"/>
      <use xlink:href="#DejaVuSans-33" x="743.234375"/>
      <use xlink:href="#DejaVuSans-39" x="806.857422"/>
     </g>
    </g>
   </g>
  </g>
 </g>
 <defs>
  <clipPath id="p3218e4754e">
   <rect x="46.684688" y="7.2" width="334.8" height="217.44"/>
  </clipPath>
 </defs>
</svg>
